<svg height="500" width="500" xmlns="http://www.w3.org/2000/svg">
<polyline points=" 0.00, 500.00  0.00, 475.00 25.00, 475.00 25.00, 500.00  0.00, 500.00" style="stroke:black; fill:none" />
<polyline points=" 0.00, 500.00 25.00, 475.00" style="stroke:black; fill:none" />
<polyline points="25.00, 500.00  0.00, 475.00" style="stroke:black; fill:none" />
<polyline points=" 0.00, 475.00  0.00, 450.00 25.00, 450.00 25.00, 475.00  0.00, 475.00" style="stroke:black; fill:none" />
<polyline points=" 0.00, 475.00 25.00, 450.00" style="stroke:black; fill:none" />
<polyline points="25.00, 475.00  0.00, 450.00" style="stroke:black; fill:none" />
<polyline points=" 0.00, 450.00  0.00, 425.00 25.00, 425.00 25.00, 450.00  0.00, 450.00" style="stroke:black; fill:none" />
<polyline points=" 0.00, 450.00 25.00, 425.00" style="stroke:black; fill:none" />
<polyline points="25.00, 450.00  0.00, 425.00" style="stroke:black; fill:none" />
<polyline points=" 0.00, 425.00  0.00, 400.00 25.00, 400.00 25.00, 425.00  0.00, 425.00" style="stroke:black; fill:none" />
<polyline points=" 0.00, 425.00 25.00, 400.00" style="stroke:black; fill:none" />
<polyline points="25.00, 425.00  0.00, 400.00" style="stroke:black; fill:none" />
<polyline points=" 0.00, 400.00  0.00, 375.00 25.00, 375.00 25.00, 400.00  0.00, 400.00" style="stroke:black; fill:none" />
<polyline points=" 0.00, 400.00 25.00, 375.00" style="stroke:black; fill:none" />
<polyline points="25.00, 400.00  0.00, 375.00" style="stroke:black; fill:none" />
<polyline points=" 0.00, 375.00  0.00, 350.00 25.00, 350.00 25.00, 375.00  0.00, 375.00" style="stroke:black; fill:none" />
<polyline points=" 0.00, 375.00 25.00, 350.00" style="stroke:black; fill:none" />
<polyline points="25.00, 375.00  0.00, 350.00" style="stroke:black; fill:none" />
<polyline points=" 0.00, 350.00  0.00, 325.00 25.00, 325.00 25.00, 350.00  0.00, 350.00" style="stroke:black; fill:none" />
<polyline points=" 0.00, 350.00 25.00, 325.00" style="stroke:black; fill:none" />
<polyline points="25.00, 350.00  0.00, 325.00" style="stroke:black; fill:none" />
<polyline points=" 0.00, 325.00  0.00, 300.00 25.00, 300.00 25.00, 325.00  0.00, 325.00" style="stroke:black; fill:none" />
<polyline points=" 0.00, 325.00 25.00, 300.00" style="stroke:black; fill:none" />
<polyline points="25.00, 325.00  0.00, 300.00" style="stroke:black; fill:none" />
<polyline points=" 0.00, 300.00  0.00, 275.00 25.00, 275.00 25.00, 300.00  0.00, 300.00" style="stroke:black; fill:none" />
<polyline points=" 0.00, 300.00 25.00, 275.00" style="stroke:black; fill:none" />
<polyline points="25.00, 300.00  0.00, 275.00" style="stroke:black; fill:none" />
<polyline points=" 0.00, 275.00  0.00, 250.00 25.00, 250.00 25.00, 275.00  0.00, 275.00" style="stroke:black; fill:none" />
<polyline points=" 0.00, 275.00 25.00, 250.00" style="stroke:black; fill:none" />
<polyline points="25.00, 275.00  0.00, 250.00" style="stroke:black; fill:none" />
<polyline points=" 0.00, 250.00  0.00, 225.00 25.00, 225.00 25.00, 250.00  0.00, 250.00" style="stroke:black; fill:none" />
<polyline points=" 0.00, 250.00 25.00, 225.00" style="stroke:black; fill:none" />
<polyline points="25.00, 250.00  0.00, 225.00" style="stroke:black; fill:none" />
<polyline points=" 0.00, 225.00  0.00, 200.00 25.00, 200.00 25.00, 225.00  0.00, 225.00" style="stroke:black; fill:none" />
<polyline points=" 0.00, 225.00 25.00, 200.00" style="stroke:black; fill:none" />
<polyline points="25.00, 225.00  0.00, 200.00" style="stroke:black; fill:none" />
<polyline points=" 0.00, 200.00  0.00, 175.00 25.00, 175.00 25.00, 200.00  0.00, 200.00" style="stroke:black; fill:none" />
<polyline points=" 0.00, 200.00 25.00, 175.00" style="stroke:black; fill:none" />
<polyline points="25.00, 200.00  0.00, 175.00" style="stroke:black; fill:none" />
<polyline points=" 0.00, 175.00  0.00, 150.00 25.00, 150.00 25.00, 175.00  0.00, 175.00" style="stroke:black; fill:none" />
<polyline points=" 0.00, 175.00 25.00, 150.00" style="stroke:black; fill:none" />
<polyline points="25.00, 175.00  0.00, 150.00" style="stroke:black; fill:none" />
<polyline points=" 0.00, 150.00  0.00, 125.00 25.00, 125.00 25.00, 150.00  0.00, 150.00" style="stroke:black; fill:none" />
<polyline points=" 0.00, 150.00 25.00, 125.00" style="stroke:black; fill:none" />
<polyline points="25.00, 150.00  0.00, 125.00" style="stroke:black; fill:none" />
<polyline points=" 0.00, 125.00  0.00, 100.00 25.00, 100.00 25.00, 125.00  0.00, 125.00" style="stroke:black; fill:none" />
<polyline points=" 0.00, 125.00 25.00, 100.00" style="stroke:black; fill:none" />
<polyline points="25.00, 125.00  0.00, 100.00" style="stroke:black; fill:none" />
<polyline points="25.00, 500.00 25.00, 475.00 50.00, 475.00 50.00, 500.00 25.00, 500.00" style="stroke:black; fill:none" />
<polyline points="25.00, 500.00 50.00, 475.00" style="stroke:black; fill:none" />
<polyline points="50.00, 500.00 25.00, 475.00" style="stroke:black; fill:none" />
<polyline points="25.00, 475.00 25.00, 450.00 50.00, 450.00 50.00, 475.00 25.00, 475.00" style="stroke:black; fill:none" />
<polyline points="25.00, 475.00 50.00, 450.00" style="stroke:black; fill:none" />
<polyline points="50.00, 475.00 25.00, 450.00" style="stroke:black; fill:none" />
<polyline points="25.00, 450.00 25.00, 425.00 50.00, 425.00 50.00, 450.00 25.00, 450.00" style="stroke:black; fill:none" />
<polyline points="25.00, 450.00 50.00, 425.00" style="stroke:black; fill:none" />
<polyline points="50.00, 450.00 25.00, 425.00" style="stroke:black; fill:none" />
<polyline points="25.00, 425.00 25.00, 400.00 50.00, 400.00 50.00, 425.00 25.00, 425.00" style="stroke:black; fill:none" />
<polyline points="25.00, 425.00 50.00, 400.00" style="stroke:black; fill:none" />
<polyline points="50.00, 425.00 25.00, 400.00" style="stroke:black; fill:none" />
<polyline points="25.00, 400.00 25.00, 375.00 50.00, 375.00 50.00, 400.00 25.00, 400.00" style="stroke:black; fill:none" />
<polyline points="25.00, 400.00 50.00, 375.00" style="stroke:black; fill:none" />
<polyline points="50.00, 400.00 25.00, 375.00" style="stroke:black; fill:none" />
<polyline points="25.00, 375.00 25.00, 350.00 50.00, 350.00 50.00, 375.00 25.00, 375.00" style="stroke:black; fill:none" />
<polyline points="25.00, 375.00 50.00, 350.00" style="stroke:black; fill:none" />
<polyline points="50.00, 375.00 25.00, 350.00" style="stroke:black; fill:none" />
<polyline points="25.00, 350.00 25.00, 325.00 50.00, 325.00 50.00, 350.00 25.00, 350.00" style="stroke:black; fill:none" />
<polyline points="25.00, 350.00 50.00, 325.00" style="stroke:black; fill:none" />
<polyline points="50.00, 350.00 25.00, 325.00" style="stroke:black; fill:none" />
<polyline points="25.00, 325.00 25.00, 300.00 50.00, 300.00 50.00, 325.00 25.00, 325.00" style="stroke:black; fill:none" />
<polyline points="25.00, 325.00 50.00, 300.00" style="stroke:black; fill:none" />
<polyline points="50.00, 325.00 25.00, 300.00" style="stroke:black; fill:none" />
<polyline points="25.00, 300.00 25.00, 275.00 50.00, 275.00 50.00, 300.00 25.00, 300.00" style="stroke:black; fill:none" />
<polyline points="25.00, 300.00 50.00, 275.00" style="stroke:black; fill:none" />
<polyline points="50.00, 300.00 25.00, 275.00" style="stroke:black; fill:none" />
<polyline points="25.00, 275.00 25.00, 250.00 50.00, 250.00 50.00, 275.00 25.00, 275.00" style="stroke:black; fill:none" />
<polyline points="25.00, 275.00 50.00, 250.00" style="stroke:black; fill:none" />
<polyline points="50.00, 275.00 25.00, 250.00" style="stroke:black; fill:none" />
<polyline points="25.00, 250.00 25.00, 225.00 50.00, 225.00 50.00, 250.00 25.00, 250.00" style="stroke:black; fill:none" />
<polyline points="25.00, 250.00 50.00, 225.00" style="stroke:black; fill:none" />
<polyline points="50.00, 250.00 25.00, 225.00" style="stroke:black; fill:none" />
<polyline points="25.00, 225.00 25.00, 200.00 50.00, 200.00 50.00, 225.00 25.00, 225.00" style="stroke:black; fill:none" />
<polyline points="25.00, 225.00 50.00, 200.00" style="stroke:black; fill:none" />
<polyline points="50.00, 225.00 25.00, 200.00" style="stroke:black; fill:none" />
<polyline points="25.00, 200.00 25.00, 175.00 50.00, 175.00 50.00, 200.00 25.00, 200.00" style="stroke:black; fill:none" />
<polyline points="25.00, 200.00 50.00, 175.00" style="stroke:black; fill:none" />
<polyline points="50.00, 200.00 25.00, 175.00" style="stroke:black; fill:none" />
<polyline points="25.00, 175.00 25.00, 150.00 50.00, 150.00 50.00, 175.00 25.00, 175.00" style="stroke:black; fill:none" />
<polyline points="25.00, 175.00 50.00, 150.00" style="stroke:black; fill:none" />
<polyline points="50.00, 175.00 25.00, 150.00" style="stroke:black; fill:none" />
<polyline points="25.00, 150.00 25.00, 125.00 50.00, 125.00 50.00, 150.00 25.00, 150.00" style="stroke:black; fill:none" />
<polyline points="25.00, 150.00 50.00, 125.00" style="stroke:black; fill:none" />
<polyline points="50.00, 150.00 25.00, 125.00" style="stroke:black; fill:none" />
<polyline points="25.00, 125.00 25.00, 100.00 50.00, 100.00 50.00, 125.00 25.00, 125.00" style="stroke:black; fill:none" />
<polyline points="25.00, 125.00 50.00, 100.00" style="stroke:black; fill:none" />
<polyline points="50.00, 125.00 25.00, 100.00" style="stroke:black; fill:none" />
<polyline points="50.00, 500.00 50.00, 475.00 75.00, 475.00 75.00, 500.00 50.00, 500.00" style="stroke:black; fill:none" />
<polyline points="50.00, 500.00 75.00, 475.00" style="stroke:black; fill:none" />
<polyline points="75.00, 500.00 50.00, 475.00" style="stroke:black; fill:none" />
<polyline points="50.00, 475.00 50.00, 450.00 75.00, 450.00 75.00, 475.00 50.00, 475.00" style="stroke:black; fill:none" />
<polyline points="50.00, 475.00 75.00, 450.00" style="stroke:black; fill:none" />
<polyline points="75.00, 475.00 50.00, 450.00" style="stroke:black; fill:none" />
<polyline points="50.00, 450.00 50.00, 425.00 75.00, 425.00 75.00, 450.00 50.00, 450.00" style="stroke:black; fill:none" />
<polyline points="50.00, 450.00 75.00, 425.00" style="stroke:black; fill:none" />
<polyline points="75.00, 450.00 50.00, 425.00" style="stroke:black; fill:none" />
<polyline points="50.00, 425.00 50.00, 400.00 75.00, 400.00 75.00, 425.00 50.00, 425.00" style="stroke:black; fill:none" />
<polyline points="50.00, 425.00 75.00, 400.00" style="stroke:black; fill:none" />
<polyline points="75.00, 425.00 50.00, 400.00" style="stroke:black; fill:none" />
<polyline points="50.00, 400.00 50.00, 375.00 75.00, 375.00 75.00, 400.00 50.00, 400.00" style="stroke:black; fill:none" />
<polyline points="50.00, 400.00 75.00, 375.00" style="stroke:black; fill:none" />
<polyline points="75.00, 400.00 50.00, 375.00" style="stroke:black; fill:none" />
<polyline points="50.00, 375.00 50.00, 350.00 75.00, 350.00 75.00, 375.00 50.00, 375.00" style="stroke:black; fill:none" />
<polyline points="50.00, 375.00 75.00, 350.00" style="stroke:black; fill:none" />
<polyline points="75.00, 375.00 50.00, 350.00" style="stroke:black; fill:none" />
<polyline points="50.00, 350.00 50.00, 325.00 75.00, 325.00 75.00, 350.00 50.00, 350.00" style="stroke:black; fill:none" />
<polyline points="50.00, 350.00 75.00, 325.00" style="stroke:black; fill:none" />
<polyline points="75.00, 350.00 50.00, 325.00" style="stroke:black; fill:none" />
<polyline points="50.00, 325.00 50.00, 300.00 75.00, 300.00 75.00, 325.00 50.00, 325.00" style="stroke:black; fill:none" />
<polyline points="50.00, 325.00 75.00, 300.00" style="stroke:black; fill:none" />
<polyline points="75.00, 325.00 50.00, 300.00" style="stroke:black; fill:none" />
<polyline points="50.00, 300.00 50.00, 275.00 75.00, 275.00 75.00, 300.00 50.00, 300.00" style="stroke:black; fill:none" />
<polyline points="50.00, 300.00 75.00, 275.00" style="stroke:black; fill:none" />
<polyline points="75.00, 300.00 50.00, 275.00" style="stroke:black; fill:none" />
<polyline points="50.00, 275.00 50.00, 250.00 75.00, 250.00 75.00, 275.00 50.00, 275.00" style="stroke:black; fill:none" />
<polyline points="50.00, 275.00 75.00, 250.00" style="stroke:black; fill:none" />
<polyline points="75.00, 275.00 50.00, 250.00" style="stroke:black; fill:none" />
<polyline points="50.00, 250.00 50.00, 225.00 75.00, 225.00 75.00, 250.00 50.00, 250.00" style="stroke:black; fill:none" />
<polyline points="50.00, 250.00 75.00, 225.00" style="stroke:black; fill:none" />
<polyline points="75.00, 250.00 50.00, 225.00" style="stroke:black; fill:none" />
<polyline points="50.00, 225.00 50.00, 200.00 75.00, 200.00 75.00, 225.00 50.00, 225.00" style="stroke:black; fill:none" />
<polyline points="50.00, 225.00 75.00, 200.00" style="stroke:black; fill:none" />
<polyline points="75.00, 225.00 50.00, 200.00" style="stroke:black; fill:none" />
<polyline points="50.00, 200.00 50.00, 175.00 75.00, 175.00 75.00, 200.00 50.00, 200.00" style="stroke:black; fill:none" />
<polyline points="50.00, 200.00 75.00, 175.00" style="stroke:black; fill:none" />
<polyline points="75.00, 200.00 50.00, 175.00" style="stroke:black; fill:none" />
<polyline points="50.00, 175.00 50.00, 150.00 75.00, 150.00 75.00, 175.00 50.00, 175.00" style="stroke:black; fill:none" />
<polyline points="50.00, 175.00 75.00, 150.00" style="stroke:black; fill:none" />
<polyline points="75.00, 175.00 50.00, 150.00" style="stroke:black; fill:none" />
<polyline points="50.00, 150.00 50.00, 125.00 75.00, 125.00 75.00, 150.00 50.00, 150.00" style="stroke:black; fill:none" />
<polyline points="50.00, 150.00 75.00, 125.00" style="stroke:black; fill:none" />
<polyline points="75.00, 150.00 50.00, 125.00" style="stroke:black; fill:none" />
<polyline points="50.00, 125.00 50.00, 100.00 75.00, 100.00 75.00, 125.00 50.00, 125.00" style="stroke:black; fill:none" />
<polyline points="50.00, 125.00 75.00, 100.00" style="stroke:black; fill:none" />
<polyline points="75.00, 125.00 50.00, 100.00" style="stroke:black; fill:none" />
<polyline points="75.00, 500.00 75.00, 475.00 100.00, 475.00 100.00, 500.00 75.00, 500.00" style="stroke:black; fill:none" />
<polyline points="75.00, 500.00 100.00, 475.00" style="stroke:black; fill:none" />
<polyline points="100.00, 500.00 75.00, 475.00" style="stroke:black; fill:none" />
<polyline points="75.00, 475.00 75.00, 450.00 100.00, 450.00 100.00, 475.00 75.00, 475.00" style="stroke:black; fill:none" />
<polyline points="75.00, 475.00 100.00, 450.00" style="stroke:black; fill:none" />
<polyline points="100.00, 475.00 75.00, 450.00" style="stroke:black; fill:none" />
<polyline points="75.00, 450.00 75.00, 425.00 100.00, 425.00 100.00, 450.00 75.00, 450.00" style="stroke:black; fill:none" />
<polyline points="75.00, 450.00 100.00, 425.00" style="stroke:black; fill:none" />
<polyline points="100.00, 450.00 75.00, 425.00" style="stroke:black; fill:none" />
<polyline points="75.00, 425.00 75.00, 400.00 100.00, 400.00 100.00, 425.00 75.00, 425.00" style="stroke:black; fill:none" />
<polyline points="75.00, 425.00 100.00, 400.00" style="stroke:black; fill:none" />
<polyline points="100.00, 425.00 75.00, 400.00" style="stroke:black; fill:none" />
<polyline points="75.00, 400.00 75.00, 375.00 100.00, 375.00 100.00, 400.00 75.00, 400.00" style="stroke:black; fill:none" />
<polyline points="75.00, 400.00 100.00, 375.00" style="stroke:black; fill:none" />
<polyline points="100.00, 400.00 75.00, 375.00" style="stroke:black; fill:none" />
<polyline points="75.00, 375.00 75.00, 350.00 100.00, 350.00 100.00, 375.00 75.00, 375.00" style="stroke:black; fill:none" />
<polyline points="75.00, 375.00 100.00, 350.00" style="stroke:black; fill:none" />
<polyline points="100.00, 375.00 75.00, 350.00" style="stroke:black; fill:none" />
<polyline points="75.00, 350.00 75.00, 325.00 100.00, 325.00 100.00, 350.00 75.00, 350.00" style="stroke:black; fill:none" />
<polyline points="75.00, 350.00 100.00, 325.00" style="stroke:black; fill:none" />
<polyline points="100.00, 350.00 75.00, 325.00" style="stroke:black; fill:none" />
<polyline points="75.00, 325.00 75.00, 300.00 100.00, 300.00 100.00, 325.00 75.00, 325.00" style="stroke:black; fill:none" />
<polyline points="75.00, 325.00 100.00, 300.00" style="stroke:black; fill:none" />
<polyline points="100.00, 325.00 75.00, 300.00" style="stroke:black; fill:none" />
<polyline points="75.00, 300.00 75.00, 275.00 100.00, 275.00 100.00, 300.00 75.00, 300.00" style="stroke:black; fill:none" />
<polyline points="75.00, 300.00 100.00, 275.00" style="stroke:black; fill:none" />
<polyline points="100.00, 300.00 75.00, 275.00" style="stroke:black; fill:none" />
<polyline points="75.00, 275.00 75.00, 250.00 100.00, 250.00 100.00, 275.00 75.00, 275.00" style="stroke:black; fill:none" />
<polyline points="75.00, 275.00 100.00, 250.00" style="stroke:black; fill:none" />
<polyline points="100.00, 275.00 75.00, 250.00" style="stroke:black; fill:none" />
<polyline points="75.00, 250.00 75.00, 225.00 100.00, 225.00 100.00, 250.00 75.00, 250.00" style="stroke:black; fill:none" />
<polyline points="75.00, 250.00 100.00, 225.00" style="stroke:black; fill:none" />
<polyline points="100.00, 250.00 75.00, 225.00" style="stroke:black; fill:none" />
<polyline points="75.00, 225.00 75.00, 200.00 100.00, 200.00 100.00, 225.00 75.00, 225.00" style="stroke:black; fill:none" />
<polyline points="75.00, 225.00 100.00, 200.00" style="stroke:black; fill:none" />
<polyline points="100.00, 225.00 75.00, 200.00" style="stroke:black; fill:none" />
<polyline points="75.00, 200.00 75.00, 175.00 100.00, 175.00 100.00, 200.00 75.00, 200.00" style="stroke:black; fill:none" />
<polyline points="75.00, 200.00 100.00, 175.00" style="stroke:black; fill:none" />
<polyline points="100.00, 200.00 75.00, 175.00" style="stroke:black; fill:none" />
<polyline points="75.00, 175.00 75.00, 150.00 100.00, 150.00 100.00, 175.00 75.00, 175.00" style="stroke:black; fill:none" />
<polyline points="75.00, 175.00 100.00, 150.00" style="stroke:black; fill:none" />
<polyline points="100.00, 175.00 75.00, 150.00" style="stroke:black; fill:none" />
<polyline points="75.00, 150.00 75.00, 125.00 100.00, 125.00 100.00, 150.00 75.00, 150.00" style="stroke:black; fill:none" />
<polyline points="75.00, 150.00 100.00, 125.00" style="stroke:black; fill:none" />
<polyline points="100.00, 150.00 75.00, 125.00" style="stroke:black; fill:none" />
<polyline points="75.00, 125.00 75.00, 100.00 100.00, 100.00 100.00, 125.00 75.00, 125.00" style="stroke:black; fill:none" />
<polyline points="75.00, 125.00 100.00, 100.00" style="stroke:black; fill:none" />
<polyline points="100.00, 125.00 75.00, 100.00" style="stroke:black; fill:none" />
<polyline points="100.00, 500.00 100.00, 475.00 125.00, 475.00 125.00, 500.00 100.00, 500.00" style="stroke:black; fill:none" />
<polyline points="100.00, 500.00 125.00, 475.00" style="stroke:black; fill:none" />
<polyline points="125.00, 500.00 100.00, 475.00" style="stroke:black; fill:none" />
<polyline points="100.00, 475.00 100.00, 450.00 125.00, 450.00 125.00, 475.00 100.00, 475.00" style="stroke:black; fill:none" />
<polyline points="100.00, 475.00 125.00, 450.00" style="stroke:black; fill:none" />
<polyline points="125.00, 475.00 100.00, 450.00" style="stroke:black; fill:none" />
<polyline points="100.00, 450.00 100.00, 425.00 125.00, 425.00 125.00, 450.00 100.00, 450.00" style="stroke:black; fill:none" />
<polyline points="100.00, 450.00 125.00, 425.00" style="stroke:black; fill:none" />
<polyline points="125.00, 450.00 100.00, 425.00" style="stroke:black; fill:none" />
<polyline points="100.00, 425.00 100.00, 400.00 125.00, 400.00 125.00, 425.00 100.00, 425.00" style="stroke:black; fill:none" />
<polyline points="100.00, 425.00 125.00, 400.00" style="stroke:black; fill:none" />
<polyline points="125.00, 425.00 100.00, 400.00" style="stroke:black; fill:none" />
<polyline points="100.00, 400.00 100.00, 375.00 125.00, 375.00 125.00, 400.00 100.00, 400.00" style="stroke:black; fill:none" />
<polyline points="100.00, 400.00 125.00, 375.00" style="stroke:black; fill:none" />
<polyline points="125.00, 400.00 100.00, 375.00" style="stroke:black; fill:none" />
<polyline points="100.00, 375.00 100.00, 350.00 125.00, 350.00 125.00, 375.00 100.00, 375.00" style="stroke:black; fill:none" />
<polyline points="100.00, 375.00 125.00, 350.00" style="stroke:black; fill:none" />
<polyline points="125.00, 375.00 100.00, 350.00" style="stroke:black; fill:none" />
<polyline points="100.00, 350.00 100.00, 325.00 125.00, 325.00 125.00, 350.00 100.00, 350.00" style="stroke:black; fill:none" />
<polyline points="100.00, 350.00 125.00, 325.00" style="stroke:black; fill:none" />
<polyline points="125.00, 350.00 100.00, 325.00" style="stroke:black; fill:none" />
<polyline points="100.00, 325.00 100.00, 300.00 125.00, 300.00 125.00, 325.00 100.00, 325.00" style="stroke:black; fill:none" />
<polyline points="100.00, 325.00 125.00, 300.00" style="stroke:black; fill:none" />
<polyline points="125.00, 325.00 100.00, 300.00" style="stroke:black; fill:none" />
<polyline points="100.00, 300.00 100.00, 275.00 125.00, 275.00 125.00, 300.00 100.00, 300.00" style="stroke:black; fill:none" />
<polyline points="100.00, 300.00 125.00, 275.00" style="stroke:black; fill:none" />
<polyline points="125.00, 300.00 100.00, 275.00" style="stroke:black; fill:none" />
<polyline points="100.00, 275.00 100.00, 250.00 125.00, 250.00 125.00, 275.00 100.00, 275.00" style="stroke:black; fill:none" />
<polyline points="100.00, 275.00 125.00, 250.00" style="stroke:black; fill:none" />
<polyline points="125.00, 275.00 100.00, 250.00" style="stroke:black; fill:none" />
<polyline points="100.00, 250.00 100.00, 225.00 125.00, 225.00 125.00, 250.00 100.00, 250.00" style="stroke:black; fill:none" />
<polyline points="100.00, 250.00 125.00, 225.00" style="stroke:black; fill:none" />
<polyline points="125.00, 250.00 100.00, 225.00" style="stroke:black; fill:none" />
<polyline points="100.00, 225.00 100.00, 200.00 125.00, 200.00 125.00, 225.00 100.00, 225.00" style="stroke:black; fill:none" />
<polyline points="100.00, 225.00 125.00, 200.00" style="stroke:black; fill:none" />
<polyline points="125.00, 225.00 100.00, 200.00" style="stroke:black; fill:none" />
<polyline points="100.00, 200.00 100.00, 175.00 125.00, 175.00 125.00, 200.00 100.00, 200.00" style="stroke:black; fill:none" />
<polyline points="100.00, 200.00 125.00, 175.00" style="stroke:black; fill:none" />
<polyline points="125.00, 200.00 100.00, 175.00" style="stroke:black; fill:none" />
<polyline points="100.00, 175.00 100.00, 150.00 125.00, 150.00 125.00, 175.00 100.00, 175.00" style="stroke:black; fill:none" />
<polyline points="100.00, 175.00 125.00, 150.00" style="stroke:black; fill:none" />
<polyline points="125.00, 175.00 100.00, 150.00" style="stroke:black; fill:none" />
<polyline points="100.00, 150.00 100.00, 125.00 125.00, 125.00 125.00, 150.00 100.00, 150.00" style="stroke:black; fill:none" />
<polyline points="100.00, 150.00 125.00, 125.00" style="stroke:black; fill:none" />
<polyline points="125.00, 150.00 100.00, 125.00" style="stroke:black; fill:none" />
<polyline points="100.00, 125.00 100.00, 100.00 125.00, 100.00 125.00, 125.00 100.00, 125.00" style="stroke:black; fill:none" />
<polyline points="100.00, 125.00 125.00, 100.00" style="stroke:black; fill:none" />
<polyline points="125.00, 125.00 100.00, 100.00" style="stroke:black; fill:none" />
<polyline points="125.00, 500.00 125.00, 475.00 150.00, 475.00 150.00, 500.00 125.00, 500.00" style="stroke:black; fill:none" />
<polyline points="125.00, 500.00 150.00, 475.00" style="stroke:black; fill:none" />
<polyline points="150.00, 500.00 125.00, 475.00" style="stroke:black; fill:none" />
<polyline points="125.00, 475.00 125.00, 450.00 150.00, 450.00 150.00, 475.00 125.00, 475.00" style="stroke:black; fill:none" />
<polyline points="125.00, 475.00 150.00, 450.00" style="stroke:black; fill:none" />
<polyline points="150.00, 475.00 125.00, 450.00" style="stroke:black; fill:none" />
<polyline points="125.00, 450.00 125.00, 425.00 150.00, 425.00 150.00, 450.00 125.00, 450.00" style="stroke:black; fill:none" />
<polyline points="125.00, 450.00 150.00, 425.00" style="stroke:black; fill:none" />
<polyline points="150.00, 450.00 125.00, 425.00" style="stroke:black; fill:none" />
<polyline points="125.00, 425.00 125.00, 400.00 150.00, 400.00 150.00, 425.00 125.00, 425.00" style="stroke:black; fill:none" />
<polyline points="125.00, 425.00 150.00, 400.00" style="stroke:black; fill:none" />
<polyline points="150.00, 425.00 125.00, 400.00" style="stroke:black; fill:none" />
<polyline points="125.00, 400.00 125.00, 375.00 150.00, 375.00 150.00, 400.00 125.00, 400.00" style="stroke:black; fill:none" />
<polyline points="125.00, 400.00 150.00, 375.00" style="stroke:black; fill:none" />
<polyline points="150.00, 400.00 125.00, 375.00" style="stroke:black; fill:none" />
<polyline points="125.00, 375.00 125.00, 350.00 150.00, 350.00 150.00, 375.00 125.00, 375.00" style="stroke:black; fill:none" />
<polyline points="125.00, 375.00 150.00, 350.00" style="stroke:black; fill:none" />
<polyline points="150.00, 375.00 125.00, 350.00" style="stroke:black; fill:none" />
<polyline points="125.00, 350.00 125.00, 325.00 150.00, 325.00 150.00, 350.00 125.00, 350.00" style="stroke:black; fill:none" />
<polyline points="125.00, 350.00 150.00, 325.00" style="stroke:black; fill:none" />
<polyline points="150.00, 350.00 125.00, 325.00" style="stroke:black; fill:none" />
<polyline points="125.00, 325.00 125.00, 300.00 150.00, 300.00 150.00, 325.00 125.00, 325.00" style="stroke:black; fill:none" />
<polyline points="125.00, 325.00 150.00, 300.00" style="stroke:black; fill:none" />
<polyline points="150.00, 325.00 125.00, 300.00" style="stroke:black; fill:none" />
<polyline points="125.00, 300.00 125.00, 275.00 150.00, 275.00 150.00, 300.00 125.00, 300.00" style="stroke:black; fill:none" />
<polyline points="125.00, 300.00 150.00, 275.00" style="stroke:black; fill:none" />
<polyline points="150.00, 300.00 125.00, 275.00" style="stroke:black; fill:none" />
<polyline points="125.00, 275.00 125.00, 250.00 150.00, 250.00 150.00, 275.00 125.00, 275.00" style="stroke:black; fill:none" />
<polyline points="125.00, 275.00 150.00, 250.00" style="stroke:black; fill:none" />
<polyline points="150.00, 275.00 125.00, 250.00" style="stroke:black; fill:none" />
<polyline points="125.00, 250.00 125.00, 225.00 150.00, 225.00 150.00, 250.00 125.00, 250.00" style="stroke:black; fill:none" />
<polyline points="125.00, 250.00 150.00, 225.00" style="stroke:black; fill:none" />
<polyline points="150.00, 250.00 125.00, 225.00" style="stroke:black; fill:none" />
<polyline points="125.00, 225.00 125.00, 200.00 150.00, 200.00 150.00, 225.00 125.00, 225.00" style="stroke:black; fill:none" />
<polyline points="125.00, 225.00 150.00, 200.00" style="stroke:black; fill:none" />
<polyline points="150.00, 225.00 125.00, 200.00" style="stroke:black; fill:none" />
<polyline points="125.00, 200.00 125.00, 175.00 150.00, 175.00 150.00, 200.00 125.00, 200.00" style="stroke:black; fill:none" />
<polyline points="125.00, 200.00 150.00, 175.00" style="stroke:black; fill:none" />
<polyline points="150.00, 200.00 125.00, 175.00" style="stroke:black; fill:none" />
<polyline points="125.00, 175.00 125.00, 150.00 150.00, 150.00 150.00, 175.00 125.00, 175.00" style="stroke:black; fill:none" />
<polyline points="125.00, 175.00 150.00, 150.00" style="stroke:black; fill:none" />
<polyline points="150.00, 175.00 125.00, 150.00" style="stroke:black; fill:none" />
<polyline points="125.00, 150.00 125.00, 125.00 150.00, 125.00 150.00, 150.00 125.00, 150.00" style="stroke:black; fill:none" />
<polyline points="125.00, 150.00 150.00, 125.00" style="stroke:black; fill:none" />
<polyline points="150.00, 150.00 125.00, 125.00" style="stroke:black; fill:none" />
<polyline points="125.00, 125.00 125.00, 100.00 150.00, 100.00 150.00, 125.00 125.00, 125.00" style="stroke:black; fill:none" />
<polyline points="125.00, 125.00 150.00, 100.00" style="stroke:black; fill:none" />
<polyline points="150.00, 125.00 125.00, 100.00" style="stroke:black; fill:none" />
<polyline points="150.00, 500.00 150.00, 475.00 175.00, 475.00 175.00, 500.00 150.00, 500.00" style="stroke:black; fill:none" />
<polyline points="150.00, 500.00 175.00, 475.00" style="stroke:black; fill:none" />
<polyline points="175.00, 500.00 150.00, 475.00" style="stroke:black; fill:none" />
<polyline points="150.00, 475.00 150.00, 450.00 175.00, 450.00 175.00, 475.00 150.00, 475.00" style="stroke:black; fill:none" />
<polyline points="150.00, 475.00 175.00, 450.00" style="stroke:black; fill:none" />
<polyline points="175.00, 475.00 150.00, 450.00" style="stroke:black; fill:none" />
<polyline points="150.00, 450.00 150.00, 425.00 175.00, 425.00 175.00, 450.00 150.00, 450.00" style="stroke:black; fill:none" />
<polyline points="150.00, 450.00 175.00, 425.00" style="stroke:black; fill:none" />
<polyline points="175.00, 450.00 150.00, 425.00" style="stroke:black; fill:none" />
<polyline points="150.00, 425.00 150.00, 400.00 175.00, 400.00 175.00, 425.00 150.00, 425.00" style="stroke:black; fill:none" />
<polyline points="150.00, 425.00 175.00, 400.00" style="stroke:black; fill:none" />
<polyline points="175.00, 425.00 150.00, 400.00" style="stroke:black; fill:none" />
<polyline points="150.00, 400.00 150.00, 375.00 175.00, 375.00 175.00, 400.00 150.00, 400.00" style="stroke:black; fill:none" />
<polyline points="150.00, 400.00 175.00, 375.00" style="stroke:black; fill:none" />
<polyline points="175.00, 400.00 150.00, 375.00" style="stroke:black; fill:none" />
<polyline points="150.00, 375.00 150.00, 350.00 175.00, 350.00 175.00, 375.00 150.00, 375.00" style="stroke:black; fill:none" />
<polyline points="150.00, 375.00 175.00, 350.00" style="stroke:black; fill:none" />
<polyline points="175.00, 375.00 150.00, 350.00" style="stroke:black; fill:none" />
<polyline points="150.00, 350.00 150.00, 325.00 175.00, 325.00 175.00, 350.00 150.00, 350.00" style="stroke:black; fill:none" />
<polyline points="150.00, 350.00 175.00, 325.00" style="stroke:black; fill:none" />
<polyline points="175.00, 350.00 150.00, 325.00" style="stroke:black; fill:none" />
<polyline points="150.00, 325.00 150.00, 300.00 175.00, 300.00 175.00, 325.00 150.00, 325.00" style="stroke:black; fill:none" />
<polyline points="150.00, 325.00 175.00, 300.00" style="stroke:black; fill:none" />
<polyline points="175.00, 325.00 150.00, 300.00" style="stroke:black; fill:none" />
<polyline points="150.00, 300.00 150.00, 275.00 175.00, 275.00 175.00, 300.00 150.00, 300.00" style="stroke:black; fill:none" />
<polyline points="150.00, 300.00 175.00, 275.00" style="stroke:black; fill:none" />
<polyline points="175.00, 300.00 150.00, 275.00" style="stroke:black; fill:none" />
<polyline points="150.00, 275.00 150.00, 250.00 175.00, 250.00 175.00, 275.00 150.00, 275.00" style="stroke:black; fill:none" />
<polyline points="150.00, 275.00 175.00, 250.00" style="stroke:black; fill:none" />
<polyline points="175.00, 275.00 150.00, 250.00" style="stroke:black; fill:none" />
<polyline points="150.00, 250.00 150.00, 225.00 175.00, 225.00 175.00, 250.00 150.00, 250.00" style="stroke:black; fill:none" />
<polyline points="150.00, 250.00 175.00, 225.00" style="stroke:black; fill:none" />
<polyline points="175.00, 250.00 150.00, 225.00" style="stroke:black; fill:none" />
<polyline points="150.00, 225.00 150.00, 200.00 175.00, 200.00 175.00, 225.00 150.00, 225.00" style="stroke:black; fill:none" />
<polyline points="150.00, 225.00 175.00, 200.00" style="stroke:black; fill:none" />
<polyline points="175.00, 225.00 150.00, 200.00" style="stroke:black; fill:none" />
<polyline points="150.00, 200.00 150.00, 175.00 175.00, 175.00 175.00, 200.00 150.00, 200.00" style="stroke:black; fill:none" />
<polyline points="150.00, 200.00 175.00, 175.00" style="stroke:black; fill:none" />
<polyline points="175.00, 200.00 150.00, 175.00" style="stroke:black; fill:none" />
<polyline points="150.00, 175.00 150.00, 150.00 175.00, 150.00 175.00, 175.00 150.00, 175.00" style="stroke:black; fill:none" />
<polyline points="150.00, 175.00 175.00, 150.00" style="stroke:black; fill:none" />
<polyline points="175.00, 175.00 150.00, 150.00" style="stroke:black; fill:none" />
<polyline points="150.00, 150.00 150.00, 125.00 175.00, 125.00 175.00, 150.00 150.00, 150.00" style="stroke:black; fill:none" />
<polyline points="150.00, 150.00 175.00, 125.00" style="stroke:black; fill:none" />
<polyline points="175.00, 150.00 150.00, 125.00" style="stroke:black; fill:none" />
<polyline points="150.00, 125.00 150.00, 100.00 175.00, 100.00 175.00, 125.00 150.00, 125.00" style="stroke:black; fill:none" />
<polyline points="150.00, 125.00 175.00, 100.00" style="stroke:black; fill:none" />
<polyline points="175.00, 125.00 150.00, 100.00" style="stroke:black; fill:none" />
<polyline points="175.00, 500.00 175.00, 475.00 200.00, 475.00 200.00, 500.00 175.00, 500.00" style="stroke:black; fill:none" />
<polyline points="175.00, 500.00 200.00, 475.00" style="stroke:black; fill:none" />
<polyline points="200.00, 500.00 175.00, 475.00" style="stroke:black; fill:none" />
<polyline points="175.00, 475.00 175.00, 450.00 200.00, 450.00 200.00, 475.00 175.00, 475.00" style="stroke:black; fill:none" />
<polyline points="175.00, 475.00 200.00, 450.00" style="stroke:black; fill:none" />
<polyline points="200.00, 475.00 175.00, 450.00" style="stroke:black; fill:none" />
<polyline points="175.00, 450.00 175.00, 425.00 200.00, 425.00 200.00, 450.00 175.00, 450.00" style="stroke:black; fill:none" />
<polyline points="175.00, 450.00 200.00, 425.00" style="stroke:black; fill:none" />
<polyline points="200.00, 450.00 175.00, 425.00" style="stroke:black; fill:none" />
<polyline points="175.00, 425.00 175.00, 400.00 200.00, 400.00 200.00, 425.00 175.00, 425.00" style="stroke:black; fill:none" />
<polyline points="175.00, 425.00 200.00, 400.00" style="stroke:black; fill:none" />
<polyline points="200.00, 425.00 175.00, 400.00" style="stroke:black; fill:none" />
<polyline points="175.00, 400.00 175.00, 375.00 200.00, 375.00 200.00, 400.00 175.00, 400.00" style="stroke:black; fill:none" />
<polyline points="175.00, 400.00 200.00, 375.00" style="stroke:black; fill:none" />
<polyline points="200.00, 400.00 175.00, 375.00" style="stroke:black; fill:none" />
<polyline points="175.00, 375.00 175.00, 350.00 200.00, 350.00 200.00, 375.00 175.00, 375.00" style="stroke:black; fill:none" />
<polyline points="175.00, 375.00 200.00, 350.00" style="stroke:black; fill:none" />
<polyline points="200.00, 375.00 175.00, 350.00" style="stroke:black; fill:none" />
<polyline points="175.00, 350.00 175.00, 325.00 200.00, 325.00 200.00, 350.00 175.00, 350.00" style="stroke:black; fill:none" />
<polyline points="175.00, 350.00 200.00, 325.00" style="stroke:black; fill:none" />
<polyline points="200.00, 350.00 175.00, 325.00" style="stroke:black; fill:none" />
<polyline points="175.00, 325.00 175.00, 300.00 200.00, 300.00 200.00, 325.00 175.00, 325.00" style="stroke:black; fill:none" />
<polyline points="175.00, 325.00 200.00, 300.00" style="stroke:black; fill:none" />
<polyline points="200.00, 325.00 175.00, 300.00" style="stroke:black; fill:none" />
<polyline points="175.00, 300.00 175.00, 275.00 200.00, 275.00 200.00, 300.00 175.00, 300.00" style="stroke:black; fill:none" />
<polyline points="175.00, 300.00 200.00, 275.00" style="stroke:black; fill:none" />
<polyline points="200.00, 300.00 175.00, 275.00" style="stroke:black; fill:none" />
<polyline points="175.00, 275.00 175.00, 250.00 200.00, 250.00 200.00, 275.00 175.00, 275.00" style="stroke:black; fill:none" />
<polyline points="175.00, 275.00 200.00, 250.00" style="stroke:black; fill:none" />
<polyline points="200.00, 275.00 175.00, 250.00" style="stroke:black; fill:none" />
<polyline points="175.00, 250.00 175.00, 225.00 200.00, 225.00 200.00, 250.00 175.00, 250.00" style="stroke:black; fill:none" />
<polyline points="175.00, 250.00 200.00, 225.00" style="stroke:black; fill:none" />
<polyline points="200.00, 250.00 175.00, 225.00" style="stroke:black; fill:none" />
<polyline points="175.00, 225.00 175.00, 200.00 200.00, 200.00 200.00, 225.00 175.00, 225.00" style="stroke:black; fill:none" />
<polyline points="175.00, 225.00 200.00, 200.00" style="stroke:black; fill:none" />
<polyline points="200.00, 225.00 175.00, 200.00" style="stroke:black; fill:none" />
<polyline points="175.00, 200.00 175.00, 175.00 200.00, 175.00 200.00, 200.00 175.00, 200.00" style="stroke:black; fill:none" />
<polyline points="175.00, 200.00 200.00, 175.00" style="stroke:black; fill:none" />
<polyline points="200.00, 200.00 175.00, 175.00" style="stroke:black; fill:none" />
<polyline points="175.00, 175.00 175.00, 150.00 200.00, 150.00 200.00, 175.00 175.00, 175.00" style="stroke:black; fill:none" />
<polyline points="175.00, 175.00 200.00, 150.00" style="stroke:black; fill:none" />
<polyline points="200.00, 175.00 175.00, 150.00" style="stroke:black; fill:none" />
<polyline points="175.00, 150.00 175.00, 125.00 200.00, 125.00 200.00, 150.00 175.00, 150.00" style="stroke:black; fill:none" />
<polyline points="175.00, 150.00 200.00, 125.00" style="stroke:black; fill:none" />
<polyline points="200.00, 150.00 175.00, 125.00" style="stroke:black; fill:none" />
<polyline points="175.00, 125.00 175.00, 100.00 200.00, 100.00 200.00, 125.00 175.00, 125.00" style="stroke:black; fill:none" />
<polyline points="175.00, 125.00 200.00, 100.00" style="stroke:black; fill:none" />
<polyline points="200.00, 125.00 175.00, 100.00" style="stroke:black; fill:none" />
<polyline points="200.00, 500.00 200.00, 475.00 225.00, 475.00 225.00, 500.00 200.00, 500.00" style="stroke:black; fill:none" />
<polyline points="200.00, 500.00 225.00, 475.00" style="stroke:black; fill:none" />
<polyline points="225.00, 500.00 200.00, 475.00" style="stroke:black; fill:none" />
<polyline points="200.00, 475.00 200.00, 450.00 225.00, 450.00 225.00, 475.00 200.00, 475.00" style="stroke:black; fill:none" />
<polyline points="200.00, 475.00 225.00, 450.00" style="stroke:black; fill:none" />
<polyline points="225.00, 475.00 200.00, 450.00" style="stroke:black; fill:none" />
<polyline points="200.00, 450.00 200.00, 425.00 225.00, 425.00 225.00, 450.00 200.00, 450.00" style="stroke:black; fill:none" />
<polyline points="200.00, 450.00 225.00, 425.00" style="stroke:black; fill:none" />
<polyline points="225.00, 450.00 200.00, 425.00" style="stroke:black; fill:none" />
<polyline points="200.00, 425.00 200.00, 400.00 225.00, 400.00 225.00, 425.00 200.00, 425.00" style="stroke:black; fill:none" />
<polyline points="200.00, 425.00 225.00, 400.00" style="stroke:black; fill:none" />
<polyline points="225.00, 425.00 200.00, 400.00" style="stroke:black; fill:none" />
<polyline points="200.00, 400.00 200.00, 375.00 225.00, 375.00 225.00, 400.00 200.00, 400.00" style="stroke:black; fill:none" />
<polyline points="200.00, 400.00 225.00, 375.00" style="stroke:black; fill:none" />
<polyline points="225.00, 400.00 200.00, 375.00" style="stroke:black; fill:none" />
<polyline points="200.00, 375.00 200.00, 350.00 225.00, 350.00 225.00, 375.00 200.00, 375.00" style="stroke:black; fill:none" />
<polyline points="200.00, 375.00 225.00, 350.00" style="stroke:black; fill:none" />
<polyline points="225.00, 375.00 200.00, 350.00" style="stroke:black; fill:none" />
<polyline points="200.00, 350.00 200.00, 325.00 225.00, 325.00 225.00, 350.00 200.00, 350.00" style="stroke:black; fill:none" />
<polyline points="200.00, 350.00 225.00, 325.00" style="stroke:black; fill:none" />
<polyline points="225.00, 350.00 200.00, 325.00" style="stroke:black; fill:none" />
<polyline points="200.00, 325.00 200.00, 300.00 225.00, 300.00 225.00, 325.00 200.00, 325.00" style="stroke:black; fill:none" />
<polyline points="200.00, 325.00 225.00, 300.00" style="stroke:black; fill:none" />
<polyline points="225.00, 325.00 200.00, 300.00" style="stroke:black; fill:none" />
<polyline points="200.00, 300.00 200.00, 275.00 225.00, 275.00 225.00, 300.00 200.00, 300.00" style="stroke:black; fill:none" />
<polyline points="200.00, 300.00 225.00, 275.00" style="stroke:black; fill:none" />
<polyline points="225.00, 300.00 200.00, 275.00" style="stroke:black; fill:none" />
<polyline points="200.00, 275.00 200.00, 250.00 225.00, 250.00 225.00, 275.00 200.00, 275.00" style="stroke:black; fill:none" />
<polyline points="200.00, 275.00 225.00, 250.00" style="stroke:black; fill:none" />
<polyline points="225.00, 275.00 200.00, 250.00" style="stroke:black; fill:none" />
<polyline points="200.00, 250.00 200.00, 225.00 225.00, 225.00 225.00, 250.00 200.00, 250.00" style="stroke:black; fill:none" />
<polyline points="200.00, 250.00 225.00, 225.00" style="stroke:black; fill:none" />
<polyline points="225.00, 250.00 200.00, 225.00" style="stroke:black; fill:none" />
<polyline points="200.00, 225.00 200.00, 200.00 225.00, 200.00 225.00, 225.00 200.00, 225.00" style="stroke:black; fill:none" />
<polyline points="200.00, 225.00 225.00, 200.00" style="stroke:black; fill:none" />
<polyline points="225.00, 225.00 200.00, 200.00" style="stroke:black; fill:none" />
<polyline points="200.00, 200.00 200.00, 175.00 225.00, 175.00 225.00, 200.00 200.00, 200.00" style="stroke:black; fill:none" />
<polyline points="200.00, 200.00 225.00, 175.00" style="stroke:black; fill:none" />
<polyline points="225.00, 200.00 200.00, 175.00" style="stroke:black; fill:none" />
<polyline points="200.00, 175.00 200.00, 150.00 225.00, 150.00 225.00, 175.00 200.00, 175.00" style="stroke:black; fill:none" />
<polyline points="200.00, 175.00 225.00, 150.00" style="stroke:black; fill:none" />
<polyline points="225.00, 175.00 200.00, 150.00" style="stroke:black; fill:none" />
<polyline points="200.00, 150.00 200.00, 125.00 225.00, 125.00 225.00, 150.00 200.00, 150.00" style="stroke:black; fill:none" />
<polyline points="200.00, 150.00 225.00, 125.00" style="stroke:black; fill:none" />
<polyline points="225.00, 150.00 200.00, 125.00" style="stroke:black; fill:none" />
<polyline points="200.00, 125.00 200.00, 100.00 225.00, 100.00 225.00, 125.00 200.00, 125.00" style="stroke:black; fill:none" />
<polyline points="200.00, 125.00 225.00, 100.00" style="stroke:black; fill:none" />
<polyline points="225.00, 125.00 200.00, 100.00" style="stroke:black; fill:none" />
<polyline points="225.00, 500.00 225.00, 475.00 250.00, 475.00 250.00, 500.00 225.00, 500.00" style="stroke:black; fill:none" />
<polyline points="225.00, 500.00 250.00, 475.00" style="stroke:black; fill:none" />
<polyline points="250.00, 500.00 225.00, 475.00" style="stroke:black; fill:none" />
<polyline points="225.00, 475.00 225.00, 450.00 250.00, 450.00 250.00, 475.00 225.00, 475.00" style="stroke:black; fill:none" />
<polyline points="225.00, 475.00 250.00, 450.00" style="stroke:black; fill:none" />
<polyline points="250.00, 475.00 225.00, 450.00" style="stroke:black; fill:none" />
<polyline points="225.00, 450.00 225.00, 425.00 250.00, 425.00 250.00, 450.00 225.00, 450.00" style="stroke:black; fill:none" />
<polyline points="225.00, 450.00 250.00, 425.00" style="stroke:black; fill:none" />
<polyline points="250.00, 450.00 225.00, 425.00" style="stroke:black; fill:none" />
<polyline points="225.00, 425.00 225.00, 400.00 250.00, 400.00 250.00, 425.00 225.00, 425.00" style="stroke:black; fill:none" />
<polyline points="225.00, 425.00 250.00, 400.00" style="stroke:black; fill:none" />
<polyline points="250.00, 425.00 225.00, 400.00" style="stroke:black; fill:none" />
<polyline points="225.00, 400.00 225.00, 375.00 250.00, 375.00 250.00, 400.00 225.00, 400.00" style="stroke:black; fill:none" />
<polyline points="225.00, 400.00 250.00, 375.00" style="stroke:black; fill:none" />
<polyline points="250.00, 400.00 225.00, 375.00" style="stroke:black; fill:none" />
<polyline points="225.00, 375.00 225.00, 350.00 250.00, 350.00 250.00, 375.00 225.00, 375.00" style="stroke:black; fill:none" />
<polyline points="225.00, 375.00 250.00, 350.00" style="stroke:black; fill:none" />
<polyline points="250.00, 375.00 225.00, 350.00" style="stroke:black; fill:none" />
<polyline points="225.00, 350.00 225.00, 325.00 250.00, 325.00 250.00, 350.00 225.00, 350.00" style="stroke:black; fill:none" />
<polyline points="225.00, 350.00 250.00, 325.00" style="stroke:black; fill:none" />
<polyline points="250.00, 350.00 225.00, 325.00" style="stroke:black; fill:none" />
<polyline points="225.00, 325.00 225.00, 300.00 250.00, 300.00 250.00, 325.00 225.00, 325.00" style="stroke:black; fill:none" />
<polyline points="225.00, 325.00 250.00, 300.00" style="stroke:black; fill:none" />
<polyline points="250.00, 325.00 225.00, 300.00" style="stroke:black; fill:none" />
<polyline points="225.00, 300.00 225.00, 275.00 250.00, 275.00 250.00, 300.00 225.00, 300.00" style="stroke:black; fill:none" />
<polyline points="225.00, 300.00 250.00, 275.00" style="stroke:black; fill:none" />
<polyline points="250.00, 300.00 225.00, 275.00" style="stroke:black; fill:none" />
<polyline points="225.00, 275.00 225.00, 250.00 250.00, 250.00 250.00, 275.00 225.00, 275.00" style="stroke:black; fill:none" />
<polyline points="225.00, 275.00 250.00, 250.00" style="stroke:black; fill:none" />
<polyline points="250.00, 275.00 225.00, 250.00" style="stroke:black; fill:none" />
<polyline points="225.00, 250.00 225.00, 225.00 250.00, 225.00 250.00, 250.00 225.00, 250.00" style="stroke:black; fill:none" />
<polyline points="225.00, 250.00 250.00, 225.00" style="stroke:black; fill:none" />
<polyline points="250.00, 250.00 225.00, 225.00" style="stroke:black; fill:none" />
<polyline points="225.00, 225.00 225.00, 200.00 250.00, 200.00 250.00, 225.00 225.00, 225.00" style="stroke:black; fill:none" />
<polyline points="225.00, 225.00 250.00, 200.00" style="stroke:black; fill:none" />
<polyline points="250.00, 225.00 225.00, 200.00" style="stroke:black; fill:none" />
<polyline points="225.00, 200.00 225.00, 175.00 250.00, 175.00 250.00, 200.00 225.00, 200.00" style="stroke:black; fill:none" />
<polyline points="225.00, 200.00 250.00, 175.00" style="stroke:black; fill:none" />
<polyline points="250.00, 200.00 225.00, 175.00" style="stroke:black; fill:none" />
<polyline points="225.00, 175.00 225.00, 150.00 250.00, 150.00 250.00, 175.00 225.00, 175.00" style="stroke:black; fill:none" />
<polyline points="225.00, 175.00 250.00, 150.00" style="stroke:black; fill:none" />
<polyline points="250.00, 175.00 225.00, 150.00" style="stroke:black; fill:none" />
<polyline points="225.00, 150.00 225.00, 125.00 250.00, 125.00 250.00, 150.00 225.00, 150.00" style="stroke:black; fill:none" />
<polyline points="225.00, 150.00 250.00, 125.00" style="stroke:black; fill:none" />
<polyline points="250.00, 150.00 225.00, 125.00" style="stroke:black; fill:none" />
<polyline points="225.00, 125.00 225.00, 100.00 250.00, 100.00 250.00, 125.00 225.00, 125.00" style="stroke:black; fill:none" />
<polyline points="225.00, 125.00 250.00, 100.00" style="stroke:black; fill:none" />
<polyline points="250.00, 125.00 225.00, 100.00" style="stroke:black; fill:none" />
<polyline points="250.00, 500.00 250.00, 475.00 275.00, 475.00 275.00, 500.00 250.00, 500.00" style="stroke:black; fill:none" />
<polyline points="250.00, 500.00 275.00, 475.00" style="stroke:black; fill:none" />
<polyline points="275.00, 500.00 250.00, 475.00" style="stroke:black; fill:none" />
<polyline points="250.00, 475.00 250.00, 450.00 275.00, 450.00 275.00, 475.00 250.00, 475.00" style="stroke:black; fill:none" />
<polyline points="250.00, 475.00 275.00, 450.00" style="stroke:black; fill:none" />
<polyline points="275.00, 475.00 250.00, 450.00" style="stroke:black; fill:none" />
<polyline points="250.00, 450.00 250.00, 425.00 275.00, 425.00 275.00, 450.00 250.00, 450.00" style="stroke:black; fill:none" />
<polyline points="250.00, 450.00 275.00, 425.00" style="stroke:black; fill:none" />
<polyline points="275.00, 450.00 250.00, 425.00" style="stroke:black; fill:none" />
<polyline points="250.00, 425.00 250.00, 400.00 275.00, 400.00 275.00, 425.00 250.00, 425.00" style="stroke:black; fill:none" />
<polyline points="250.00, 425.00 275.00, 400.00" style="stroke:black; fill:none" />
<polyline points="275.00, 425.00 250.00, 400.00" style="stroke:black; fill:none" />
<polyline points="250.00, 400.00 250.00, 375.00 275.00, 375.00 275.00, 400.00 250.00, 400.00" style="stroke:black; fill:none" />
<polyline points="250.00, 400.00 275.00, 375.00" style="stroke:black; fill:none" />
<polyline points="275.00, 400.00 250.00, 375.00" style="stroke:black; fill:none" />
<polyline points="250.00, 375.00 250.00, 350.00 275.00, 350.00 275.00, 375.00 250.00, 375.00" style="stroke:black; fill:none" />
<polyline points="250.00, 375.00 275.00, 350.00" style="stroke:black; fill:none" />
<polyline points="275.00, 375.00 250.00, 350.00" style="stroke:black; fill:none" />
<polyline points="250.00, 350.00 250.00, 325.00 275.00, 325.00 275.00, 350.00 250.00, 350.00" style="stroke:black; fill:none" />
<polyline points="250.00, 350.00 275.00, 325.00" style="stroke:black; fill:none" />
<polyline points="275.00, 350.00 250.00, 325.00" style="stroke:black; fill:none" />
<polyline points="250.00, 325.00 250.00, 300.00 275.00, 300.00 275.00, 325.00 250.00, 325.00" style="stroke:black; fill:none" />
<polyline points="250.00, 325.00 275.00, 300.00" style="stroke:black; fill:none" />
<polyline points="275.00, 325.00 250.00, 300.00" style="stroke:black; fill:none" />
<polyline points="250.00, 300.00 250.00, 275.00 275.00, 275.00 275.00, 300.00 250.00, 300.00" style="stroke:black; fill:none" />
<polyline points="250.00, 300.00 275.00, 275.00" style="stroke:black; fill:none" />
<polyline points="275.00, 300.00 250.00, 275.00" style="stroke:black; fill:none" />
<polyline points="250.00, 275.00 250.00, 250.00 275.00, 250.00 275.00, 275.00 250.00, 275.00" style="stroke:black; fill:none" />
<polyline points="250.00, 275.00 275.00, 250.00" style="stroke:black; fill:none" />
<polyline points="275.00, 275.00 250.00, 250.00" style="stroke:black; fill:none" />
<polyline points="250.00, 250.00 250.00, 225.00 275.00, 225.00 275.00, 250.00 250.00, 250.00" style="stroke:black; fill:none" />
<polyline points="250.00, 250.00 275.00, 225.00" style="stroke:black; fill:none" />
<polyline points="275.00, 250.00 250.00, 225.00" style="stroke:black; fill:none" />
<polyline points="250.00, 225.00 250.00, 200.00 275.00, 200.00 275.00, 225.00 250.00, 225.00" style="stroke:black; fill:none" />
<polyline points="250.00, 225.00 275.00, 200.00" style="stroke:black; fill:none" />
<polyline points="275.00, 225.00 250.00, 200.00" style="stroke:black; fill:none" />
<polyline points="250.00, 200.00 250.00, 175.00 275.00, 175.00 275.00, 200.00 250.00, 200.00" style="stroke:black; fill:none" />
<polyline points="250.00, 200.00 275.00, 175.00" style="stroke:black; fill:none" />
<polyline points="275.00, 200.00 250.00, 175.00" style="stroke:black; fill:none" />
<polyline points="250.00, 175.00 250.00, 150.00 275.00, 150.00 275.00, 175.00 250.00, 175.00" style="stroke:black; fill:none" />
<polyline points="250.00, 175.00 275.00, 150.00" style="stroke:black; fill:none" />
<polyline points="275.00, 175.00 250.00, 150.00" style="stroke:black; fill:none" />
<polyline points="250.00, 150.00 250.00, 125.00 275.00, 125.00 275.00, 150.00 250.00, 150.00" style="stroke:black; fill:none" />
<polyline points="250.00, 150.00 275.00, 125.00" style="stroke:black; fill:none" />
<polyline points="275.00, 150.00 250.00, 125.00" style="stroke:black; fill:none" />
<polyline points="250.00, 125.00 250.00, 100.00 275.00, 100.00 275.00, 125.00 250.00, 125.00" style="stroke:black; fill:none" />
<polyline points="250.00, 125.00 275.00, 100.00" style="stroke:black; fill:none" />
<polyline points="275.00, 125.00 250.00, 100.00" style="stroke:black; fill:none" />
<polyline points="275.00, 500.00 275.00, 475.00 300.00, 475.00 300.00, 500.00 275.00, 500.00" style="stroke:black; fill:none" />
<polyline points="275.00, 500.00 300.00, 475.00" style="stroke:black; fill:none" />
<polyline points="300.00, 500.00 275.00, 475.00" style="stroke:black; fill:none" />
<polyline points="275.00, 475.00 275.00, 450.00 300.00, 450.00 300.00, 475.00 275.00, 475.00" style="stroke:black; fill:none" />
<polyline points="275.00, 475.00 300.00, 450.00" style="stroke:black; fill:none" />
<polyline points="300.00, 475.00 275.00, 450.00" style="stroke:black; fill:none" />
<polyline points="275.00, 450.00 275.00, 425.00 300.00, 425.00 300.00, 450.00 275.00, 450.00" style="stroke:black; fill:none" />
<polyline points="275.00, 450.00 300.00, 425.00" style="stroke:black; fill:none" />
<polyline points="300.00, 450.00 275.00, 425.00" style="stroke:black; fill:none" />
<polyline points="275.00, 425.00 275.00, 400.00 300.00, 400.00 300.00, 425.00 275.00, 425.00" style="stroke:black; fill:none" />
<polyline points="275.00, 425.00 300.00, 400.00" style="stroke:black; fill:none" />
<polyline points="300.00, 425.00 275.00, 400.00" style="stroke:black; fill:none" />
<polyline points="275.00, 400.00 275.00, 375.00 300.00, 375.00 300.00, 400.00 275.00, 400.00" style="stroke:black; fill:none" />
<polyline points="275.00, 400.00 300.00, 375.00" style="stroke:black; fill:none" />
<polyline points="300.00, 400.00 275.00, 375.00" style="stroke:black; fill:none" />
<polyline points="275.00, 375.00 275.00, 350.00 300.00, 350.00 300.00, 375.00 275.00, 375.00" style="stroke:black; fill:none" />
<polyline points="275.00, 375.00 300.00, 350.00" style="stroke:black; fill:none" />
<polyline points="300.00, 375.00 275.00, 350.00" style="stroke:black; fill:none" />
<polyline points="275.00, 350.00 275.00, 325.00 300.00, 325.00 300.00, 350.00 275.00, 350.00" style="stroke:black; fill:none" />
<polyline points="275.00, 350.00 300.00, 325.00" style="stroke:black; fill:none" />
<polyline points="300.00, 350.00 275.00, 325.00" style="stroke:black; fill:none" />
<polyline points="275.00, 325.00 275.00, 300.00 300.00, 300.00 300.00, 325.00 275.00, 325.00" style="stroke:black; fill:none" />
<polyline points="275.00, 325.00 300.00, 300.00" style="stroke:black; fill:none" />
<polyline points="300.00, 325.00 275.00, 300.00" style="stroke:black; fill:none" />
<polyline points="275.00, 300.00 275.00, 275.00 300.00, 275.00 300.00, 300.00 275.00, 300.00" style="stroke:black; fill:none" />
<polyline points="275.00, 300.00 300.00, 275.00" style="stroke:black; fill:none" />
<polyline points="300.00, 300.00 275.00, 275.00" style="stroke:black; fill:none" />
<polyline points="275.00, 275.00 275.00, 250.00 300.00, 250.00 300.00, 275.00 275.00, 275.00" style="stroke:black; fill:none" />
<polyline points="275.00, 275.00 300.00, 250.00" style="stroke:black; fill:none" />
<polyline points="300.00, 275.00 275.00, 250.00" style="stroke:black; fill:none" />
<polyline points="275.00, 250.00 275.00, 225.00 300.00, 225.00 300.00, 250.00 275.00, 250.00" style="stroke:black; fill:none" />
<polyline points="275.00, 250.00 300.00, 225.00" style="stroke:black; fill:none" />
<polyline points="300.00, 250.00 275.00, 225.00" style="stroke:black; fill:none" />
<polyline points="275.00, 225.00 275.00, 200.00 300.00, 200.00 300.00, 225.00 275.00, 225.00" style="stroke:black; fill:none" />
<polyline points="275.00, 225.00 300.00, 200.00" style="stroke:black; fill:none" />
<polyline points="300.00, 225.00 275.00, 200.00" style="stroke:black; fill:none" />
<polyline points="275.00, 200.00 275.00, 175.00 300.00, 175.00 300.00, 200.00 275.00, 200.00" style="stroke:black; fill:none" />
<polyline points="275.00, 200.00 300.00, 175.00" style="stroke:black; fill:none" />
<polyline points="300.00, 200.00 275.00, 175.00" style="stroke:black; fill:none" />
<polyline points="275.00, 175.00 275.00, 150.00 300.00, 150.00 300.00, 175.00 275.00, 175.00" style="stroke:black; fill:none" />
<polyline points="275.00, 175.00 300.00, 150.00" style="stroke:black; fill:none" />
<polyline points="300.00, 175.00 275.00, 150.00" style="stroke:black; fill:none" />
<polyline points="275.00, 150.00 275.00, 125.00 300.00, 125.00 300.00, 150.00 275.00, 150.00" style="stroke:black; fill:none" />
<polyline points="275.00, 150.00 300.00, 125.00" style="stroke:black; fill:none" />
<polyline points="300.00, 150.00 275.00, 125.00" style="stroke:black; fill:none" />
<polyline points="275.00, 125.00 275.00, 100.00 300.00, 100.00 300.00, 125.00 275.00, 125.00" style="stroke:black; fill:none" />
<polyline points="275.00, 125.00 300.00, 100.00" style="stroke:black; fill:none" />
<polyline points="300.00, 125.00 275.00, 100.00" style="stroke:black; fill:none" />
<polyline points="300.00, 500.00 300.00, 475.00 325.00, 475.00 325.00, 500.00 300.00, 500.00" style="stroke:black; fill:none" />
<polyline points="300.00, 500.00 325.00, 475.00" style="stroke:black; fill:none" />
<polyline points="325.00, 500.00 300.00, 475.00" style="stroke:black; fill:none" />
<polyline points="300.00, 475.00 300.00, 450.00 325.00, 450.00 325.00, 475.00 300.00, 475.00" style="stroke:black; fill:none" />
<polyline points="300.00, 475.00 325.00, 450.00" style="stroke:black; fill:none" />
<polyline points="325.00, 475.00 300.00, 450.00" style="stroke:black; fill:none" />
<polyline points="300.00, 450.00 300.00, 425.00 325.00, 425.00 325.00, 450.00 300.00, 450.00" style="stroke:black; fill:none" />
<polyline points="300.00, 450.00 325.00, 425.00" style="stroke:black; fill:none" />
<polyline points="325.00, 450.00 300.00, 425.00" style="stroke:black; fill:none" />
<polyline points="300.00, 425.00 300.00, 400.00 325.00, 400.00 325.00, 425.00 300.00, 425.00" style="stroke:black; fill:none" />
<polyline points="300.00, 425.00 325.00, 400.00" style="stroke:black; fill:none" />
<polyline points="325.00, 425.00 300.00, 400.00" style="stroke:black; fill:none" />
<polyline points="300.00, 400.00 300.00, 375.00 325.00, 375.00 325.00, 400.00 300.00, 400.00" style="stroke:black; fill:none" />
<polyline points="300.00, 400.00 325.00, 375.00" style="stroke:black; fill:none" />
<polyline points="325.00, 400.00 300.00, 375.00" style="stroke:black; fill:none" />
<polyline points="300.00, 375.00 300.00, 350.00 325.00, 350.00 325.00, 375.00 300.00, 375.00" style="stroke:black; fill:none" />
<polyline points="300.00, 375.00 325.00, 350.00" style="stroke:black; fill:none" />
<polyline points="325.00, 375.00 300.00, 350.00" style="stroke:black; fill:none" />
<polyline points="300.00, 350.00 300.00, 325.00 325.00, 325.00 325.00, 350.00 300.00, 350.00" style="stroke:black; fill:none" />
<polyline points="300.00, 350.00 325.00, 325.00" style="stroke:black; fill:none" />
<polyline points="325.00, 350.00 300.00, 325.00" style="stroke:black; fill:none" />
<polyline points="300.00, 325.00 300.00, 300.00 325.00, 300.00 325.00, 325.00 300.00, 325.00" style="stroke:black; fill:none" />
<polyline points="300.00, 325.00 325.00, 300.00" style="stroke:black; fill:none" />
<polyline points="325.00, 325.00 300.00, 300.00" style="stroke:black; fill:none" />
<polyline points="300.00, 300.00 300.00, 275.00 325.00, 275.00 325.00, 300.00 300.00, 300.00" style="stroke:black; fill:none" />
<polyline points="300.00, 300.00 325.00, 275.00" style="stroke:black; fill:none" />
<polyline points="325.00, 300.00 300.00, 275.00" style="stroke:black; fill:none" />
<polyline points="300.00, 275.00 300.00, 250.00 325.00, 250.00 325.00, 275.00 300.00, 275.00" style="stroke:black; fill:none" />
<polyline points="300.00, 275.00 325.00, 250.00" style="stroke:black; fill:none" />
<polyline points="325.00, 275.00 300.00, 250.00" style="stroke:black; fill:none" />
<polyline points="300.00, 250.00 300.00, 225.00 325.00, 225.00 325.00, 250.00 300.00, 250.00" style="stroke:black; fill:none" />
<polyline points="300.00, 250.00 325.00, 225.00" style="stroke:black; fill:none" />
<polyline points="325.00, 250.00 300.00, 225.00" style="stroke:black; fill:none" />
<polyline points="300.00, 225.00 300.00, 200.00 325.00, 200.00 325.00, 225.00 300.00, 225.00" style="stroke:black; fill:none" />
<polyline points="300.00, 225.00 325.00, 200.00" style="stroke:black; fill:none" />
<polyline points="325.00, 225.00 300.00, 200.00" style="stroke:black; fill:none" />
<polyline points="300.00, 200.00 300.00, 175.00 325.00, 175.00 325.00, 200.00 300.00, 200.00" style="stroke:black; fill:none" />
<polyline points="300.00, 200.00 325.00, 175.00" style="stroke:black; fill:none" />
<polyline points="325.00, 200.00 300.00, 175.00" style="stroke:black; fill:none" />
<polyline points="300.00, 175.00 300.00, 150.00 325.00, 150.00 325.00, 175.00 300.00, 175.00" style="stroke:black; fill:none" />
<polyline points="300.00, 175.00 325.00, 150.00" style="stroke:black; fill:none" />
<polyline points="325.00, 175.00 300.00, 150.00" style="stroke:black; fill:none" />
<polyline points="300.00, 150.00 300.00, 125.00 325.00, 125.00 325.00, 150.00 300.00, 150.00" style="stroke:black; fill:none" />
<polyline points="300.00, 150.00 325.00, 125.00" style="stroke:black; fill:none" />
<polyline points="325.00, 150.00 300.00, 125.00" style="stroke:black; fill:none" />
<polyline points="300.00, 125.00 300.00, 100.00 325.00, 100.00 325.00, 125.00 300.00, 125.00" style="stroke:black; fill:none" />
<polyline points="300.00, 125.00 325.00, 100.00" style="stroke:black; fill:none" />
<polyline points="325.00, 125.00 300.00, 100.00" style="stroke:black; fill:none" />
<polyline points="325.00, 500.00 325.00, 475.00 350.00, 475.00 350.00, 500.00 325.00, 500.00" style="stroke:black; fill:none" />
<polyline points="325.00, 500.00 350.00, 475.00" style="stroke:black; fill:none" />
<polyline points="350.00, 500.00 325.00, 475.00" style="stroke:black; fill:none" />
<polyline points="325.00, 475.00 325.00, 450.00 350.00, 450.00 350.00, 475.00 325.00, 475.00" style="stroke:black; fill:none" />
<polyline points="325.00, 475.00 350.00, 450.00" style="stroke:black; fill:none" />
<polyline points="350.00, 475.00 325.00, 450.00" style="stroke:black; fill:none" />
<polyline points="325.00, 450.00 325.00, 425.00 350.00, 425.00 350.00, 450.00 325.00, 450.00" style="stroke:black; fill:none" />
<polyline points="325.00, 450.00 350.00, 425.00" style="stroke:black; fill:none" />
<polyline points="350.00, 450.00 325.00, 425.00" style="stroke:black; fill:none" />
<polyline points="325.00, 425.00 325.00, 400.00 350.00, 400.00 350.00, 425.00 325.00, 425.00" style="stroke:black; fill:none" />
<polyline points="325.00, 425.00 350.00, 400.00" style="stroke:black; fill:none" />
<polyline points="350.00, 425.00 325.00, 400.00" style="stroke:black; fill:none" />
<polyline points="325.00, 400.00 325.00, 375.00 350.00, 375.00 350.00, 400.00 325.00, 400.00" style="stroke:black; fill:none" />
<polyline points="325.00, 400.00 350.00, 375.00" style="stroke:black; fill:none" />
<polyline points="350.00, 400.00 325.00, 375.00" style="stroke:black; fill:none" />
<polyline points="325.00, 375.00 325.00, 350.00 350.00, 350.00 350.00, 375.00 325.00, 375.00" style="stroke:black; fill:none" />
<polyline points="325.00, 375.00 350.00, 350.00" style="stroke:black; fill:none" />
<polyline points="350.00, 375.00 325.00, 350.00" style="stroke:black; fill:none" />
<polyline points="325.00, 350.00 325.00, 325.00 350.00, 325.00 350.00, 350.00 325.00, 350.00" style="stroke:black; fill:none" />
<polyline points="325.00, 350.00 350.00, 325.00" style="stroke:black; fill:none" />
<polyline points="350.00, 350.00 325.00, 325.00" style="stroke:black; fill:none" />
<polyline points="325.00, 325.00 325.00, 300.00 350.00, 300.00 350.00, 325.00 325.00, 325.00" style="stroke:black; fill:none" />
<polyline points="325.00, 325.00 350.00, 300.00" style="stroke:black; fill:none" />
<polyline points="350.00, 325.00 325.00, 300.00" style="stroke:black; fill:none" />
<polyline points="325.00, 300.00 325.00, 275.00 350.00, 275.00 350.00, 300.00 325.00, 300.00" style="stroke:black; fill:none" />
<polyline points="325.00, 300.00 350.00, 275.00" style="stroke:black; fill:none" />
<polyline points="350.00, 300.00 325.00, 275.00" style="stroke:black; fill:none" />
<polyline points="325.00, 275.00 325.00, 250.00 350.00, 250.00 350.00, 275.00 325.00, 275.00" style="stroke:black; fill:none" />
<polyline points="325.00, 275.00 350.00, 250.00" style="stroke:black; fill:none" />
<polyline points="350.00, 275.00 325.00, 250.00" style="stroke:black; fill:none" />
<polyline points="325.00, 250.00 325.00, 225.00 350.00, 225.00 350.00, 250.00 325.00, 250.00" style="stroke:black; fill:none" />
<polyline points="325.00, 250.00 350.00, 225.00" style="stroke:black; fill:none" />
<polyline points="350.00, 250.00 325.00, 225.00" style="stroke:black; fill:none" />
<polyline points="325.00, 225.00 325.00, 200.00 350.00, 200.00 350.00, 225.00 325.00, 225.00" style="stroke:black; fill:none" />
<polyline points="325.00, 225.00 350.00, 200.00" style="stroke:black; fill:none" />
<polyline points="350.00, 225.00 325.00, 200.00" style="stroke:black; fill:none" />
<polyline points="325.00, 200.00 325.00, 175.00 350.00, 175.00 350.00, 200.00 325.00, 200.00" style="stroke:black; fill:none" />
<polyline points="325.00, 200.00 350.00, 175.00" style="stroke:black; fill:none" />
<polyline points="350.00, 200.00 325.00, 175.00" style="stroke:black; fill:none" />
<polyline points="325.00, 175.00 325.00, 150.00 350.00, 150.00 350.00, 175.00 325.00, 175.00" style="stroke:black; fill:none" />
<polyline points="325.00, 175.00 350.00, 150.00" style="stroke:black; fill:none" />
<polyline points="350.00, 175.00 325.00, 150.00" style="stroke:black; fill:none" />
<polyline points="325.00, 150.00 325.00, 125.00 350.00, 125.00 350.00, 150.00 325.00, 150.00" style="stroke:black; fill:none" />
<polyline points="325.00, 150.00 350.00, 125.00" style="stroke:black; fill:none" />
<polyline points="350.00, 150.00 325.00, 125.00" style="stroke:black; fill:none" />
<polyline points="325.00, 125.00 325.00, 100.00 350.00, 100.00 350.00, 125.00 325.00, 125.00" style="stroke:black; fill:none" />
<polyline points="325.00, 125.00 350.00, 100.00" style="stroke:black; fill:none" />
<polyline points="350.00, 125.00 325.00, 100.00" style="stroke:black; fill:none" />
<polyline points="350.00, 500.00 350.00, 475.00 375.00, 475.00 375.00, 500.00 350.00, 500.00" style="stroke:black; fill:none" />
<polyline points="350.00, 500.00 375.00, 475.00" style="stroke:black; fill:none" />
<polyline points="375.00, 500.00 350.00, 475.00" style="stroke:black; fill:none" />
<polyline points="350.00, 475.00 350.00, 450.00 375.00, 450.00 375.00, 475.00 350.00, 475.00" style="stroke:black; fill:none" />
<polyline points="350.00, 475.00 375.00, 450.00" style="stroke:black; fill:none" />
<polyline points="375.00, 475.00 350.00, 450.00" style="stroke:black; fill:none" />
<polyline points="350.00, 450.00 350.00, 425.00 375.00, 425.00 375.00, 450.00 350.00, 450.00" style="stroke:black; fill:none" />
<polyline points="350.00, 450.00 375.00, 425.00" style="stroke:black; fill:none" />
<polyline points="375.00, 450.00 350.00, 425.00" style="stroke:black; fill:none" />
<polyline points="350.00, 425.00 350.00, 400.00 375.00, 400.00 375.00, 425.00 350.00, 425.00" style="stroke:black; fill:none" />
<polyline points="350.00, 425.00 375.00, 400.00" style="stroke:black; fill:none" />
<polyline points="375.00, 425.00 350.00, 400.00" style="stroke:black; fill:none" />
<polyline points="350.00, 400.00 350.00, 375.00 375.00, 375.00 375.00, 400.00 350.00, 400.00" style="stroke:black; fill:none" />
<polyline points="350.00, 400.00 375.00, 375.00" style="stroke:black; fill:none" />
<polyline points="375.00, 400.00 350.00, 375.00" style="stroke:black; fill:none" />
<polyline points="350.00, 375.00 350.00, 350.00 375.00, 350.00 375.00, 375.00 350.00, 375.00" style="stroke:black; fill:none" />
<polyline points="350.00, 375.00 375.00, 350.00" style="stroke:black; fill:none" />
<polyline points="375.00, 375.00 350.00, 350.00" style="stroke:black; fill:none" />
<polyline points="350.00, 350.00 350.00, 325.00 375.00, 325.00 375.00, 350.00 350.00, 350.00" style="stroke:black; fill:none" />
<polyline points="350.00, 350.00 375.00, 325.00" style="stroke:black; fill:none" />
<polyline points="375.00, 350.00 350.00, 325.00" style="stroke:black; fill:none" />
<polyline points="350.00, 325.00 350.00, 300.00 375.00, 300.00 375.00, 325.00 350.00, 325.00" style="stroke:black; fill:none" />
<polyline points="350.00, 325.00 375.00, 300.00" style="stroke:black; fill:none" />
<polyline points="375.00, 325.00 350.00, 300.00" style="stroke:black; fill:none" />
<polyline points="350.00, 300.00 350.00, 275.00 375.00, 275.00 375.00, 300.00 350.00, 300.00" style="stroke:black; fill:none" />
<polyline points="350.00, 300.00 375.00, 275.00" style="stroke:black; fill:none" />
<polyline points="375.00, 300.00 350.00, 275.00" style="stroke:black; fill:none" />
<polyline points="350.00, 275.00 350.00, 250.00 375.00, 250.00 375.00, 275.00 350.00, 275.00" style="stroke:black; fill:none" />
<polyline points="350.00, 275.00 375.00, 250.00" style="stroke:black; fill:none" />
<polyline points="375.00, 275.00 350.00, 250.00" style="stroke:black; fill:none" />
<polyline points="350.00, 250.00 350.00, 225.00 375.00, 225.00 375.00, 250.00 350.00, 250.00" style="stroke:black; fill:none" />
<polyline points="350.00, 250.00 375.00, 225.00" style="stroke:black; fill:none" />
<polyline points="375.00, 250.00 350.00, 225.00" style="stroke:black; fill:none" />
<polyline points="350.00, 225.00 350.00, 200.00 375.00, 200.00 375.00, 225.00 350.00, 225.00" style="stroke:black; fill:none" />
<polyline points="350.00, 225.00 375.00, 200.00" style="stroke:black; fill:none" />
<polyline points="375.00, 225.00 350.00, 200.00" style="stroke:black; fill:none" />
<polyline points="350.00, 200.00 350.00, 175.00 375.00, 175.00 375.00, 200.00 350.00, 200.00" style="stroke:black; fill:none" />
<polyline points="350.00, 200.00 375.00, 175.00" style="stroke:black; fill:none" />
<polyline points="375.00, 200.00 350.00, 175.00" style="stroke:black; fill:none" />
<polyline points="350.00, 175.00 350.00, 150.00 375.00, 150.00 375.00, 175.00 350.00, 175.00" style="stroke:black; fill:none" />
<polyline points="350.00, 175.00 375.00, 150.00" style="stroke:black; fill:none" />
<polyline points="375.00, 175.00 350.00, 150.00" style="stroke:black; fill:none" />
<polyline points="350.00, 150.00 350.00, 125.00 375.00, 125.00 375.00, 150.00 350.00, 150.00" style="stroke:black; fill:none" />
<polyline points="350.00, 150.00 375.00, 125.00" style="stroke:black; fill:none" />
<polyline points="375.00, 150.00 350.00, 125.00" style="stroke:black; fill:none" />
<polyline points="350.00, 125.00 350.00, 100.00 375.00, 100.00 375.00, 125.00 350.00, 125.00" style="stroke:black; fill:none" />
<polyline points="350.00, 125.00 375.00, 100.00" style="stroke:black; fill:none" />
<polyline points="375.00, 125.00 350.00, 100.00" style="stroke:black; fill:none" />
<polyline points="375.00, 500.00 375.00, 475.00 400.00, 475.00 400.00, 500.00 375.00, 500.00" style="stroke:black; fill:none" />
<polyline points="375.00, 500.00 400.00, 475.00" style="stroke:black; fill:none" />
<polyline points="400.00, 500.00 375.00, 475.00" style="stroke:black; fill:none" />
<polyline points="375.00, 475.00 375.00, 450.00 400.00, 450.00 400.00, 475.00 375.00, 475.00" style="stroke:black; fill:none" />
<polyline points="375.00, 475.00 400.00, 450.00" style="stroke:black; fill:none" />
<polyline points="400.00, 475.00 375.00, 450.00" style="stroke:black; fill:none" />
<polyline points="375.00, 450.00 375.00, 425.00 400.00, 425.00 400.00, 450.00 375.00, 450.00" style="stroke:black; fill:none" />
<polyline points="375.00, 450.00 400.00, 425.00" style="stroke:black; fill:none" />
<polyline points="400.00, 450.00 375.00, 425.00" style="stroke:black; fill:none" />
<polyline points="375.00, 425.00 375.00, 400.00 400.00, 400.00 400.00, 425.00 375.00, 425.00" style="stroke:black; fill:none" />
<polyline points="375.00, 425.00 400.00, 400.00" style="stroke:black; fill:none" />
<polyline points="400.00, 425.00 375.00, 400.00" style="stroke:black; fill:none" />
<polyline points="375.00, 400.00 375.00, 375.00 400.00, 375.00 400.00, 400.00 375.00, 400.00" style="stroke:black; fill:none" />
<polyline points="375.00, 400.00 400.00, 375.00" style="stroke:black; fill:none" />
<polyline points="400.00, 400.00 375.00, 375.00" style="stroke:black; fill:none" />
<polyline points="375.00, 375.00 375.00, 350.00 400.00, 350.00 400.00, 375.00 375.00, 375.00" style="stroke:black; fill:none" />
<polyline points="375.00, 375.00 400.00, 350.00" style="stroke:black; fill:none" />
<polyline points="400.00, 375.00 375.00, 350.00" style="stroke:black; fill:none" />
<polyline points="375.00, 350.00 375.00, 325.00 400.00, 325.00 400.00, 350.00 375.00, 350.00" style="stroke:black; fill:none" />
<polyline points="375.00, 350.00 400.00, 325.00" style="stroke:black; fill:none" />
<polyline points="400.00, 350.00 375.00, 325.00" style="stroke:black; fill:none" />
<polyline points="375.00, 325.00 375.00, 300.00 400.00, 300.00 400.00, 325.00 375.00, 325.00" style="stroke:black; fill:none" />
<polyline points="375.00, 325.00 400.00, 300.00" style="stroke:black; fill:none" />
<polyline points="400.00, 325.00 375.00, 300.00" style="stroke:black; fill:none" />
<polyline points="375.00, 300.00 375.00, 275.00 400.00, 275.00 400.00, 300.00 375.00, 300.00" style="stroke:black; fill:none" />
<polyline points="375.00, 300.00 400.00, 275.00" style="stroke:black; fill:none" />
<polyline points="400.00, 300.00 375.00, 275.00" style="stroke:black; fill:none" />
<polyline points="375.00, 275.00 375.00, 250.00 400.00, 250.00 400.00, 275.00 375.00, 275.00" style="stroke:black; fill:none" />
<polyline points="375.00, 275.00 400.00, 250.00" style="stroke:black; fill:none" />
<polyline points="400.00, 275.00 375.00, 250.00" style="stroke:black; fill:none" />
<polyline points="375.00, 250.00 375.00, 225.00 400.00, 225.00 400.00, 250.00 375.00, 250.00" style="stroke:black; fill:none" />
<polyline points="375.00, 250.00 400.00, 225.00" style="stroke:black; fill:none" />
<polyline points="400.00, 250.00 375.00, 225.00" style="stroke:black; fill:none" />
<polyline points="375.00, 225.00 375.00, 200.00 400.00, 200.00 400.00, 225.00 375.00, 225.00" style="stroke:black; fill:none" />
<polyline points="375.00, 225.00 400.00, 200.00" style="stroke:black; fill:none" />
<polyline points="400.00, 225.00 375.00, 200.00" style="stroke:black; fill:none" />
<polyline points="375.00, 200.00 375.00, 175.00 400.00, 175.00 400.00, 200.00 375.00, 200.00" style="stroke:black; fill:none" />
<polyline points="375.00, 200.00 400.00, 175.00" style="stroke:black; fill:none" />
<polyline points="400.00, 200.00 375.00, 175.00" style="stroke:black; fill:none" />
<polyline points="375.00, 175.00 375.00, 150.00 400.00, 150.00 400.00, 175.00 375.00, 175.00" style="stroke:black; fill:none" />
<polyline points="375.00, 175.00 400.00, 150.00" style="stroke:black; fill:none" />
<polyline points="400.00, 175.00 375.00, 150.00" style="stroke:black; fill:none" />
<polyline points="375.00, 150.00 375.00, 125.00 400.00, 125.00 400.00, 150.00 375.00, 150.00" style="stroke:black; fill:none" />
<polyline points="375.00, 150.00 400.00, 125.00" style="stroke:black; fill:none" />
<polyline points="400.00, 150.00 375.00, 125.00" style="stroke:black; fill:none" />
<polyline points="375.00, 125.00 375.00, 100.00 400.00, 100.00 400.00, 125.00 375.00, 125.00" style="stroke:black; fill:none" />
<polyline points="375.00, 125.00 400.00, 100.00" style="stroke:black; fill:none" />
<polyline points="400.00, 125.00 375.00, 100.00" style="stroke:black; fill:none" />
</svg>