<svg height="1000" width="1000" xmlns="http://www.w3.org/2000/svg">
<polyline points=" 0.00, 991.24 1000.00, 991.24 991.35,  0.00  8.88, 17.15 34.37, 990.86 999.33, 957.17 957.58,  0.96 10.12, 50.61 67.53, 989.35 997.54, 924.31 925.03,  3.01 12.44, 82.86 99.47, 986.76 994.71, 892.67 893.70,  6.10 15.77, 113.89 130.21, 983.20 990.91, 862.23 863.56, 10.13 20.02, 143.73 159.75, 978.72 986.21, 832.99 834.61, 15.04 25.14, 172.38 188.11, 973.40 980.70, 804.93 806.85, 20.75 31.04, 199.86 215.29, 967.32 974.43, 778.04 780.24, 27.19 37.66, 226.17 241.31, 960.53 967.47, 752.30 754.79, 34.31 44.93, 251.34 266.20, 953.10 959.90, 727.70 730.47, 42.03 52.80, 275.38 289.96, 945.09 951.75, 704.22 707.27, 50.31 61.20, 298.31 312.62, 936.57 943.11, 681.83 685.15, 59.07 70.08, 320.15 334.19, 927.58 934.01, 660.52 664.11, 68.27 79.38, 340.93 354.71, 918.17 924.51, 640.26 644.11, 77.86 89.06, 360.67 374.19, 908.41 914.66, 621.04 625.13, 87.79 99.07, 379.40 392.67, 898.33 904.51, 602.82 607.16, 98.01 109.35, 397.12 410.15, 887.98 894.10, 585.57 590.16, 108.48 119.87, 413.88 426.67, 877.41 883.48, 569.29 574.11, 119.15 130.59, 429.70 442.26, 866.65 872.68, 553.93 558.98, 129.99 141.47, 444.61 456.94, 855.74 861.73, 539.47 544.74, 140.96 152.47, 458.62 470.74, 844.71 850.69, 525.89 531.38, 152.03 163.55, 471.77 483.68, 833.61 839.58, 513.16 518.85, 163.15 174.69, 484.09 495.79, 822.47 828.42, 501.25 507.14, 174.31 185.85, 495.61 507.11, 811.30 817.26, 490.13 496.22, 185.48 197.01, 506.34 517.65, 800.15 806.11, 479.78 486.05, 196.62 208.14, 516.32 527.44, 789.03 795.00, 470.16 476.62, 207.71 219.22, 525.57 536.52, 777.97 783.96, 461.26 467.89, 218.73 230.22, 534.13 544.91, 766.99 773.00, 453.04 459.84, 229.66 241.12, 542.02 552.63, 756.11 762.16, 445.48 452.43, 240.48 251.91, 549.26 559.72, 745.36 751.43, 438.55 445.66, 251.17 262.56, 555.89 566.19, 734.74 740.85, 432.22 439.48, 261.71 273.07, 561.92 572.09, 724.27 730.43, 426.47 433.87, 272.09 283.41, 567.39 577.42, 713.98 720.18, 421.28 428.81, 282.30 293.57, 572.32 582.22, 703.86 710.11, 416.61 424.27, 292.32 303.54, 576.73 586.51, 693.94 700.24, 412.44 420.22, 302.14 313.31, 580.66 590.31, 684.22 690.57, 408.75 416.65, 311.75 322.87, 584.11 593.65, 674.72 681.12, 405.52 413.53, 321.15 332.21, 587.13 596.56, 665.43 671.89, 402.72 410.83, 330.32 341.33, 589.72 599.05, 656.37 662.89, 400.33 408.54, 339.27 350.21, 591.92 601.15, 647.55 654.13, 398.33 406.63, 347.97 358.86, 593.74 602.88, 638.96 645.60, 396.69 405.08, 356.44 367.26, 595.20 604.26, 630.62 637.32, 395.39 403.87, 364.66 375.42, 596.33 605.31, 622.52 629.28, 394.42 402.98, 372.63 383.33, 597.14 606.05, 614.67 621.49, 393.76 402.38, 380.36 391.00, 597.66 606.49, 607.07 613.96, 393.38 402.07, 387.83 398.41, 597.91 606.67, 599.72 606.67, 393.27 402.03, 395.05 405.57, 597.89 606.59, 592.63 599.64, 393.41 402.22, 402.03 412.47, 597.64 606.28, 585.78 592.85, 393.78 402.65, 408.75 419.13, 597.16 605.75, 579.19 586.32, 394.36 403.28, 415.22 425.54, 596.47 605.01, 572.84 580.04, 395.15 404.12, 421.44 431.70, 595.59 604.09, 566.74 574.00, 396.12 405.13, 427.41 437.61, 594.53 602.99, 560.89 568.21, 397.25 406.31, 433.15 443.29, 593.32 601.73, 555.28 562.66, 398.55 407.64, 438.64 448.72, 591.95 600.33, 549.90 557.34, 399.98 409.11, 443.89 453.91, 590.45 598.80, 544.77 552.26, 401.55 410.70, 448.91 458.88, 588.82 597.15, 539.86 547.42, 403.23 412.41, 453.70 463.61, 587.09 595.38, 535.18 542.79, 405.01 414.22, 458.27 468.12, 585.26 593.53, 530.73 538.39, 406.89 416.12, 462.62 472.41, 583.33 591.59, 526.49 534.21, 408.85 418.10, 466.74 476.49, 581.34 589.57, 522.47 530.24, 410.89 420.15, 470.66 480.35, 579.27 587.49, 518.66 526.48, 412.98 422.26, 474.37 484.01, 577.15 585.35, 515.05 522.92, 415.13 424.42, 477.88 487.47, 574.97 583.17, 511.63 519.56, 417.32 426.62, 481.20 490.74, 572.76 580.95, 508.42 516.39, 419.55 428.86, 484.32 493.82, 570.52 578.70, 505.39 513.40, 421.81 431.13, 487.26 496.71, 568.25 576.42, 502.54 510.60, 424.09 433.41, 490.02 499.43, 565.96 574.13, 499.87 507.97, 426.39 435.71, 492.60 501.97, 563.66 571.83, 497.36 505.51, 428.69 438.01, 495.02 504.35, 561.35 569.52, 495.03 503.22, 431.00 440.32, 497.28 506.56, 559.05 567.22, 492.85 501.08, 433.30 442.62, 499.38 508.62, 556.75 564.92, 490.83 499.09, 435.59 444.91, 501.32 510.53, 554.46 562.64, 488.96 497.26, 437.87 447.18, 503.13 512.30, 552.19 560.37, 487.22 495.56, 440.13 449.44, 504.79 513.93, 549.94 558.13, 485.63 494.00, 442.37 451.67, 506.32 515.42, 547.72 555.91, 484.17 492.57, 444.59 453.88, 507.72 516.79, 545.52 553.72, 482.83 491.26, 446.77 456.06, 508.99 518.04, 543.35 551.56, 481.61 490.07, 448.92 458.20, 510.15 519.17, 541.21 549.43, 480.51 489.00, 451.04 460.31, 511.19 520.18, 539.11 547.34, 479.52 488.04, 453.12 462.38, 512.13 521.10, 537.06 545.29, 478.64 487.18, 455.16 464.40, 512.97 521.91, 535.04 543.29, 477.85 486.41, 457.15 466.39, 513.70 522.62, 533.07 541.32, 477.16 485.75, 459.10 468.33, 514.35 523.24, 531.14 539.41, 476.56 485.17, 461.01 470.22, 514.91 523.78, 529.25 537.54, 476.05 484.68, 462.87 472.07, 515.38 524.23, 527.42 535.72, 475.61 484.26, 464.68 473.87, 515.77 524.61, 525.64 533.94, 475.26 483.92, 466.44 475.61, 516.09 524.91, 523.90 532.22, 474.97 483.66, 468.15 477.31, 516.34 525.14, 522.22 530.55, 474.75 483.46, 469.81 478.96, 516.53 525.31, 520.58 528.93, 474.60 483.32, 471.41 480.55, 516.65 525.42, 519.00 527.36, 474.51 483.24, 472.97 482.10, 516.71 525.47, 517.47 525.84, 474.47 483.22, 474.47 483.59, 516.72 525.46, 515.99 524.38, 474.49 483.25, 475.93 485.03, 516.68 525.41, 514.57 522.96, 474.55 483.32, 477.33 486.41, 516.59 525.31, 513.19 521.60, 474.66 483.44, 478.67 487.75, 516.46 525.17, 511.87 520.29, 474.82 483.61, 479.97 489.03, 516.29 524.99, 510.60 519.03, 475.01 483.81, 481.22 490.27, 516.08 524.77, 509.38 517.82, 475.23 484.04, 482.41 491.45, 515.84 524.52, 508.20 516.67, 475.49 484.31, 483.56 492.58, 515.56 524.24, 507.08 515.56, 475.78 484.60, 484.66 493.67, 515.26 523.93, 506.01 514.50, 476.10 484.93, 485.71 494.71, 514.93 523.59, 504.99 513.48, 476.44 485.27, 486.71 495.70, 514.58 523.23, 504.01 512.52, 476.80 485.64, 487.66 496.64, 514.21 522.85, 503.08 511.60, 477.19 486.03, 488.57 497.53, 513.81 522.46, 502.19 510.72, 477.59 486.44, 489.43 498.39, 513.40 522.05, 501.35 509.89, 478.00 486.86, 490.25 499.20, 512.98 521.62, 500.55 509.10, 478.43 487.29, 491.03 499.96, 512.55 521.18, 499.80 508.36, 478.87 487.73, 491.76 500.69, 512.10 520.73, 499.08 507.66, 479.32 488.18, 492.46 501.37, 511.64 520.28, 498.41 506.99, 479.78 488.64, 493.11 502.02, 511.18 519.81, 497.77 506.37, 480.25 489.11, 493.73 502.62, 510.72 519.34, 497.18 505.78, 480.72 489.58, 494.31 503.19, 510.24 518.87, 496.61 505.23, 481.19 490.06, 494.85 503.73, 509.77 518.40, 496.09 504.71, 481.67 490.53, 495.36 504.23, 509.29 517.92, 495.60 504.23, 482.14 491.01, 495.83 504.69, 508.82 517.44, 495.14 503.78, 482.62 491.48, 496.27 505.12, 508.34 516.97, 494.72 503.36, 483.09 491.96, 496.68 505.53, 507.87 516.50, 494.32 502.97, 483.56 492.43, 497.06 505.90, 507.40 516.03, 493.96 502.62, 484.03 492.89, 497.41 506.24, 506.93 515.56, 493.62 502.29, 484.49 493.36, 497.74 506.56, 506.47 515.10, 493.31 501.98, 484.95 493.81, 498.03 506.85, 506.02 514.65, 493.03 501.71, 485.41 494.26, 498.30 507.11, 505.57 514.20, 492.77 501.46, 485.85 494.71, 498.55 507.35, 505.13 513.76, 492.54 501.23, 486.29 495.14, 498.77 507.56, 504.69 513.33, 492.33 501.03, 486.72 495.57, 498.97 507.76, 504.26 512.90, 492.14 500.84, 487.14 495.99, 499.14 507.93, 503.84 512.49, 491.97 500.68, 487.56 496.41, 499.30 508.08, 503.44 512.08, 491.83 500.54, 487.96 496.81, 499.44 508.22, 503.03 511.68, 491.70 500.41, 488.36 497.20, 499.56 508.33, 502.64 511.29, 491.59 500.31, 488.75 497.59, 499.66 508.43, 502.26 510.91, 491.49 500.22, 489.12 497.96, 499.75 508.51, 501.89 510.55, 491.42 500.14, 489.49 498.32, 499.81 508.58, 501.53 510.19, 491.35 500.09, 489.84 498.68, 499.87 508.63, 501.18 509.84, 491.31 500.04, 490.19 499.02, 499.91 508.67, 500.84 509.50, 491.27 500.01, 490.52 499.35, 499.94 508.69, 500.51 509.18, 491.25 499.99, 490.85 499.67, 499.96 508.70, 500.19 508.86, 491.24 499.98, 491.16 499.98, 499.96 508.71, 499.88 508.55, 491.24 499.99, 491.46 500.28, 499.95 508.70, 499.59 508.26, 491.25 500.00, 491.76 500.57, 499.94 508.68, 499.30 507.98, 491.27 500.02, 492.04 500.85, 499.91 508.65, 499.03 507.70, 491.30 500.05, 492.31 501.12, 499.88 508.62, 498.76 507.44, 491.34 500.09, 492.57 501.38, 499.84 508.57, 498.51 507.19, 491.38 500.14, 492.82 501.62, 499.79 508.52, 498.26 506.95, 491.43 500.19, 493.06 501.86, 499.74 508.47, 498.03 506.72, 491.49 500.25, 493.28 502.09, 499.67 508.40, 497.80 506.49, 491.56 500.32, 493.50 502.30, 499.61 508.34, 497.59 506.28, 491.63 500.39, 493.71 502.51, 499.54 508.26, 497.38 506.08, 491.70 500.46, 493.91 502.71, 499.46 508.19, 497.19 505.89, 491.78 500.54, 494.10 502.89, 499.38 508.10, 497.00 505.71, 491.86 500.63, 494.28 503.07, 499.30 508.02, 496.83 505.53, 491.94 500.71, 494.45 503.24, 499.21 507.93, 496.66 505.37, 492.03 500.80, 494.62 503.40, 499.12 507.84, 496.50 505.21, 492.12 500.89, 494.77 503.55, 499.03 507.75, 496.35 505.06, 492.22 500.98, 494.92 503.70, 498.94 507.66, 496.21 504.92, 492.31 501.08, 495.05 503.83, 498.84 507.56, 496.08 504.79, 492.41 501.18, 495.18 503.96, 498.74 507.47, 495.95 504.67, 492.50 501.27, 495.30 504.08, 498.65 507.37, 495.84 504.55, 492.60 501.37, 495.42 504.19, 498.55 507.27, 495.73 504.45, 492.70 501.47, 495.52 504.29, 498.45 507.17, 495.62 504.34, 492.80 501.57, 495.62 504.39, 498.35 507.07, 495.53 504.25, 492.89 501.66, 495.72 504.48, 498.25 506.98, 495.44 504.16, 492.99 501.76, 495.80 504.57, 498.16 506.88, 495.36 504.08, 493.09 501.86, 495.88 504.65, 498.06 506.78, 495.28 504.01, 493.19 501.96, 495.96 504.72, 497.96 506.68, 495.21 503.94, 493.28 502.05, 496.02 504.79, 497.87 506.59, 495.14 503.87, 493.38 502.15, 496.09 504.85, 497.77 506.50, 495.08 503.81, 493.47 502.24, 496.14 504.90, 497.68 506.40, 495.03 503.76, 493.56 502.33, 496.20 504.95, 497.59 506.31, 494.98 503.71, 493.65 502.42, 496.24 505.00, 497.50 506.22, 494.93 503.67, 493.74 502.51, 496.28 505.04, 497.41 506.13, 494.89 503.63, 493.83 502.60, 496.32 505.08, 497.32 506.05, 494.86 503.60, 493.92 502.68, 496.36 505.11, 497.24 505.96, 494.83 503.57, 494.00 502.77, 496.38 505.14, 497.15 505.88, 494.80 503.54, 494.08 502.85, 496.41 505.16, 497.07 505.80, 494.78 503.52, 494.16 502.93, 496.43 505.18, 496.99 505.72, 494.76 503.50, 494.24 503.01, 496.45 505.20, 496.92 505.64, 494.74 503.48, 494.32 503.08, 496.47 505.21, 496.84 505.57, 494.73 503.47, 494.39 503.16, 496.48 505.23, 496.77 505.50, 494.71 503.46, 494.46 503.23, 496.49 505.23, 496.70 505.43, 494.71 503.45, 494.53 503.30, 496.49 505.24, 496.63 505.36, 494.70 503.45, 494.60 503.36, 496.50 505.24, 496.56 505.29, 494.70 503.44, 494.67 503.43, 496.50 505.24, 496.50 505.23, 494.70 503.44, 494.73 503.49, 496.50 505.24, 496.44 505.17, 494.70 503.45, 494.79 503.55, 496.50 505.24, 496.38 505.11, 494.70 503.45, 494.85 503.61, 496.49 505.24, 496.32 505.05, 494.71 503.46, 494.91 503.66, 496.48 505.23, 496.27 505.00, 494.72 503.46, 494.96 503.72, 496.48 505.22, 496.21 504.94, 494.73 503.47, 495.01 503.77, 496.47 505.21, 496.16 504.89, 494.74 503.48, 495.06 503.82, 496.46 505.20, 496.11 504.85, 494.75 503.50, 495.11 503.87, 496.44 505.19, 496.07 504.80, 494.76 503.51, 495.16 503.91, 496.43 505.17, 496.02 504.76, 494.77 503.52, 495.20 503.95, 496.42 505.16, 495.98 504.71, 494.79 503.54, 495.24 504.00, 496.40 505.14, 495.94 504.67, 494.81 503.56, 495.28 504.04, 496.38 505.13, 495.90 504.63, 494.82 503.57, 495.32 504.07, 496.37 505.11, 495.86 504.60, 494.84 503.59, 495.35 504.11, 496.35 505.09, 495.83 504.56, 494.86 503.61, 495.39 504.14, 496.33 505.07, 495.79 504.53, 494.88 503.63, 495.42 504.17, 496.31 505.05, 495.76 504.50, 494.90 503.65, 495.45 504.20, 496.29 505.03, 495.73 504.47, 494.92 503.67, 495.48 504.23, 496.27 505.01, 495.70 504.44, 494.93 503.69, 495.51 504.26, 496.25 504.99, 495.68 504.42, 494.95 503.71, 495.53 504.28, 496.23 504.97, 495.65 504.39, 494.97 503.73, 495.56 504.31, 496.21 504.95, 495.63 504.37, 495.00 503.75, 495.58 504.33, 496.19 504.93, 495.61 504.35, 495.02 503.77, 495.60 504.35, 496.17 504.91, 495.59 504.33, 495.04 503.79, 495.62 504.37, 496.15 504.89, 495.57 504.31, 495.06 503.81, 495.64 504.39, 496.13 504.87, 495.55 504.29, 495.08 503.83, 495.65 504.40, 496.11 504.85, 495.54 504.28, 495.10 503.85, 495.67 504.42, 496.09 504.83, 495.52 504.26, 495.12 503.87, 495.68 504.43, 496.07 504.81, 495.51 504.25, 495.14 503.89, 495.70 504.44, 496.05 504.79, 495.50 504.24, 495.15 503.91, 495.71 504.46, 496.03 504.77, 495.48 504.23, 495.17 503.92, 495.72 504.47, 496.01 504.76, 495.47 504.22, 495.19 503.94, 495.73 504.48, 496.00 504.74, 495.46 504.21, 495.21 503.96, 495.74 504.49, 495.98 504.72, 495.46 504.20, 495.23 503.98, 495.75 504.49, 495.96 504.70, 495.45 504.19, 495.25 504.00, 495.75 504.50, 495.94 504.68, 495.44 504.19, 495.26 504.01, 495.76 504.51, 495.92 504.67, 495.44 504.18, 495.28 504.03, 495.77" style="stroke:black; fill:none" />
</svg>