<svg height="1500" width="1500" xmlns="http://www.w3.org/2000/svg">
<polyline points="721.95, 1437.22 730.42, 1403.26 755.60, 1427.57 721.95, 1437.22" style="stroke:black; fill:none" />
<polyline points="766.50, 1392.67 741.75, 1417.42 732.69, 1383.61 766.50, 1392.67" style="stroke:black; fill:none" />
<polyline points="826.89, 1482.20 807.32, 1453.19 842.24, 1450.75 826.89, 1482.20" style="stroke:black; fill:none" />
<polyline points="800.47, 1465.05 829.83, 1484.11 798.64, 1500.00 800.47, 1465.05" style="stroke:black; fill:none" />
<polyline points="773.05, 1439.47 787.68, 1453.11 768.55, 1458.96 773.05, 1439.47" style="stroke:black; fill:none" />
<polyline points="837.58, 1347.32 817.50, 1375.99 802.71, 1344.27 837.58, 1347.32" style="stroke:black; fill:none" />
<polyline points="866.44, 1363.32 835.83, 1346.35 865.83, 1328.32 866.44, 1363.32" style="stroke:black; fill:none" />
<polyline points="830.30, 1311.71 850.38, 1340.38 815.51, 1343.43 830.30, 1311.71" style="stroke:black; fill:none" />
<polyline points="801.18, 1332.87 817.36, 1321.12 819.45, 1341.01 801.18, 1332.87" style="stroke:black; fill:none" />
<polyline points="733.10, 1309.43 737.83, 1311.06 734.06, 1314.34 733.10, 1309.43" style="stroke:black; fill:none" />
<polyline points="699.94, 1318.94 733.58, 1309.29 725.11, 1343.25 699.94, 1318.94" style="stroke:black; fill:none" />
<polyline points="724.55, 1260.95 722.60, 1265.55 719.59, 1261.56 724.55, 1260.95" style="stroke:black; fill:none" />
<polyline points="622.63, 1278.92 657.09, 1272.84 645.12, 1305.73 622.63, 1278.92" style="stroke:black; fill:none" />
<polyline points="528.64, 1269.04 548.53, 1271.13 536.78, 1287.31 528.64, 1269.04" style="stroke:black; fill:none" />
<polyline points="560.40, 1255.56 541.99, 1263.38 544.43, 1243.53 560.40, 1255.56" style="stroke:black; fill:none" />
<polyline points="639.66, 1204.09 610.30, 1223.16 608.47, 1188.20 639.66, 1204.09" style="stroke:black; fill:none" />
<polyline points="664.11, 1112.81 662.82, 1117.64 659.28, 1114.11 664.11, 1112.81" style="stroke:black; fill:none" />
<polyline points="635.18, 1172.13 643.95, 1154.16 655.13, 1170.74 635.18, 1172.13" style="stroke:black; fill:none" />
<polyline points="671.18, 1171.51 636.18, 1172.12 653.15, 1141.50 671.18, 1171.51" style="stroke:black; fill:none" />
<polyline points="763.40, 1124.52 745.57, 1133.60 746.62, 1113.62 763.40, 1124.52" style="stroke:black; fill:none" />
<polyline points="678.29, 1191.01 694.05, 1178.70 696.83, 1198.50 678.29, 1191.01" style="stroke:black; fill:none" />
<polyline points="647.27, 1196.48 666.96, 1193.01 660.12, 1211.80 647.27, 1196.48" style="stroke:black; fill:none" />
<polyline points="581.67, 1232.84 586.05, 1230.42 585.96, 1235.42 581.67, 1232.84" style="stroke:black; fill:none" />
<polyline points="555.32, 1212.98 571.29, 1225.02 552.88, 1232.83 555.32, 1212.98" style="stroke:black; fill:none" />
<polyline points="584.52, 1224.78 552.07, 1211.67 579.65, 1190.12 584.52, 1224.78" style="stroke:black; fill:none" />
<polyline points="553.76, 1135.43 555.38, 1140.16 550.48, 1139.20 553.76, 1135.43" style="stroke:black; fill:none" />
<polyline points="466.77, 1172.35 485.18, 1164.54 482.74, 1184.39 466.77, 1172.35" style="stroke:black; fill:none" />
<polyline points="414.98, 1222.37 418.57, 1218.89 419.78, 1223.75 414.98, 1222.37" style="stroke:black; fill:none" />
<polyline points="316.11, 1227.55 336.09, 1226.50 327.01, 1244.32 316.11, 1227.55" style="stroke:black; fill:none" />
<polyline points="385.37, 1138.90 382.30, 1142.84 380.42, 1138.20 385.37, 1138.90" style="stroke:black; fill:none" />
<polyline points="447.66, 1056.24 435.63, 1072.21 427.81, 1053.80 447.66, 1056.24" style="stroke:black; fill:none" />
<polyline points="474.45, 1156.21 469.27, 1136.89 488.59, 1142.07 474.45, 1156.21" style="stroke:black; fill:none" />
<polyline points="498.74, 1050.98 497.62, 1055.85 493.96, 1052.44 498.74, 1050.98" style="stroke:black; fill:none" />
<polyline points="517.63, 1148.16 516.68, 1143.25 521.41, 1144.88 517.63, 1148.16" style="stroke:black; fill:none" />
<polyline points="546.89, 1129.88 542.65, 1132.53 542.48, 1127.53 546.89, 1129.88" style="stroke:black; fill:none" />
<polyline points="503.13, 1175.20 527.44, 1150.02 537.09, 1183.67 503.13, 1175.20" style="stroke:black; fill:none" />
<polyline points="471.67, 1173.55 476.67, 1173.81 473.94, 1178.00 471.67, 1173.55" style="stroke:black; fill:none" />
<polyline points="471.67, 1142.05 471.67, 1162.05 454.35, 1152.05 471.67, 1142.05" style="stroke:black; fill:none" />
<polyline points="479.21, 1034.31 476.76, 1069.23 447.75, 1049.66 479.21, 1034.31" style="stroke:black; fill:none" />
<polyline points="378.78, 1009.27 412.74, 1017.74 388.43, 1042.92 378.78, 1009.27" style="stroke:black; fill:none" />
<polyline points="424.63, 961.80 410.73, 976.18 405.22, 956.96 424.63, 961.80" style="stroke:black; fill:none" />
<polyline points="428.08, 1060.74 426.86, 1025.76 457.76, 1042.19 428.08, 1060.74" style="stroke:black; fill:none" />
<polyline points="406.60, 1037.70 420.24, 1052.33 400.75, 1056.83 406.60, 1037.70" style="stroke:black; fill:none" />
<polyline points="424.74, 964.93 423.53, 969.78 419.94, 966.31 424.74, 964.93" style="stroke:black; fill:none" />
<polyline points="492.48, 978.09 487.57, 977.14 490.85, 973.37 492.48, 978.09" style="stroke:black; fill:none" />
<polyline points="404.86, 1013.49 409.49, 1011.62 408.80, 1016.57 404.86, 1013.49" style="stroke:black; fill:none" />
<polyline points="394.84, 942.19 399.71, 976.85 367.26, 963.74 394.84, 942.19" style="stroke:black; fill:none" />
<polyline points="364.96, 959.44 382.28, 949.44 382.28, 969.44 364.96, 959.44" style="stroke:black; fill:none" />
<polyline points="300.01, 996.94 304.34, 994.44 304.34, 999.44 300.01, 996.94" style="stroke:black; fill:none" />
<polyline points="284.41, 923.58 288.57, 943.15 269.55, 936.97 284.41, 923.58" style="stroke:black; fill:none" />
<polyline points="318.46, 856.76 316.19, 861.21 313.47, 857.02 318.46, 856.76" style="stroke:black; fill:none" />
<polyline points="326.56, 821.68 322.06, 841.17 307.44, 827.53 326.56, 821.68" style="stroke:black; fill:none" />
<polyline points="220.20, 840.43 254.67, 834.36 242.70, 867.25 220.20, 840.43" style="stroke:black; fill:none" />
<polyline points="238.95, 807.96 228.95, 825.28 218.95, 807.96 238.95, 807.96" style="stroke:black; fill:none" />
<polyline points="315.87, 877.21 289.86, 853.79 323.14, 842.98 315.87, 877.21" style="stroke:black; fill:none" />
<polyline points="310.86, 841.56 315.73, 876.22 283.28, 863.11 310.86, 841.56" style="stroke:black; fill:none" />
<polyline points="265.91, 753.35 274.99, 771.17 255.02, 770.13 265.91, 753.35" style="stroke:black; fill:none" />
<polyline points="241.30, 811.35 243.25, 806.74 246.26, 810.74 241.30, 811.35" style="stroke:black; fill:none" />
<polyline points="295.84, 909.74 286.14, 892.25 306.14, 892.60 295.84, 909.74" style="stroke:black; fill:none" />
<polyline points="310.62, 816.40 305.15, 850.97 277.95, 828.95 310.62, 816.40" style="stroke:black; fill:none" />
<polyline points="361.61, 731.54 359.03, 735.83 356.61, 731.46 361.61, 731.54" style="stroke:black; fill:none" />
<polyline points="459.65, 717.77 424.99, 722.64 438.10, 690.19 459.65, 717.77" style="stroke:black; fill:none" />
<polyline points="362.46, 698.88 396.82, 705.55 373.86, 731.97 362.46, 698.88" style="stroke:black; fill:none" />
<polyline points="401.68, 638.49 382.62, 667.85 366.73, 636.66 401.68, 638.49" style="stroke:black; fill:none" />
<polyline points="365.88, 642.25 385.77, 640.16 377.63, 658.43 365.88, 642.25" style="stroke:black; fill:none" />
<polyline points="440.33, 714.15 436.73, 710.68 441.54, 709.30 440.33, 714.15" style="stroke:black; fill:none" />
<polyline points="412.97, 695.70 441.99, 715.27 410.53, 730.61 412.97, 695.70" style="stroke:black; fill:none" />
<polyline points="323.09, 724.90 342.12, 718.72 337.96, 738.28 323.09, 724.90" style="stroke:black; fill:none" />
<polyline points="231.30, 761.99 249.85, 754.49 247.06, 774.30 231.30, 761.99" style="stroke:black; fill:none" />
<polyline points="245.61, 835.61 241.80, 815.98 260.71, 822.49 245.61, 835.61" style="stroke:black; fill:none" />
<polyline points="237.82, 798.93 241.98, 818.49 222.95, 812.31 237.82, 798.93" style="stroke:black; fill:none" />
<polyline points="244.69, 834.27 240.87, 814.63 259.78, 821.15 244.69, 834.27" style="stroke:black; fill:none" />
<polyline points="174.53, 850.46 179.40, 849.34 177.94, 854.12 174.53, 850.46" style="stroke:black; fill:none" />
<polyline points="217.95, 796.84 195.93, 824.04 183.39, 791.36 217.95, 796.84" style="stroke:black; fill:none" />
<polyline points="186.87, 775.87 191.01, 778.67 186.52, 780.86 186.87, 775.87" style="stroke:black; fill:none" />
<polyline points="134.79, 821.14 149.89, 808.02 153.70, 827.65 134.79, 821.14" style="stroke:black; fill:none" />
<polyline points="134.79, 857.14 134.79, 852.14 139.12, 854.64 134.79, 857.14" style="stroke:black; fill:none" />
<polyline points="142.89, 822.06 141.76, 826.93 138.11, 823.52 142.89, 822.06" style="stroke:black; fill:none" />
<polyline points="217.79, 825.99 197.81, 824.94 208.71, 808.17 217.79, 825.99" style="stroke:black; fill:none" />
<polyline points="287.00, 806.14 282.19, 807.52 283.40, 802.67 287.00, 806.14" style="stroke:black; fill:none" />
<polyline points="198.20, 773.82 202.89, 775.53 199.06, 778.74 198.20, 773.82" style="stroke:black; fill:none" />
<polyline points="166.20, 716.09 183.17, 746.71 148.17, 746.10 166.20, 716.09" style="stroke:black; fill:none" />
<polyline points="209.50, 666.28 206.22, 670.06 204.59, 665.33 209.50, 666.28" style="stroke:black; fill:none" />
<polyline points="106.57, 655.47 141.37, 659.12 120.80, 687.44 106.57, 655.47" style="stroke:black; fill:none" />
<polyline points="85.80, 627.91 88.81, 631.91 83.85, 632.51 85.80, 627.91" style="stroke:black; fill:none" />
<polyline points="70.68, 658.92 86.02, 627.46 105.59, 656.48 70.68, 658.92" style="stroke:black; fill:none" />
<polyline points="33.32, 655.65 53.25, 657.40 41.77, 673.78 33.32, 655.65" style="stroke:black; fill:none" />
<polyline points="62.25, 714.97 53.49, 697.00 73.44, 698.39 62.25, 714.97" style="stroke:black; fill:none" />
<polyline points="109.31, 765.44 105.90, 761.78 110.77, 760.65 109.31, 765.44" style="stroke:black; fill:none" />
<polyline points="74.82, 766.04 79.82, 765.95 77.39, 770.32 74.82, 766.04" style="stroke:black; fill:none" />
<polyline points="31.49, 823.54 43.52, 807.57 51.34, 825.98 31.49, 823.54" style="stroke:black; fill:none" />
<polyline points="99.39, 745.43 86.27, 760.52 79.76, 741.61 99.39, 745.43" style="stroke:black; fill:none" />
<polyline points="109.12, 715.47 107.58, 720.22 104.23, 716.51 109.12, 715.47" style="stroke:black; fill:none" />
<polyline points="176.86, 702.30 171.95, 703.26 173.58, 698.53 176.86, 702.30" style="stroke:black; fill:none" />
<polyline points="184.07, 770.93 181.98, 751.03 200.25, 759.17 184.07, 770.93" style="stroke:black; fill:none" />
<polyline points="201.09, 804.34 185.20, 773.15 220.15, 774.98 201.09, 804.34" style="stroke:black; fill:none" />
<polyline points="188.88, 768.88 190.51, 773.61 185.60, 772.65 188.88, 768.88" style="stroke:black; fill:none" />
<polyline points="198.30, 876.47 196.55, 856.55 214.68, 865.00 198.30, 876.47" style="stroke:black; fill:none" />
<polyline points="176.13, 848.10 188.45, 863.86 168.64, 866.65 176.13, 848.10" style="stroke:black; fill:none" />
<polyline points="118.68, 896.31 145.49, 873.81 151.57, 908.28 118.68, 896.31" style="stroke:black; fill:none" />
<polyline points="114.92, 860.51 117.01, 880.40 98.74, 872.26 114.92, 860.51" style="stroke:black; fill:none" />
<polyline points="24.48, 820.24 29.04, 822.27 25.00, 825.21 24.48, 820.24" style="stroke:black; fill:none" />
<polyline points="132.33, 814.59 127.33, 814.85 129.60, 810.40 132.33, 814.59" style="stroke:black; fill:none" />
<polyline points="155.86, 789.36 131.99, 814.95 121.75, 781.48 155.86, 789.36" style="stroke:black; fill:none" />
<polyline points="93.20, 795.94 128.01, 792.28 113.77, 824.26 93.20, 795.94" style="stroke:black; fill:none" />
<polyline points="111.74, 765.08 109.17, 769.37 106.74, 765.00 111.74, 765.08" style="stroke:black; fill:none" />
<polyline points="152.24, 813.35 139.38, 798.02 159.08, 794.55 152.24, 813.35" style="stroke:black; fill:none" />
<polyline points="146.49, 747.60 146.92, 752.58 142.39, 750.46 146.49, 747.60" style="stroke:black; fill:none" />
<polyline points="95.21, 793.77 121.22, 770.35 128.50, 804.58 95.21, 793.77" style="stroke:black; fill:none" />
<polyline points="117.84, 767.73 94.88, 794.14 83.49, 761.05 117.84, 767.73" style="stroke:black; fill:none" />
<polyline points=" 5.50, 761.84 40.45, 763.67 21.39, 793.03  5.50, 761.84" style="stroke:black; fill:none" />
<polyline points="111.86, 743.09 106.93, 743.96 108.64, 739.26 111.86, 743.09" style="stroke:black; fill:none" />
<polyline points="138.86, 759.31 121.71, 749.01 139.21, 739.31 138.86, 759.31" style="stroke:black; fill:none" />
<polyline points="107.53, 762.60 142.34, 758.94 128.10, 790.92 107.53, 762.60" style="stroke:black; fill:none" />
<polyline points="218.94, 746.95 213.98, 747.64 215.86, 743.01 218.94, 746.95" style="stroke:black; fill:none" />
<polyline points="234.15, 714.32 232.04, 718.85 229.17, 714.76 234.15, 714.32" style="stroke:black; fill:none" />
<polyline points="239.80, 606.47 239.54, 611.46 235.35, 608.74 239.80, 606.47" style="stroke:black; fill:none" />
<polyline points="269.06, 624.75 264.82, 622.10 269.23, 619.75 269.06, 624.75" style="stroke:black; fill:none" />
<polyline points="241.51, 645.51 269.46, 624.45 273.72, 659.19 241.51, 645.51" style="stroke:black; fill:none" />
<polyline points="210.48, 640.04 244.95, 646.12 222.46, 672.93 210.48, 640.04" style="stroke:black; fill:none" />
<polyline points="181.18, 709.08 183.13, 704.48 186.14, 708.47 181.18, 709.08" style="stroke:black; fill:none" />
<polyline points="145.18, 646.73 162.68, 677.04 127.68, 677.04 145.18, 646.73" style="stroke:black; fill:none" />
<polyline points="175.74, 639.11 156.34, 643.94 161.85, 624.72 175.74, 639.11" style="stroke:black; fill:none" />
<polyline points="108.92, 673.16 113.37, 670.89 113.11, 675.88 108.92, 673.16" style="stroke:black; fill:none" />
<polyline points="129.57, 643.67 118.10, 660.05 109.64, 641.92 129.57, 643.67" style="stroke:black; fill:none" />
<polyline points="165.70, 695.27 154.23, 678.89 174.16, 677.15 165.70, 695.27" style="stroke:black; fill:none" />
<polyline points="106.56, 730.81 110.84, 728.23 110.93, 733.23 106.56, 730.81" style="stroke:black; fill:none" />
<polyline points="35.23, 707.63 68.52, 718.45 42.51, 741.87 35.23, 707.63" style="stroke:black; fill:none" />
<polyline points=" 0.00, 759.86  2.80, 755.72  4.99, 760.21  0.00, 759.86" style="stroke:black; fill:none" />
<polyline points="48.79, 711.07 45.25, 714.61 43.96, 709.78 48.79, 711.07" style="stroke:black; fill:none" />
<polyline points="19.93, 727.07 24.30, 724.65 24.21, 729.65 19.93, 727.07" style="stroke:black; fill:none" />
<polyline points="82.11, 685.13 77.96, 687.93 77.61, 682.94 82.11, 685.13" style="stroke:black; fill:none" />
<polyline points="98.52, 592.07 92.44, 626.54 65.63, 604.04 98.52, 592.07" style="stroke:black; fill:none" />
<polyline points="116.58, 566.26 105.11, 582.65 96.66, 564.52 116.58, 566.26" style="stroke:black; fill:none" />
</svg>