<svg height="1500" width="1500" xmlns="http://www.w3.org/2000/svg">
<polyline points="232.70, 1467.61 224.53, 1480.19 211.95, 1472.02 220.12, 1459.44 232.70, 1467.61" style="stroke:black; fill:none" />
<polyline points="293.63, 1500.00 280.38, 1492.96 287.42, 1479.71 300.67, 1486.76 293.63, 1500.00" style="stroke:black; fill:none" />
<polyline points="298.22, 1467.32 294.57, 1493.32 268.57, 1489.66 272.23, 1463.67 298.22, 1467.32" style="stroke:black; fill:none" />
<polyline points="308.96, 1436.12 307.74, 1439.66 304.20, 1438.44 305.42, 1434.90 308.96, 1436.12" style="stroke:black; fill:none" />
<polyline points="399.98, 1369.99 387.84, 1378.81 379.03, 1366.67 391.16, 1357.86 399.98, 1369.99" style="stroke:black; fill:none" />
<polyline points="400.55, 1402.99 400.10, 1376.74 426.34, 1376.28 426.80, 1402.53 400.55, 1402.99" style="stroke:black; fill:none" />
<polyline points="294.54, 1382.38 309.26, 1385.24 306.40, 1399.97 291.68, 1397.11 294.54, 1382.38" style="stroke:black; fill:none" />
<polyline points="311.99, 1350.89 310.17, 1354.17 306.89, 1352.36 308.71, 1349.08 311.99, 1350.89" style="stroke:black; fill:none" />
<polyline points="408.42, 1292.95 385.92, 1306.47 372.40, 1283.97 394.90, 1270.45 408.42, 1292.95" style="stroke:black; fill:none" />
<polyline points="428.82, 1355.72 427.66, 1352.16 431.23, 1351.00 432.38, 1354.56 428.82, 1355.72" style="stroke:black; fill:none" />
<polyline points="456.45, 1265.35 448.77, 1290.45 423.67, 1282.78 431.34, 1257.68 456.45, 1265.35" style="stroke:black; fill:none" />
<polyline points="478.72, 1168.89 477.87, 1172.54 474.22, 1171.70 475.06, 1168.05 478.72, 1168.89" style="stroke:black; fill:none" />
<polyline points="456.21, 1193.02 474.11, 1173.83 493.31, 1191.73 475.41, 1210.93 456.21, 1193.02" style="stroke:black; fill:none" />
<polyline points="383.44, 1174.88 387.08, 1175.79 386.17, 1179.43 382.53, 1178.52 383.44, 1174.88" style="stroke:black; fill:none" />
<polyline points="336.77, 1221.55 347.38, 1210.94 357.98, 1221.55 347.38, 1232.16 336.77, 1221.55" style="stroke:black; fill:none" />
<polyline points="340.54, 1149.65 339.16, 1175.86 312.95, 1174.49 314.32, 1148.27 340.54, 1149.65" style="stroke:black; fill:none" />
<polyline points="307.85, 1085.49 309.55, 1088.84 306.21, 1090.54 304.51, 1087.20 307.85, 1085.49" style="stroke:black; fill:none" />
<polyline points="306.70, 1052.51 307.22, 1067.51 292.23, 1068.03 291.71, 1053.04 306.70, 1052.51" style="stroke:black; fill:none" />
<polyline points="214.54, 987.99 226.83, 996.59 218.23, 1008.88 205.94, 1000.27 214.54, 987.99" style="stroke:black; fill:none" />
<polyline points="321.74, 1001.15 295.69, 997.95 298.88, 971.90 324.94, 975.10 321.74, 1001.15" style="stroke:black; fill:none" />
<polyline points="293.16, 984.65 315.89, 997.77 302.77, 1020.51 280.04, 1007.38 293.16, 984.65" style="stroke:black; fill:none" />
<polyline points="321.03, 1009.74 318.24, 1007.23 320.75, 1004.45 323.54, 1006.96 321.03, 1009.74" style="stroke:black; fill:none" />
<polyline points="316.64, 1040.94 318.73, 1026.08 333.59, 1028.17 331.50, 1043.02 316.64, 1040.94" style="stroke:black; fill:none" />
<polyline points="218.76, 1086.58 222.16, 1084.99 223.75, 1088.39 220.35, 1089.98 218.76, 1086.58" style="stroke:black; fill:none" />
<polyline points="115.33, 1090.19 130.32, 1089.67 130.84, 1104.66 115.85, 1105.18 115.33, 1090.19" style="stroke:black; fill:none" />
<polyline points="76.85, 984.47 78.13, 988.00 74.61, 989.28 73.33, 985.76 76.85, 984.47" style="stroke:black; fill:none" />
<polyline points="46.57, 993.16 60.99, 989.02 65.12, 1003.44 50.70, 1007.58 46.57, 993.16" style="stroke:black; fill:none" />
<polyline points="107.41, 909.42 105.20, 912.46 102.17, 910.25 104.37, 907.22 107.41, 909.42" style="stroke:black; fill:none" />
<polyline points="131.80, 885.03 121.19, 895.64 110.59, 885.03 121.19, 874.42 131.80, 885.03" style="stroke:black; fill:none" />
<polyline points="62.80, 885.03 77.80, 885.03 77.80, 900.03 62.80, 900.03 62.80, 885.03" style="stroke:black; fill:none" />
<polyline points="21.50, 826.05 36.56, 847.55 15.06, 862.61  0.00, 841.11 21.50, 826.05" style="stroke:black; fill:none" />
<polyline points="42.17, 802.28 32.33, 813.60 21.01, 803.76 30.85, 792.44 42.17, 802.28" style="stroke:black; fill:none" />
</svg>