<svg height="1500" width="1500" xmlns="http://www.w3.org/2000/svg">
<polyline points="757.68, 1296.77 749.14, 1277.58 764.74, 1263.53 782.93, 1274.03 778.56, 1294.57 757.68, 1296.77" style="stroke:black; fill:none" />
<polyline points="671.35, 1335.20 674.09, 1333.98 676.09, 1336.21 674.59, 1338.81 671.66, 1338.19 671.35, 1335.20" style="stroke:black; fill:none" />
<polyline points="614.25, 1361.83 625.13, 1356.76 633.31, 1365.53 627.49, 1376.03 615.71, 1373.74 614.25, 1361.83" style="stroke:black; fill:none" />
<polyline points="675.52, 1456.18 668.99, 1446.11 676.54, 1436.79 687.74, 1441.09 687.11, 1453.07 675.52, 1456.18" style="stroke:black; fill:none" />
<polyline points="656.11, 1383.73 661.55, 1404.02 643.93, 1415.46 627.61, 1402.24 635.14, 1382.64 656.11, 1383.73" style="stroke:black; fill:none" />
<polyline points="617.53, 1326.53 619.20, 1329.02 617.36, 1331.38 614.54, 1330.36 614.64, 1327.36 617.53, 1326.53" style="stroke:black; fill:none" />
<polyline points="563.90, 1283.11 566.23, 1285.00 565.16, 1287.80 562.16, 1287.64 561.39, 1284.74 563.90, 1283.11" style="stroke:black; fill:none" />
<polyline points="596.90, 1282.53 575.90, 1282.90 569.06, 1263.04 585.84, 1250.40 603.04, 1262.45 596.90, 1282.53" style="stroke:black; fill:none" />
<polyline points="624.48, 1259.39 615.28, 1267.10 605.11, 1260.75 608.01, 1249.10 619.98, 1248.27 624.48, 1259.39" style="stroke:black; fill:none" />
<polyline points="600.37, 1230.66 613.87, 1246.75 602.74, 1264.56 582.36, 1259.48 580.90, 1238.53 600.37, 1230.66" style="stroke:black; fill:none" />
<polyline points="571.79, 1214.16 589.98, 1224.66 585.61, 1245.21 564.73, 1247.40 556.19, 1228.22 571.79, 1214.16" style="stroke:black; fill:none" />
<polyline points="665.13, 1228.95 662.17, 1228.48 661.70, 1225.52 664.37, 1224.15 666.49, 1226.27 665.13, 1228.95" style="stroke:black; fill:none" />
<polyline points="700.53, 1326.21 699.50, 1323.39 701.87, 1321.54 704.35, 1323.22 703.53, 1326.10 700.53, 1326.21" style="stroke:black; fill:none" />
<polyline points="757.31, 1407.30 755.59, 1404.84 757.40, 1402.45 760.23, 1403.43 760.18, 1406.42 757.31, 1407.30" style="stroke:black; fill:none" />
<polyline points="729.22, 1476.84 733.71, 1465.71 745.68, 1466.55 748.59, 1478.20 738.41, 1484.55 729.22, 1476.84" style="stroke:black; fill:none" />
<polyline points="694.14, 1468.74 697.06, 1469.42 697.32, 1472.41 694.56, 1473.58 692.59, 1471.31 694.14, 1468.74" style="stroke:black; fill:none" />
<polyline points="703.35, 1438.62 702.47, 1441.49 699.47, 1441.54 698.50, 1438.70 700.89, 1436.90 703.35, 1438.62" style="stroke:black; fill:none" />
<polyline points="648.24, 1480.14 665.01, 1467.51 682.22, 1479.55 676.08, 1499.63 655.08, 1500.00 648.24, 1480.14" style="stroke:black; fill:none" />
<polyline points="608.50, 1416.54 614.86, 1426.72 607.14, 1435.91 596.02, 1431.41 596.86, 1419.44 608.50, 1416.54" style="stroke:black; fill:none" />
<polyline points="588.65, 1347.33 589.48, 1350.21 586.99, 1351.89 584.63, 1350.04 585.65, 1347.22 588.65, 1347.33" style="stroke:black; fill:none" />
<polyline points="542.18, 1259.92 543.58, 1262.57 541.50, 1264.72 538.80, 1263.41 539.22, 1260.44 542.18, 1259.92" style="stroke:black; fill:none" />
<polyline points="497.04, 1200.02 509.68, 1216.79 497.63, 1233.99 477.55, 1227.85 477.18, 1206.86 497.04, 1200.02" style="stroke:black; fill:none" />
<polyline points="568.36, 1262.02 566.09, 1260.05 567.27, 1257.29 570.26, 1257.55 570.93, 1260.47 568.36, 1262.02" style="stroke:black; fill:none" />
<polyline points="597.35, 1274.33 594.59, 1273.15 594.85, 1270.17 597.78, 1269.49 599.32, 1272.06 597.35, 1274.33" style="stroke:black; fill:none" />
<polyline points="645.62, 1229.31 630.27, 1243.64 611.90, 1233.45 615.91, 1212.84 636.75, 1210.28 645.62, 1229.31" style="stroke:black; fill:none" />
<polyline points="676.89, 1233.15 656.05, 1230.59 652.04, 1209.98 670.41, 1199.80 685.76, 1214.12 676.89, 1233.15" style="stroke:black; fill:none" />
<polyline points="630.72, 1181.88 638.75, 1190.79 632.75, 1201.19 621.01, 1198.69 619.76, 1186.76 630.72, 1181.88" style="stroke:black; fill:none" />
<polyline points="590.46, 1122.19 592.14, 1124.67 590.29, 1127.04 587.47, 1126.01 587.57, 1123.01 590.46, 1122.19" style="stroke:black; fill:none" />
<polyline points="600.34, 1028.20 598.14, 1049.09 577.60, 1053.45 567.10, 1035.27 581.15, 1019.66 600.34, 1028.20" style="stroke:black; fill:none" />
<polyline points="567.01, 1019.27 578.60, 1022.38 579.23, 1034.36 568.03, 1038.66 560.48, 1029.34 567.01, 1019.27" style="stroke:black; fill:none" />
<polyline points="486.58, 954.14 495.90, 961.69 491.60, 972.89 479.62, 972.27 476.51, 960.67 486.58, 954.14" style="stroke:black; fill:none" />
<polyline points="415.90, 967.88 436.51, 963.87 446.69, 982.24 432.37, 997.60 413.34, 988.72 415.90, 967.88" style="stroke:black; fill:none" />
<polyline points="445.86, 977.61 425.89, 971.12 425.89, 950.12 445.86, 943.63 458.20, 960.62 445.86, 977.61" style="stroke:black; fill:none" />
<polyline points="455.18, 1012.38 454.40, 1009.49 456.91, 1007.85 459.25, 1009.74 458.17, 1012.54 455.18, 1012.38" style="stroke:black; fill:none" />
<polyline points="395.61, 991.87 398.44, 992.85 398.39, 995.85 395.52, 996.73 393.80, 994.27 395.61, 991.87" style="stroke:black; fill:none" />
<polyline points="358.16, 993.84 370.14, 993.21 374.44, 1004.41 365.12, 1011.96 355.05, 1005.43 358.16, 993.84" style="stroke:black; fill:none" />
<polyline points="267.64, 943.66 270.26, 945.11 269.69, 948.06 266.71, 948.42 265.44, 945.70 267.64, 943.66" style="stroke:black; fill:none" />
<polyline points="168.15, 915.13 171.03, 915.96 171.13, 918.96 168.31, 919.98 166.47, 917.62 168.15, 915.13" style="stroke:black; fill:none" />
<polyline points="136.00, 934.44 146.29, 928.26 155.34, 936.14 150.66, 947.18 138.70, 946.14 136.00, 934.44" style="stroke:black; fill:none" />
<polyline points="62.92, 951.32 65.85, 950.64 67.39, 953.21 65.42, 955.48 62.66, 954.30 62.92, 951.32" style="stroke:black; fill:none" />
<polyline points="58.72, 917.07 59.08, 920.05 56.37, 921.32 54.32, 919.12 55.77, 916.50 58.72, 917.07" style="stroke:black; fill:none" />
<polyline points="87.27, 930.38 84.55, 929.12 84.91, 926.14 87.86, 925.57 89.31, 928.19 87.27, 930.38" style="stroke:black; fill:none" />
<polyline points="76.47, 862.23 76.94, 865.20 74.27, 866.56 72.15, 864.44 73.51, 861.77 76.47, 862.23" style="stroke:black; fill:none" />
<polyline points="85.40, 828.91 79.97, 849.19 59.00, 850.29 51.47, 830.69 67.79, 817.47 85.40, 828.91" style="stroke:black; fill:none" />
<polyline points="193.39, 830.79 181.39, 830.59 177.88, 819.11 187.71, 812.23 197.29, 819.45 193.39, 830.79" style="stroke:black; fill:none" />
<polyline points="157.00, 839.87 159.91, 839.14 161.50, 841.69 159.57, 843.98 156.79, 842.86 157.00, 839.87" style="stroke:black; fill:none" />
<polyline points="162.73, 807.37 162.21, 810.32 159.24, 810.74 157.92, 808.04 160.08, 805.96 162.73, 807.37" style="stroke:black; fill:none" />
<polyline points="141.22, 838.09 148.10, 828.26 159.58, 831.77 159.79, 843.76 148.44, 847.67 141.22, 838.09" style="stroke:black; fill:none" />
<polyline points="121.47, 736.49 123.76, 748.27 113.27, 754.09 104.49, 745.90 109.56, 735.03 121.47, 736.49" style="stroke:black; fill:none" />
<polyline points="193.86, 675.74 184.67, 683.46 174.50, 677.10 177.40, 665.46 189.37, 664.62 193.86, 675.74" style="stroke:black; fill:none" />
<polyline points="161.07, 657.56 163.69, 659.02 163.12, 661.96 160.14, 662.33 158.87, 659.61 161.07, 657.56" style="stroke:black; fill:none" />
<polyline points="140.46, 763.58 144.47, 742.97 165.31, 740.41 174.18, 759.44 158.83, 773.76 140.46, 763.58" style="stroke:black; fill:none" />
<polyline points="64.76, 692.99 66.96, 695.04 65.69, 697.76 62.71, 697.39 62.14, 694.45 64.76, 692.99" style="stroke:black; fill:none" />
<polyline points="136.09, 716.17 133.24, 715.24 133.24, 712.24 136.09, 711.32 137.86, 713.74 136.09, 716.17" style="stroke:black; fill:none" />
<polyline points="97.94, 655.11 104.30, 665.29 96.58, 674.48 85.46, 669.98 86.29, 658.01 97.94, 655.11" style="stroke:black; fill:none" />
<polyline points="121.54, 719.95 117.43, 708.67 126.89, 701.28 136.84, 707.99 133.53, 719.53 121.54, 719.95" style="stroke:black; fill:none" />
<polyline points="156.31, 734.00 145.18, 729.50 146.02, 717.53 157.66, 714.63 164.02, 724.80 156.31, 734.00" style="stroke:black; fill:none" />
<polyline points="44.42, 722.24 56.36, 723.49 58.85, 735.23 48.46, 741.23 39.54, 733.20 44.42, 722.24" style="stroke:black; fill:none" />
<polyline points="17.61, 700.53 33.93, 713.74 26.41, 733.35  5.44, 732.25  0.00, 711.96 17.61, 700.53" style="stroke:black; fill:none" />
<polyline points="51.44, 712.84 48.62, 711.81 48.73, 708.81 51.61, 707.99 53.29, 710.47 51.44, 712.84" style="stroke:black; fill:none" />
<polyline points="35.03, 805.90 35.55, 802.95 38.52, 802.53 39.84, 805.23 37.68, 807.31 35.03, 805.90" style="stroke:black; fill:none" />
<polyline points="69.27, 794.78 49.30, 801.27 36.95, 784.28 49.30, 767.29 69.27, 773.78 69.27, 794.78" style="stroke:black; fill:none" />
<polyline points="79.93, 827.59 76.22, 816.18 85.93, 809.12 95.64, 816.18 91.93, 827.59 79.93, 827.59" style="stroke:black; fill:none" />
<polyline points="102.18, 759.11 95.69, 779.09 74.69, 779.09 68.20, 759.11 85.19, 746.77 102.18, 759.11" style="stroke:black; fill:none" />
<polyline points="213.84, 772.82 210.86, 772.46 210.29, 769.51 212.91, 768.06 215.11, 770.10 213.84, 772.82" style="stroke:black; fill:none" />
<polyline points="308.30, 825.18 289.93, 815.00 293.94, 794.39 314.78, 791.83 323.66, 810.86 308.30, 825.18" style="stroke:black; fill:none" />
<polyline points="259.10, 881.79 266.97, 872.73 278.01, 877.42 276.97, 889.37 265.28, 892.07 259.10, 881.79" style="stroke:black; fill:none" />
<polyline points="234.70, 857.39 249.55, 872.24 240.02, 890.95 219.27, 887.67 215.99, 866.92 234.70, 857.39" style="stroke:black; fill:none" />
<polyline points="291.80, 830.77 289.08, 832.03 287.03, 829.84 288.49, 827.22 291.43, 827.79 291.80, 830.77" style="stroke:black; fill:none" />
<polyline points="229.14, 824.18 232.13, 824.49 232.75, 827.43 230.15, 828.93 227.92, 826.92 229.14, 824.18" style="stroke:black; fill:none" />
<polyline points="229.14, 855.68 229.14, 852.68 232.00, 851.75 233.76, 854.18 232.00, 856.61 229.14, 855.68" style="stroke:black; fill:none" />
<polyline points="226.40, 824.30 228.23, 845.22 208.90, 853.43 195.12, 837.58 205.94, 819.58 226.40, 824.30" style="stroke:black; fill:none" />
<polyline points="203.12, 925.15 207.84, 904.69 228.76, 902.86 236.96, 922.19 221.12, 935.96 203.12, 925.15" style="stroke:black; fill:none" />
<polyline points="271.09, 990.79 268.93, 988.71 270.25, 986.01 273.22, 986.43 273.74, 989.38 271.09, 990.79" style="stroke:black; fill:none" />
<polyline points="382.50, 1006.45 370.61, 1004.78 368.53, 992.96 379.13, 987.33 387.76, 995.66 382.50, 1006.45" style="stroke:black; fill:none" />
<polyline points="318.98, 1033.41 338.31, 1025.21 352.09, 1041.05 341.28, 1059.05 320.81, 1054.33 318.98, 1033.41" style="stroke:black; fill:none" />
<polyline points="245.80, 960.23 254.28, 968.71 248.83, 979.40 236.98, 977.53 235.11, 965.67 245.80, 960.23" style="stroke:black; fill:none" />
<polyline points="299.72, 1043.25 288.28, 1025.64 301.49, 1009.32 321.10, 1016.85 320.00, 1037.82 299.72, 1043.25" style="stroke:black; fill:none" />
<polyline points="363.16, 1061.45 360.28, 1060.62 360.17, 1057.62 362.99, 1056.59 364.84, 1058.96 363.16, 1061.45" style="stroke:black; fill:none" />
<polyline points="394.61, 1081.87 392.09, 1080.24 392.87, 1077.34 395.87, 1077.18 396.94, 1079.98 394.61, 1081.87" style="stroke:black; fill:none" />
<polyline points="497.34, 1094.48 485.43, 1093.02 483.14, 1081.24 493.63, 1075.42 502.41, 1083.61 497.34, 1094.48" style="stroke:black; fill:none" />
<polyline points="481.59, 1121.76 483.09, 1119.16 486.02, 1119.79 486.34, 1122.77 483.60, 1123.99 481.59, 1121.76" style="stroke:black; fill:none" />
<polyline points="516.07, 1122.97 513.07, 1122.86 512.24, 1119.98 514.73, 1118.30 517.09, 1120.15 516.07, 1122.97" style="stroke:black; fill:none" />
<polyline points="428.64, 1193.77 444.96, 1180.55 462.57, 1191.99 457.14, 1212.27 436.16, 1213.37 428.64, 1193.77" style="stroke:black; fill:none" />
<polyline points="462.25, 1201.53 450.56, 1198.83 449.52, 1186.87 460.56, 1182.18 468.43, 1191.24 462.25, 1201.53" style="stroke:black; fill:none" />
<polyline points="458.99, 1164.17 460.03, 1176.12 448.99, 1180.81 441.11, 1171.76 447.29, 1161.47 458.99, 1164.17" style="stroke:black; fill:none" />
<polyline points="422.76, 1154.46 425.66, 1155.24 425.82, 1158.24 423.02, 1159.31 421.13, 1156.98 422.76, 1154.46" style="stroke:black; fill:none" />
<polyline points="322.34, 1129.42 333.98, 1132.33 334.82, 1144.30 323.69, 1148.79 315.98, 1139.60 322.34, 1129.42" style="stroke:black; fill:none" />
<polyline points="287.57, 1022.43 288.50, 1025.28 286.07, 1027.05 283.65, 1025.28 284.57, 1022.43 287.57, 1022.43" style="stroke:black; fill:none" />
<polyline points="391.39, 1052.20 388.51, 1051.37 388.40, 1048.37 391.22, 1047.35 393.07, 1049.71 391.39, 1052.20" style="stroke:black; fill:none" />
<polyline points="349.25, 1156.51 357.11, 1137.04 378.06, 1138.50 383.14, 1158.88 365.33, 1170.01 349.25, 1156.51" style="stroke:black; fill:none" />
<polyline points="416.20, 1173.20 404.55, 1170.30 403.72, 1158.33 414.84, 1153.83 422.56, 1163.02 416.20, 1173.20" style="stroke:black; fill:none" />
<polyline points="446.44, 1111.18 437.24, 1130.06 416.44, 1127.14 412.80, 1106.45 431.34, 1096.60 446.44, 1111.18" style="stroke:black; fill:none" />
<polyline points="428.85, 1222.30 429.32, 1219.34 432.28, 1218.87 433.64, 1221.54 431.52, 1223.66 428.85, 1222.30" style="stroke:black; fill:none" />
<polyline points="400.86, 1204.81 418.67, 1215.94 413.59, 1236.32 392.64, 1237.78 384.77, 1218.31 400.86, 1204.81" style="stroke:black; fill:none" />
<polyline points="402.75, 1096.83 402.54, 1108.83 391.06, 1112.33 384.18, 1102.50 391.40, 1092.92 402.75, 1096.83" style="stroke:black; fill:none" />
<polyline points="376.23, 1070.31 378.35, 1072.43 376.99, 1075.11 374.03, 1074.64 373.56, 1071.67 376.23, 1070.31" style="stroke:black; fill:none" />
<polyline points="264.57, 1084.02 276.48, 1082.56 281.55, 1093.43 272.77, 1101.62 262.28, 1095.80 264.57, 1084.02" style="stroke:black; fill:none" />
<polyline points="336.39, 1089.04 333.40, 1088.83 332.67, 1085.92 335.22, 1084.33 337.52, 1086.26 336.39, 1089.04" style="stroke:black; fill:none" />
<polyline points="304.41, 1187.48 310.90, 1167.51 331.90, 1167.51 338.39, 1187.48 321.40, 1199.82 304.41, 1187.48" style="stroke:black; fill:none" />
<polyline points="279.68, 1126.28 284.18, 1137.41 274.99, 1145.12 264.81, 1138.76 267.71, 1127.12 279.68, 1126.28" style="stroke:black; fill:none" />
<polyline points="386.36, 1143.18 383.39, 1142.71 382.92, 1139.75 385.60, 1138.38 387.72, 1140.51 386.36, 1143.18" style="stroke:black; fill:none" />
<polyline points="357.19, 1080.64 362.27, 1091.52 353.49, 1099.70 342.99, 1093.89 345.28, 1082.11 357.19, 1080.64" style="stroke:black; fill:none" />
<polyline points="329.91, 985.48 330.73, 988.36 328.25, 990.04 325.88, 988.19 326.91, 985.37 329.91, 985.48" style="stroke:black; fill:none" />
<polyline points="378.70, 936.69 363.85, 951.54 345.14, 942.00 348.42, 921.26 369.16, 917.98 378.70, 936.69" style="stroke:black; fill:none" />
<polyline points="307.84, 855.18 315.71, 864.24 309.53, 874.52 297.84, 871.82 296.80, 859.87 307.84, 855.18" style="stroke:black; fill:none" />
<polyline points="292.19, 966.58 295.11, 945.79 315.79, 942.14 325.65, 960.68 311.06, 975.79 292.19, 966.58" style="stroke:black; fill:none" />
<polyline points="271.60, 1063.42 275.97, 1042.88 296.85, 1040.69 305.39, 1059.87 289.79, 1073.92 271.60, 1063.42" style="stroke:black; fill:none" />
<polyline points="238.28, 1072.35 258.56, 1066.92 270.00, 1084.53 256.78, 1100.85 237.18, 1093.32 238.28, 1072.35" style="stroke:black; fill:none" />
<polyline points="246.26, 1104.37 245.54, 1101.46 248.08, 1099.87 250.38, 1101.80 249.25, 1104.58 246.26, 1104.37" style="stroke:black; fill:none" />
<polyline points="268.34, 1079.85 254.29, 1095.45 235.11, 1086.91 237.30, 1066.03 257.84, 1061.66 268.34, 1079.85" style="stroke:black; fill:none" />
<polyline points="368.48, 1039.39 365.70, 1040.51 363.77, 1038.21 365.36, 1035.67 368.27, 1036.40 368.48, 1039.39" style="stroke:black; fill:none" />
<polyline points="381.40, 1071.38 376.91, 1060.25 386.10, 1052.54 396.28, 1058.90 393.37, 1070.54 381.40, 1071.38" style="stroke:black; fill:none" />
<polyline points="404.06, 1049.50 401.90, 1051.58 399.25, 1050.17 399.78, 1047.22 402.75, 1046.80 404.06, 1049.50" style="stroke:black; fill:none" />
<polyline points="456.29, 1014.27 446.34, 1020.98 436.89, 1013.59 440.99, 1002.31 452.98, 1002.73 456.29, 1014.27" style="stroke:black; fill:none" />
<polyline points="401.19, 983.72 403.81, 985.18 403.24, 988.12 400.26, 988.49 399.00, 985.77 401.19, 983.72" style="stroke:black; fill:none" />
<polyline points="409.29, 948.65 408.61, 951.57 405.62, 951.83 404.45, 949.07 406.72, 947.10 409.29, 948.65" style="stroke:black; fill:none" />
<polyline points="476.78, 934.30 473.85, 934.92 472.35, 932.33 474.35, 930.10 477.09, 931.32 476.78, 934.30" style="stroke:black; fill:none" />
<polyline points="464.98, 963.51 466.10, 960.72 469.10, 960.93 469.82, 963.84 467.28, 965.43 464.98, 963.51" style="stroke:black; fill:none" />
<polyline points="384.72, 1035.77 400.33, 1021.72 418.51, 1032.22 414.15, 1052.76 393.26, 1054.96 384.72, 1035.77" style="stroke:black; fill:none" />
<polyline points="385.82, 1067.25 385.09, 1046.27 404.82, 1039.08 417.75, 1055.63 406.01, 1073.04 385.82, 1067.25" style="stroke:black; fill:none" />
<polyline points="387.13, 992.26 386.76, 1013.26 366.68, 1019.40 354.63, 1002.20 367.27, 985.43 387.13, 992.26" style="stroke:black; fill:none" />
<polyline points="442.23, 950.74 425.46, 963.38 408.26, 951.33 414.40, 931.25 435.40, 930.88 442.23, 950.74" style="stroke:black; fill:none" />
<polyline points="499.96, 982.74 489.46, 976.92 491.75, 965.14 503.66, 963.68 508.74, 974.55 499.96, 982.74" style="stroke:black; fill:none" />
<polyline points="445.62, 935.50 454.68, 943.37 449.99, 954.42 438.03, 953.37 435.33, 941.68 445.62, 935.50" style="stroke:black; fill:none" />
<polyline points="370.90, 870.55 379.96, 878.42 375.27, 889.47 363.32, 888.42 360.62, 876.73 370.90, 870.55" style="stroke:black; fill:none" />
<polyline points="400.87, 811.74 391.33, 830.46 370.59, 827.17 367.31, 806.43 386.02, 796.89 400.87, 811.74" style="stroke:black; fill:none" />
<polyline points="394.28, 717.47 395.74, 738.42 376.27, 746.29 362.77, 730.20 373.90, 712.39 394.28, 717.47" style="stroke:black; fill:none" />
<polyline points="425.28, 825.62 419.50, 805.43 436.91, 793.69 453.45, 806.62 446.27, 826.35 425.28, 825.62" style="stroke:black; fill:none" />
<polyline points="437.49, 861.07 433.59, 849.73 443.17, 842.51 453.00, 849.39 449.49, 860.86 437.49, 861.07" style="stroke:black; fill:none" />
<polyline points="469.28, 877.97 466.63, 876.57 467.15, 873.61 470.12, 873.19 471.44, 875.89 469.28, 877.97" style="stroke:black; fill:none" />
<polyline points="485.72, 911.68 484.40, 908.98 486.56, 906.90 489.21, 908.31 488.69, 911.26 485.72, 911.68" style="stroke:black; fill:none" />
<polyline points="445.16, 967.50 457.50, 950.51 477.48, 957.00 477.48, 978.00 457.50, 984.49 445.16, 967.50" style="stroke:black; fill:none" />
<polyline points="417.80, 949.05 435.21, 960.79 429.42, 980.98 408.44, 981.71 401.25, 961.98 417.80, 949.05" style="stroke:black; fill:none" />
<polyline points="508.93, 910.37 489.60, 918.57 475.83, 902.72 486.64, 884.72 507.10, 889.45 508.93, 910.37" style="stroke:black; fill:none" />
<polyline points="442.11, 843.54 444.23, 845.67 442.87, 848.34 439.91, 847.87 439.44, 844.91 442.11, 843.54" style="stroke:black; fill:none" />
<polyline points="410.13, 941.98 413.84, 930.57 425.84, 930.57 429.54, 941.98 419.84, 949.03 410.13, 941.98" style="stroke:black; fill:none" />
<polyline points="435.22, 969.85 421.17, 954.24 431.67, 936.05 452.21, 940.42 454.40, 961.30 435.22, 969.85" style="stroke:black; fill:none" />
<polyline points="355.97, 918.38 366.03, 924.91 362.92, 936.50 350.94, 937.13 346.64, 925.93 355.97, 918.38" style="stroke:black; fill:none" />
<polyline points="368.27, 889.38 367.10, 892.14 364.11, 891.88 363.44, 888.96 366.01, 887.41 368.27, 889.38" style="stroke:black; fill:none" />
<polyline points="285.62, 935.20 296.12, 929.38 304.89, 937.56 299.82, 948.44 287.91, 946.98 285.62, 935.20" style="stroke:black; fill:none" />
<polyline points="315.87, 997.21 306.66, 978.34 321.77, 963.75 340.31, 973.61 336.67, 994.29 315.87, 997.21" style="stroke:black; fill:none" />
<polyline points="288.99, 927.19 293.29, 938.40 283.97, 945.95 273.90, 939.41 277.01, 927.82 288.99, 927.19" style="stroke:black; fill:none" />
<polyline points="386.06, 974.54 367.19, 965.33 370.11, 944.54 390.79, 940.89 400.65, 959.43 386.06, 974.54" style="stroke:black; fill:none" />
<polyline points="400.13, 941.40 398.96, 944.16 395.97, 943.90 395.29, 940.98 397.86, 939.43 400.13, 941.40" style="stroke:black; fill:none" />
<polyline points="474.95, 936.17 471.95, 936.38 470.83, 933.60 473.13, 931.67 475.67, 933.26 474.95, 936.17" style="stroke:black; fill:none" />
<polyline points="464.93, 864.87 466.60, 876.75 455.81, 882.01 447.47, 873.38 453.11, 862.79 464.93, 864.87" style="stroke:black; fill:none" />
<polyline points="490.58, 794.39 486.47, 805.67 474.48, 805.25 471.17, 793.71 481.12, 787.00 490.58, 794.39" style="stroke:black; fill:none" />
<polyline points="469.42, 823.52 481.76, 806.53 501.73, 813.02 501.73, 834.02 481.76, 840.51 469.42, 823.52" style="stroke:black; fill:none" />
<polyline points="579.03, 798.21 576.11, 798.88 574.57, 796.31 576.53, 794.05 579.29, 795.22 579.03, 798.21" style="stroke:black; fill:none" />
<polyline points="619.67, 746.20 617.82, 748.57 615.00, 747.54 615.11, 744.54 617.99, 743.71 619.67, 746.20" style="stroke:black; fill:none" />
<polyline points="613.66, 715.28 617.66, 735.89 599.30, 746.08 583.94, 731.75 592.81, 712.72 613.66, 715.28" style="stroke:black; fill:none" />
<polyline points="644.64, 657.01 639.01, 667.60 627.19, 665.52 625.52, 653.63 636.31, 648.37 644.64, 657.01" style="stroke:black; fill:none" />
<polyline points="739.91, 697.45 737.15, 696.27 737.41, 693.29 740.34, 692.61 741.88, 695.18 739.91, 697.45" style="stroke:black; fill:none" />
<polyline points="706.05, 690.86 717.83, 693.15 719.29, 705.06 708.41, 710.13 700.23, 701.36 706.05, 690.86" style="stroke:black; fill:none" />
<polyline points="680.59, 716.32 682.71, 714.20 685.39, 715.56 684.92, 718.52 681.95, 718.99 680.59, 716.32" style="stroke:black; fill:none" />
<polyline points="649.09, 770.88 655.09, 760.49 666.83, 762.98 668.08, 774.92 657.12, 779.80 649.09, 770.88" style="stroke:black; fill:none" />
<polyline points="613.10, 770.25 616.10, 770.30 616.97, 773.17 614.52, 774.89 612.12, 773.09 613.10, 770.25" style="stroke:black; fill:none" />
<polyline points="626.20, 831.87 621.83, 811.33 640.02, 800.83 655.62, 814.88 647.08, 834.07 626.20, 831.87" style="stroke:black; fill:none" />
<polyline points="605.04, 861.00 612.09, 851.29 623.50, 855.00 623.50, 867.00 612.09, 870.71 605.04, 861.00" style="stroke:black; fill:none" />
<polyline points="690.68, 821.06 679.81, 826.13 671.62, 817.36 677.44, 806.86 689.22, 809.15 690.68, 821.06" style="stroke:black; fill:none" />
<polyline points="762.58, 746.61 754.24, 755.24 743.46, 749.98 745.13, 738.10 756.95, 736.01 762.58, 746.61" style="stroke:black; fill:none" />
<polyline points="739.14, 814.69 745.97, 794.83 766.97, 795.20 773.11, 815.28 755.91, 827.32 739.14, 814.69" style="stroke:black; fill:none" />
<polyline points="753.45, 741.06 751.16, 752.84 739.25, 754.31 734.18, 743.43 742.95, 735.25 753.45, 741.06" style="stroke:black; fill:none" />
<polyline points="831.14, 666.04 816.03, 680.63 797.49, 670.77 801.14, 650.09 821.93, 647.17 831.14, 666.04" style="stroke:black; fill:none" />
<polyline points="941.18, 642.65 920.64, 647.02 910.14, 628.83 924.19, 613.22 943.37, 621.77 941.18, 642.65" style="stroke:black; fill:none" />
<polyline points="971.37, 623.04 968.86, 624.68 966.52, 622.79 967.60, 619.99 970.59, 620.15 971.37, 623.04" style="stroke:black; fill:none" />
<polyline points="1037.02, 691.02 1034.93, 688.86 1036.34, 686.22 1039.30, 686.74 1039.71, 689.71 1037.02, 691.02" style="stroke:black; fill:none" />
<polyline points="1068.28, 676.44 1049.25, 685.32 1034.93, 669.96 1045.11, 651.59 1065.72, 655.60 1068.28, 676.44" style="stroke:black; fill:none" />
<polyline points="1018.47, 633.14 1034.32, 646.92 1026.12, 666.25 1005.20, 664.42 1000.47, 643.96 1018.47, 633.14" style="stroke:black; fill:none" />
<polyline points="1055.56, 724.93 1047.69, 705.46 1063.78, 691.96 1081.59, 703.09 1076.51, 723.47 1055.56, 724.93" style="stroke:black; fill:none" />
<polyline points="1007.30, 765.43 1009.60, 763.50 1012.14, 765.09 1011.41, 768.00 1008.42, 768.21 1007.30, 765.43" style="stroke:black; fill:none" />
<polyline points="979.17, 831.70 987.37, 812.37 1008.29, 814.20 1013.02, 834.67 995.01, 845.48 979.17, 831.70" style="stroke:black; fill:none" />
<polyline points="1083.96, 857.83 1081.05, 857.11 1080.84, 854.11 1083.62, 852.99 1085.55, 855.29 1083.96, 857.83" style="stroke:black; fill:none" />
<polyline points="1107.49, 883.06 1105.44, 880.87 1106.90, 878.25 1109.84, 878.82 1110.21, 881.80 1107.49, 883.06" style="stroke:black; fill:none" />
<polyline points="1204.32, 862.48 1201.39, 863.10 1199.89, 860.51 1201.90, 858.28 1204.64, 859.50 1204.32, 862.48" style="stroke:black; fill:none" />
<polyline points="1236.31, 764.05 1232.60, 775.46 1220.60, 775.46 1216.89, 764.05 1226.60, 756.99 1236.31, 764.05" style="stroke:black; fill:none" />
<polyline points="1247.08, 793.65 1239.90, 773.91 1256.45, 760.98 1273.86, 772.73 1268.07, 792.91 1247.08, 793.65" style="stroke:black; fill:none" />
<polyline points="1265.87, 764.71 1254.43, 782.32 1234.15, 776.89 1233.05, 755.92 1252.65, 748.39 1265.87, 764.71" style="stroke:black; fill:none" />
<polyline points="1179.54, 803.15 1198.72, 794.61 1212.78, 810.21 1202.28, 828.40 1181.74, 824.03 1179.54, 803.15" style="stroke:black; fill:none" />
<polyline points="1146.65, 788.51 1149.39, 789.73 1149.08, 792.71 1146.15, 793.33 1144.65, 790.74 1146.65, 788.51" style="stroke:black; fill:none" />
<polyline points="1199.01, 882.97 1197.56, 880.34 1199.60, 878.15 1202.32, 879.42 1201.96, 882.39 1199.01, 882.97" style="stroke:black; fill:none" />
<polyline points="1292.04, 837.59 1281.25, 842.85 1272.92, 834.22 1278.55, 823.63 1290.37, 825.71 1292.04, 837.59" style="stroke:black; fill:none" />
<polyline points="1241.05, 752.73 1242.59, 755.31 1240.63, 757.57 1237.86, 756.40 1238.13, 753.41 1241.05, 752.73" style="stroke:black; fill:none" />
<polyline points="1309.95, 749.12 1288.98, 750.22 1281.46, 730.62 1297.78, 717.40 1315.39, 728.84 1309.95, 749.12" style="stroke:black; fill:none" />
<polyline points="1275.18, 763.17 1277.97, 762.05 1279.89, 764.35 1278.30, 766.89 1275.39, 766.16 1275.18, 763.17" style="stroke:black; fill:none" />
<polyline points="1178.35, 783.75 1181.28, 783.13 1182.78, 785.73 1180.77, 787.96 1178.03, 786.74 1178.35, 783.75" style="stroke:black; fill:none" />
<polyline points="1144.64, 767.32 1155.43, 772.58 1153.76, 784.46 1141.94, 786.54 1136.31, 775.95 1144.64, 767.32" style="stroke:black; fill:none" />
<polyline points="1172.71, 830.35 1167.83, 819.39 1176.74, 811.36 1187.14, 817.36 1184.64, 829.10 1172.71, 830.35" style="stroke:black; fill:none" />
<polyline points="1106.87, 825.75 1118.84, 826.58 1121.74, 838.23 1111.57, 844.59 1102.37, 836.87 1106.87, 825.75" style="stroke:black; fill:none" />
<polyline points="1109.48, 863.16 1109.28, 860.16 1112.06, 859.04 1113.99, 861.34 1112.40, 863.88 1109.48, 863.16" style="stroke:black; fill:none" />
<polyline points="1171.53, 852.22 1159.71, 854.30 1154.08, 843.70 1162.41, 835.07 1173.20, 840.33 1171.53, 852.22" style="stroke:black; fill:none" />
<polyline points="1086.75, 792.85 1103.95, 804.90 1097.81, 824.98 1076.81, 825.34 1069.97, 805.49 1086.75, 792.85" style="stroke:black; fill:none" />
<polyline points="1104.35, 759.74 1094.49, 778.28 1073.81, 774.63 1070.89, 753.84 1089.76, 744.63 1104.35, 759.74" style="stroke:black; fill:none" />
<polyline points="1203.68, 812.56 1185.14, 802.70 1188.79, 782.02 1209.58, 779.09 1218.79, 797.97 1203.68, 812.56" style="stroke:black; fill:none" />
<polyline points="1186.66, 779.14 1196.19, 797.85 1181.34, 812.70 1162.63, 803.17 1165.92, 782.43 1186.66, 779.14" style="stroke:black; fill:none" />
<polyline points="1127.19, 852.58 1129.07, 850.25 1131.88, 851.33 1131.72, 854.32 1128.82, 855.10 1127.19, 852.58" style="stroke:black; fill:none" />
<polyline points="1149.07, 875.24 1146.98, 873.08 1148.39, 870.43 1151.35, 870.96 1151.76, 873.93 1149.07, 875.24" style="stroke:black; fill:none" />
<polyline points="1119.52, 852.15 1136.07, 865.08 1128.88, 884.82 1107.90, 884.08 1102.11, 863.90 1119.52, 852.15" style="stroke:black; fill:none" />
<polyline points="1034.61, 925.96 1050.46, 912.18 1068.46, 923.00 1063.74, 943.46 1042.82, 945.29 1034.61, 925.96" style="stroke:black; fill:none" />
<polyline points="1147.04, 929.89 1144.05, 929.78 1143.22, 926.90 1145.71, 925.22 1148.07, 927.07 1147.04, 929.89" style="stroke:black; fill:none" />
<polyline points="1129.89, 903.47 1136.42, 913.53 1128.87, 922.86 1117.67, 918.56 1118.30, 906.58 1129.89, 903.47" style="stroke:black; fill:none" />
<polyline points="1114.40, 932.61 1124.25, 914.06 1144.94, 917.71 1147.86, 938.51 1128.98, 947.71 1114.40, 932.61" style="stroke:black; fill:none" />
<polyline points="1138.53, 910.10 1129.75, 918.28 1119.26, 912.47 1121.55, 900.69 1133.46, 899.22 1138.53, 910.10" style="stroke:black; fill:none" />
<polyline points="1066.54, 908.84 1087.54, 909.21 1093.68, 929.29 1076.48, 941.34 1059.70, 928.70 1066.54, 908.84" style="stroke:black; fill:none" />
<polyline points="1000.90, 976.82 1009.23, 968.19 1020.02, 973.45 1018.35, 985.33 1006.53, 987.42 1000.90, 976.82" style="stroke:black; fill:none" />
<polyline points="1060.71, 948.93 1049.84, 954.00 1041.65, 945.22 1047.47, 934.73 1059.25, 937.02 1060.71, 948.93" style="stroke:black; fill:none" />
<polyline points="1025.81, 1011.90 1027.26, 1009.28 1030.21, 1009.85 1030.57, 1012.83 1027.85, 1014.10 1025.81, 1011.90" style="stroke:black; fill:none" />
<polyline points="1037.83, 950.06 1033.82, 970.67 1012.98, 973.23 1004.10, 954.20 1019.46, 939.88 1037.83, 950.06" style="stroke:black; fill:none" />
<polyline points="963.11, 885.11 972.17, 892.98 967.48, 904.03 955.52, 902.98 952.82, 891.29 963.11, 885.11" style="stroke:black; fill:none" />
<polyline points="1028.11, 896.57 1007.43, 892.92 1004.50, 872.13 1023.38, 862.92 1037.97, 878.03 1028.11, 896.57" style="stroke:black; fill:none" />
<polyline points="977.55, 938.99 986.74, 931.28 996.92, 937.64 994.02, 949.28 982.04, 950.12 977.55, 938.99" style="stroke:black; fill:none" />
<polyline points="1040.45, 898.15 1030.39, 904.68 1021.06, 897.13 1025.36, 885.93 1037.34, 886.55 1040.45, 898.15" style="stroke:black; fill:none" />
<polyline points="1022.27, 865.35 1023.72, 867.97 1021.68, 870.17 1018.96, 868.90 1019.32, 865.92 1022.27, 865.35" style="stroke:black; fill:none" />
<polyline points="1009.91, 834.75 1011.03, 837.53 1008.73, 839.46 1006.19, 837.87 1006.91, 834.96 1009.91, 834.75" style="stroke:black; fill:none" />
<polyline points="979.45, 850.95 997.99, 841.09 1013.09, 855.68 1003.89, 874.55 983.09, 871.63 979.45, 850.95" style="stroke:black; fill:none" />
<polyline points="878.33, 801.63 889.12, 806.89 887.45, 818.77 875.63, 820.86 870.00, 810.26 878.33, 801.63" style="stroke:black; fill:none" />
<polyline points="876.68, 833.09 876.84, 830.09 879.74, 829.32 881.37, 831.83 879.48, 834.16 876.68, 833.09" style="stroke:black; fill:none" />
<polyline points="925.71, 929.32 916.18, 910.61 931.03, 895.76 949.74, 905.29 946.46, 926.03 925.71, 929.32" style="stroke:black; fill:none" />
<polyline points="894.22, 928.77 906.22, 928.98 909.72, 940.45 899.90, 947.33 890.31, 940.11 894.22, 928.77" style="stroke:black; fill:none" />
<polyline points="861.41, 918.11 864.26, 919.03 864.26, 922.03 861.41, 922.96 859.64, 920.53 861.41, 918.11" style="stroke:black; fill:none" />
<polyline points="784.00, 863.90 793.83, 870.79 790.32, 882.26 778.32, 882.47 774.41, 871.12 784.00, 863.90" style="stroke:black; fill:none" />
<polyline points="878.37, 858.96 875.37, 859.11 874.30, 856.31 876.63, 854.42 879.14, 856.06 878.37, 858.96" style="stroke:black; fill:none" />
<polyline points="929.36, 774.10 918.54, 792.10 898.08, 787.37 896.25, 766.45 915.58, 758.25 929.36, 774.10" style="stroke:black; fill:none" />
<polyline points="941.95, 838.88 939.66, 827.10 950.16, 821.29 958.93, 829.47 953.86, 840.35 941.95, 838.88" style="stroke:black; fill:none" />
<polyline points="877.50, 908.00 885.68, 899.22 896.56, 904.29 895.10, 916.20 883.32, 918.49 877.50, 908.00" style="stroke:black; fill:none" />
<polyline points="846.91, 1002.15 850.62, 990.74 862.62, 990.74 866.32, 1002.15 856.62, 1009.21 846.91, 1002.15" style="stroke:black; fill:none" />
<polyline points="942.97, 1026.10 940.06, 1025.38 939.85, 1022.38 942.63, 1021.26 944.56, 1023.56 942.97, 1026.10" style="stroke:black; fill:none" />
<polyline points="888.76, 948.69 890.49, 951.15 888.68, 953.55 885.84, 952.57 885.90, 949.57 888.76, 948.69" style="stroke:black; fill:none" />
<polyline points="832.51, 1046.12 843.01, 1027.93 863.56, 1032.30 865.75, 1053.18 846.57, 1061.73 832.51, 1046.12" style="stroke:black; fill:none" />
<polyline points="898.74, 1081.33 880.19, 1071.47 883.84, 1050.79 904.64, 1047.87 913.84, 1066.74 898.74, 1081.33" style="stroke:black; fill:none" />
<polyline points="908.82, 1048.34 907.95, 1051.21 904.95, 1051.26 903.97, 1048.42 906.36, 1046.62 908.82, 1048.34" style="stroke:black; fill:none" />
<polyline points="992.26, 1092.70 989.61, 1091.29 990.13, 1088.34 993.10, 1087.92 994.42, 1090.62 992.26, 1092.70" style="stroke:black; fill:none" />
<polyline points="900.18, 1071.45 920.64, 1076.17 922.47, 1097.09 903.14, 1105.29 889.37, 1089.45 900.18, 1071.45" style="stroke:black; fill:none" />
<polyline points="970.34, 1055.25 967.41, 1055.92 965.87, 1053.35 967.84, 1051.09 970.60, 1052.26 970.34, 1055.25" style="stroke:black; fill:none" />
<polyline points="1019.30, 1094.90 1009.97, 1087.34 1014.27, 1076.14 1026.26, 1076.77 1029.36, 1088.36 1019.30, 1094.90" style="stroke:black; fill:none" />
<polyline points="917.18, 1059.73 920.02, 1060.71 919.97, 1063.71 917.10, 1064.59 915.38, 1062.13 917.18, 1059.73" style="stroke:black; fill:none" />
<polyline points="830.93, 994.74 847.70, 1007.38 840.86, 1027.23 819.87, 1026.87 813.73, 1006.78 830.93, 994.74" style="stroke:black; fill:none" />
<polyline points="863.92, 1004.83 843.84, 998.69 843.47, 977.69 863.33, 970.85 875.97, 987.62 863.92, 1004.83" style="stroke:black; fill:none" />
<polyline points="921.15, 1096.41 914.79, 1086.24 922.51, 1077.05 933.63, 1081.54 932.80, 1093.51 921.15, 1096.41" style="stroke:black; fill:none" />
<polyline points="878.19, 1050.34 892.51, 1065.70 882.33, 1084.06 861.71, 1080.06 859.15, 1059.21 878.19, 1050.34" style="stroke:black; fill:none" />
<polyline points="938.54, 1016.89 935.91, 1018.34 933.72, 1016.30 934.99, 1013.58 937.96, 1013.94 938.54, 1016.89" style="stroke:black; fill:none" />
<polyline points="912.64, 991.88 914.80, 993.96 913.48, 996.66 910.51, 996.24 909.99, 993.29 912.64, 991.88" style="stroke:black; fill:none" />
<polyline points="890.60, 961.54 902.94, 978.53 890.60, 995.52 870.63, 989.03 870.63, 968.03 890.60, 961.54" style="stroke:black; fill:none" />
<polyline points="860.09, 1030.06 861.31, 1027.32 864.30, 1027.63 864.92, 1030.56 862.32, 1032.06 860.09, 1030.06" style="stroke:black; fill:none" />
<polyline points="826.77, 1038.99 838.36, 1035.88 844.89, 1045.94 837.34, 1055.27 826.14, 1050.97 826.77, 1038.99" style="stroke:black; fill:none" />
<polyline points="858.25, 1040.09 837.26, 1039.35 831.47, 1019.17 848.88, 1007.42 865.43, 1020.35 858.25, 1040.09" style="stroke:black; fill:none" />
<polyline points="894.30, 1050.42 891.41, 1049.60 891.31, 1046.60 894.13, 1045.57 895.97, 1047.94 894.30, 1050.42" style="stroke:black; fill:none" />
<polyline points="872.21, 1025.90 880.24, 1034.82 874.24, 1045.21 862.51, 1042.71 861.25, 1030.78 872.21, 1025.90" style="stroke:black; fill:none" />
<polyline points="798.14, 1014.17 801.10, 1014.64 801.57, 1017.60 798.90, 1018.96 796.78, 1016.84 798.14, 1014.17" style="stroke:black; fill:none" />
<polyline points="790.92, 1117.41 792.38, 1096.47 812.76, 1091.38 823.89, 1109.19 810.39, 1125.28 790.92, 1117.41" style="stroke:black; fill:none" />
<polyline points="764.17, 1093.33 766.39, 1095.33 765.17, 1098.07 762.19, 1097.76 761.57, 1094.83 764.17, 1093.33" style="stroke:black; fill:none" />
<polyline points="823.78, 1188.73 822.19, 1186.19 824.12, 1183.89 826.90, 1185.01 826.69, 1188.00 823.78, 1188.73" style="stroke:black; fill:none" />
<polyline points="711.56, 1180.88 723.53, 1181.72 726.43, 1193.36 716.25, 1199.72 707.06, 1192.01 711.56, 1180.88" style="stroke:black; fill:none" />
<polyline points="737.19, 1203.97 734.96, 1201.96 736.18, 1199.22 739.17, 1199.53 739.79, 1202.47 737.19, 1203.97" style="stroke:black; fill:none" />
<polyline points="713.66, 1229.20 715.71, 1227.01 718.43, 1228.27 718.06, 1231.25 715.12, 1231.82 713.66, 1229.20" style="stroke:black; fill:none" />
<polyline points="785.62, 1231.71 782.62, 1231.61 781.80, 1228.72 784.28, 1227.05 786.65, 1228.89 785.62, 1231.71" style="stroke:black; fill:none" />
<polyline points="819.66, 1243.43 808.31, 1239.53 808.52, 1227.53 820.00, 1224.02 826.88, 1233.85 819.66, 1243.43" style="stroke:black; fill:none" />
<polyline points="730.86, 1275.75 742.13, 1271.65 749.52, 1281.11 742.81, 1291.05 731.28, 1287.75 730.86, 1275.75" style="stroke:black; fill:none" />
<polyline points="782.33, 1196.50 775.79, 1206.56 764.20, 1203.46 763.57, 1191.47 774.78, 1187.17 782.33, 1196.50" style="stroke:black; fill:none" />
<polyline points="682.84, 1167.97 703.02, 1173.76 703.76, 1194.75 684.02, 1201.93 671.09, 1185.38 682.84, 1167.97" style="stroke:black; fill:none" />
<polyline points="668.66, 1106.59 671.36, 1118.28 661.08, 1124.46 652.02, 1116.59 656.71, 1105.54 668.66, 1106.59" style="stroke:black; fill:none" />
<polyline points="762.20, 1052.59 751.80, 1058.59 742.89, 1050.56 747.77, 1039.59 759.70, 1040.85 762.20, 1052.59" style="stroke:black; fill:none" />
<polyline points="810.87, 971.58 804.69, 981.87 792.99, 979.17 791.95, 967.22 802.99, 962.53 810.87, 971.58" style="stroke:black; fill:none" />
<polyline points="825.51, 938.70 820.63, 949.66 808.69, 948.40 806.20, 936.67 816.59, 930.67 825.51, 938.70" style="stroke:black; fill:none" />
<polyline points="926.36, 915.41 923.43, 916.09 921.89, 913.52 923.86, 911.25 926.62, 912.42 926.36, 915.41" style="stroke:black; fill:none" />
<polyline points="881.22, 975.31 883.03, 972.92 885.86, 973.89 885.81, 976.89 882.94, 977.77 881.22, 975.31" style="stroke:black; fill:none" />
<polyline points="866.44, 1068.65 869.72, 1047.91 890.46, 1044.62 900.00, 1063.33 885.15, 1078.18 866.44, 1068.65" style="stroke:black; fill:none" />
<polyline points="878.80, 1100.86 877.73, 1098.06 880.06, 1096.17 882.57, 1097.80 881.80, 1100.70 878.80, 1100.86" style="stroke:black; fill:none" />
<polyline points="883.19, 1136.59 881.73, 1124.68 892.60, 1119.61 900.79, 1128.38 894.97, 1138.88 883.19, 1136.59" style="stroke:black; fill:none" />
<polyline points="804.12, 1196.17 806.52, 1194.36 808.98, 1196.08 808.10, 1198.95 805.10, 1199.00 804.12, 1196.17" style="stroke:black; fill:none" />
<polyline points="820.56, 1229.87 819.25, 1227.18 821.40, 1225.09 824.05, 1226.50 823.53, 1229.45 820.56, 1229.87" style="stroke:black; fill:none" />
<polyline points="806.75, 1201.56 815.96, 1220.43 800.85, 1235.02 782.31, 1225.16 785.96, 1204.48 806.75, 1201.56" style="stroke:black; fill:none" />
<polyline points="747.77, 1160.26 764.98, 1172.31 758.84, 1192.39 737.84, 1192.76 731.00, 1172.90 747.77, 1160.26" style="stroke:black; fill:none" />
<polyline points="803.40, 1189.84 800.75, 1188.43 801.27, 1185.48 804.24, 1185.06 805.56, 1187.76 803.40, 1189.84" style="stroke:black; fill:none" />
<polyline points="803.40, 1126.84 803.40, 1138.84 791.99, 1142.55 784.93, 1132.84 791.99, 1123.13 803.40, 1126.84" style="stroke:black; fill:none" />
<polyline points="897.55, 1157.43 894.70, 1156.51 894.70, 1153.51 897.55, 1152.58 899.32, 1155.01 897.55, 1157.43" style="stroke:black; fill:none" />
<polyline points="926.81, 1175.71 909.00, 1164.59 914.08, 1144.21 935.03, 1142.74 942.90, 1162.22 926.81, 1175.71" style="stroke:black; fill:none" />
<polyline points="991.34, 1267.87 984.46, 1258.04 991.68, 1248.46 1003.02, 1252.36 1002.82, 1264.36 991.34, 1267.87" style="stroke:black; fill:none" />
<polyline points="991.34, 1195.87 991.34, 1216.87 971.37, 1223.36 959.02, 1206.37 971.37, 1189.38 991.34, 1195.87" style="stroke:black; fill:none" />
<polyline points="961.77, 1213.64 972.05, 1207.46 981.11, 1215.33 976.42, 1226.38 964.47, 1225.33 961.77, 1213.64" style="stroke:black; fill:none" />
<polyline points="892.51, 1290.55 900.54, 1281.64 911.50, 1286.52 910.25, 1298.45 898.51, 1300.95 892.51, 1290.55" style="stroke:black; fill:none" />
<polyline points="920.82, 1276.74 910.04, 1282.01 901.70, 1273.37 907.34, 1262.78 919.15, 1264.86 920.82, 1276.74" style="stroke:black; fill:none" />
<polyline points="820.85, 1303.53 823.75, 1302.76 825.38, 1305.27 823.49, 1307.60 820.69, 1306.53 820.85, 1303.53" style="stroke:black; fill:none" />
<polyline points="865.18, 1246.80 852.25, 1263.34 832.52, 1256.16 833.25, 1235.17 853.44, 1229.39 865.18, 1246.80" style="stroke:black; fill:none" />
<polyline points="766.19, 1245.07 778.19, 1245.28 781.70, 1256.75 771.87, 1263.64 762.29, 1256.41 766.19, 1245.07" style="stroke:black; fill:none" />
<polyline points="828.85, 1238.48 825.86, 1238.80 824.64, 1236.06 826.87, 1234.05 829.47, 1235.55 828.85, 1238.48" style="stroke:black; fill:none" />
<polyline points="856.03, 1259.72 846.58, 1252.33 850.68, 1241.06 862.68, 1241.48 865.98, 1253.01 856.03, 1259.72" style="stroke:black; fill:none" />
<polyline points="881.07, 1159.30 878.17, 1170.94 866.20, 1171.78 861.70, 1160.65 870.90, 1152.94 881.07, 1159.30" style="stroke:black; fill:none" />
<polyline points="928.32, 1241.14 922.32, 1230.74 930.35, 1221.83 941.32, 1226.71 940.06, 1238.64 928.32, 1241.14" style="stroke:black; fill:none" />
<polyline points="936.37, 1306.64 933.81, 1285.80 952.84, 1276.93 967.16, 1292.28 956.98, 1310.65 936.37, 1306.64" style="stroke:black; fill:none" />
<polyline points="962.16, 1367.40 953.95, 1348.07 969.80, 1334.29 987.80, 1345.11 983.08, 1365.57 962.16, 1367.40" style="stroke:black; fill:none" />
<polyline points="924.71, 1369.36 945.68, 1368.26 953.20, 1387.87 936.88, 1401.08 919.27, 1389.65 924.71, 1369.36" style="stroke:black; fill:none" />
<polyline points="953.57, 1353.36 935.20, 1363.54 919.84, 1349.22 928.72, 1330.19 949.56, 1332.75 953.57, 1353.36" style="stroke:black; fill:none" />
<polyline points="916.07, 1353.36 937.07, 1353.36 943.56, 1373.33 926.57, 1385.68 909.58, 1373.33 916.07, 1353.36" style="stroke:black; fill:none" />
<polyline points="824.48, 1296.13 842.29, 1307.26 837.21, 1327.64 816.26, 1329.10 808.39, 1309.63 824.48, 1296.13" style="stroke:black; fill:none" />
<polyline points="788.62, 1285.17 791.49, 1286.04 791.54, 1289.04 788.70, 1290.02 786.90, 1287.62 788.62, 1285.17" style="stroke:black; fill:none" />
<polyline points="813.66, 1184.74 808.58, 1205.12 787.63, 1206.58 779.76, 1187.11 795.85, 1173.61 813.66, 1184.74" style="stroke:black; fill:none" />
<polyline points="826.16, 1113.83 825.64, 1116.79 822.67, 1117.21 821.35, 1114.51 823.51, 1112.43 826.16, 1113.83" style="stroke:black; fill:none" />
<polyline points="904.31, 1032.91 889.72, 1048.02 870.85, 1038.81 873.77, 1018.01 894.45, 1014.37 904.31, 1032.91" style="stroke:black; fill:none" />
<polyline points="841.08, 1103.14 849.11, 1094.22 860.07, 1099.10 858.81, 1111.03 847.08, 1113.53 841.08, 1103.14" style="stroke:black; fill:none" />
<polyline points="729.67, 1118.79 741.55, 1117.12 746.81, 1127.91 738.18, 1136.24 727.59, 1130.61 729.67, 1118.79" style="stroke:black; fill:none" />
<polyline points="697.65, 1126.78 709.30, 1123.87 715.65, 1134.05 707.94, 1143.24 696.81, 1138.75 697.65, 1126.78" style="stroke:black; fill:none" />
<polyline points="658.00, 1077.82 671.22, 1094.14 659.78, 1111.75 639.50, 1106.31 638.40, 1085.34 658.00, 1077.82" style="stroke:black; fill:none" />
<polyline points="627.50, 1146.33 632.38, 1135.37 644.31, 1136.62 646.81, 1148.36 636.42, 1154.36 627.50, 1146.33" style="stroke:black; fill:none" />
<polyline points="560.85, 1128.47 563.75, 1129.25 563.90, 1132.25 561.10, 1133.32 559.22, 1130.99 560.85, 1128.47" style="stroke:black; fill:none" />
<polyline points="638.86, 1189.42 636.50, 1187.58 637.53, 1184.76 640.52, 1184.86 641.35, 1187.75 638.86, 1189.42" style="stroke:black; fill:none" />
<polyline points="643.26, 1126.58 643.05, 1129.57 640.14, 1130.30 638.55, 1127.75 640.48, 1125.45 643.26, 1126.58" style="stroke:black; fill:none" />
<polyline points="717.72, 1068.40 701.18, 1081.33 683.77, 1069.58 689.56, 1049.40 710.54, 1048.66 717.72, 1068.40" style="stroke:black; fill:none" />
<polyline points="769.47, 978.76 758.97, 996.95 738.43, 992.58 736.24, 971.70 755.42, 963.16 769.47, 978.76" style="stroke:black; fill:none" />
<polyline points="684.54, 937.34 695.32, 942.60 693.65, 954.48 681.84, 956.57 676.20, 945.97 684.54, 937.34" style="stroke:black; fill:none" />
<polyline points="675.35, 1002.70 678.28, 981.90 698.96, 978.25 708.82, 996.80 694.23, 1011.90 675.35, 1002.70" style="stroke:black; fill:none" />
<polyline points="646.77, 986.20 657.17, 992.20 654.67, 1003.93 642.74, 1005.19 637.86, 994.23 646.77, 986.20" style="stroke:black; fill:none" />
<polyline points="745.64, 991.38 733.66, 990.75 730.55, 979.16 740.61, 972.62 749.94, 980.17 745.64, 991.38" style="stroke:black; fill:none" />
<polyline points="789.99, 1044.23 782.28, 1035.04 788.64, 1024.87 800.28, 1027.77 801.12, 1039.74 789.99, 1044.23" style="stroke:black; fill:none" />
<polyline points="817.86, 1069.33 815.63, 1067.32 816.85, 1064.58 819.83, 1064.89 820.46, 1067.83 817.86, 1069.33" style="stroke:black; fill:none" />
<polyline points="806.60, 998.21 809.88, 1018.95 791.17, 1028.49 776.32, 1013.64 785.85, 994.93 806.60, 998.21" style="stroke:black; fill:none" />
<polyline points="704.67, 980.24 707.62, 980.76 708.04, 983.73 705.34, 985.05 703.26, 982.89 704.67, 980.24" style="stroke:black; fill:none" />
<polyline points="722.27, 869.13 720.39, 880.98 708.54, 882.85 703.09, 872.16 711.58, 863.68 722.27, 869.13" style="stroke:black; fill:none" />
<polyline points="691.70, 876.75 712.08, 871.67 723.21, 889.47 709.71, 905.56 690.24, 897.69 691.70, 876.75" style="stroke:black; fill:none" />
<polyline points="593.08, 885.37 605.03, 884.33 609.72, 895.37 600.67, 903.25 590.38, 897.07 593.08, 885.37" style="stroke:black; fill:none" />
<polyline points="580.72, 917.58 585.02, 906.38 597.00, 907.01 600.11, 918.60 590.04, 925.13 580.72, 917.58" style="stroke:black; fill:none" />
<polyline points="643.37, 911.00 622.49, 913.19 613.94, 894.01 629.55, 879.96 647.74, 890.46 643.37, 911.00" style="stroke:black; fill:none" />
<polyline points="665.08, 884.19 651.87, 900.51 632.26, 892.98 633.36, 872.01 653.64, 866.57 665.08, 884.19" style="stroke:black; fill:none" />
<polyline points="581.35, 945.02 598.34, 932.68 615.33, 945.02 608.84, 964.99 587.84, 964.99 581.35, 945.02" style="stroke:black; fill:none" />
<polyline points="612.55, 955.77 592.70, 948.93 593.06, 927.93 613.14, 921.79 625.19, 938.99 612.55, 955.77" style="stroke:black; fill:none" />
<polyline points="646.81, 940.51 644.07, 941.73 642.06, 939.50 643.56, 936.91 646.50, 937.53 646.81, 940.51" style="stroke:black; fill:none" />
<polyline points="739.84, 974.37 720.11, 967.19 720.84, 946.20 741.02, 940.42 752.77, 957.82 739.84, 974.37" style="stroke:black; fill:none" />
<polyline points="707.61, 880.77 708.58, 883.60 706.19, 885.41 703.73, 883.69 704.61, 880.82 707.61, 880.77" style="stroke:black; fill:none" />
<polyline points="610.11, 897.96 613.07, 897.44 614.47, 900.09 612.39, 902.24 609.69, 900.93 610.11, 897.96" style="stroke:black; fill:none" />
<polyline points="676.44, 916.98 673.55, 916.15 673.45, 913.15 676.27, 912.13 678.12, 914.49 676.44, 916.98" style="stroke:black; fill:none" />
<polyline points="732.57, 945.58 729.90, 944.22 730.37, 941.25 733.33, 940.78 734.69, 943.46 732.57, 945.58" style="stroke:black; fill:none" />
<polyline points="777.71, 885.68 770.49, 895.26 759.14, 891.36 759.35, 879.36 770.83, 875.85 777.71, 885.68" style="stroke:black; fill:none" />
<polyline points="763.66, 850.91 764.78, 853.69 762.49, 855.62 759.94, 854.03 760.67, 851.12 763.66, 850.91" style="stroke:black; fill:none" />
<polyline points="713.35, 813.00 730.12, 825.63 723.28, 845.49 702.28, 845.12 696.14, 825.04 713.35, 813.00" style="stroke:black; fill:none" />
<polyline points="742.48, 828.49 739.83, 827.08 740.36, 824.13 743.33, 823.71 744.64, 826.41 742.48, 828.49" style="stroke:black; fill:none" />
<polyline points="681.81, 872.57 691.52, 865.52 701.22, 872.57 697.52, 883.99 685.52, 883.99 681.81, 872.57" style="stroke:black; fill:none" />
<polyline points="622.66, 908.11 625.23, 906.57 627.50, 908.53 626.33, 911.30 623.34, 911.03 622.66, 908.11" style="stroke:black; fill:none" />
<polyline points="647.67, 934.01 645.59, 931.85 646.99, 929.20 649.95, 929.72 650.37, 932.69 647.67, 934.01" style="stroke:black; fill:none" />
<polyline points="612.27, 836.75 619.45, 856.48 602.91, 869.41 585.50, 857.67 591.28, 837.48 612.27, 836.75" style="stroke:black; fill:none" />
<polyline points="575.46, 829.59 578.41, 830.17 578.77, 833.14 576.05, 834.41 574.01, 832.22 575.46, 829.59" style="stroke:black; fill:none" />
<polyline points="483.03, 849.24 494.76, 846.75 500.76, 857.14 492.73, 866.06 481.77, 861.18 483.03, 849.24" style="stroke:black; fill:none" />
<polyline points="385.14, 803.60 404.18, 812.47 401.62, 833.32 381.00, 837.32 370.82, 818.96 385.14, 803.60" style="stroke:black; fill:none" />
<polyline points="414.35, 713.72 407.86, 733.70 386.86, 733.70 380.37, 713.72 397.36, 701.38 414.35, 713.72" style="stroke:black; fill:none" />
<polyline points="389.25, 685.86 403.31, 701.46 392.81, 719.65 372.26, 715.28 370.07, 694.40 389.25, 685.86" style="stroke:black; fill:none" />
<polyline points="423.29, 674.14 411.95, 678.04 404.72, 668.46 411.61, 658.63 423.08, 662.14 423.29, 674.14" style="stroke:black; fill:none" />
<polyline points="350.21, 691.01 353.14, 690.33 354.68, 692.90 352.71, 695.17 349.95, 694.00 350.21, 691.01" style="stroke:black; fill:none" />
<polyline points="343.13, 721.70 347.85, 701.24 368.77, 699.41 376.98, 718.74 361.13, 732.52 343.13, 721.70" style="stroke:black; fill:none" />
<polyline points="397.67, 623.30 387.49, 641.67 366.87, 637.66 364.32, 616.82 383.35, 607.95 397.67, 623.30" style="stroke:black; fill:none" />
<polyline points="412.31, 590.42 411.09, 593.16 408.11, 592.84 407.48, 589.91 410.08, 588.41 412.31, 590.42" style="stroke:black; fill:none" />
<polyline points="432.71, 653.19 429.00, 641.77 438.71, 634.72 448.42, 641.77 444.71, 653.19 432.71, 653.19" style="stroke:black; fill:none" />
<polyline points="445.07, 620.98 437.55, 640.58 416.57, 639.48 411.14, 619.20 428.75, 607.76 445.07, 620.98" style="stroke:black; fill:none" />
<polyline points="466.95, 643.64 458.62, 635.01 464.25, 624.41 476.07, 626.49 477.74, 638.38 466.95, 643.64" style="stroke:black; fill:none" />
<polyline points="451.68, 616.09 453.14, 618.71 451.09, 620.90 448.37, 619.64 448.74, 616.66 451.68, 616.09" style="stroke:black; fill:none" />
<polyline points="474.25, 678.11 470.15, 666.83 479.61, 659.44 489.56, 666.15 486.25, 677.69 474.25, 678.11" style="stroke:black; fill:none" />
<polyline points="491.34, 741.86 488.23, 730.27 498.30, 723.73 507.62, 731.28 503.32, 742.49 491.34, 741.86" style="stroke:black; fill:none" />
<polyline points="456.18, 843.97 463.01, 824.12 484.01, 824.48 490.15, 844.57 472.95, 856.61 456.18, 843.97" style="stroke:black; fill:none" />
<polyline points="427.24, 903.29 432.50, 892.51 444.39, 894.18 446.47, 906.00 435.88, 911.63 427.24, 903.29" style="stroke:black; fill:none" />
<polyline points="411.72, 836.06 412.40, 838.99 409.82, 840.53 407.56, 838.56 408.73, 835.80 411.72, 836.06" style="stroke:black; fill:none" />
<polyline points="381.18, 780.96 391.36, 799.33 377.04, 814.69 358.00, 805.81 360.56, 784.97 381.18, 780.96" style="stroke:black; fill:none" />
<polyline points="293.75, 851.76 310.07, 838.54 327.68, 849.98 322.25, 870.27 301.28, 871.37 293.75, 851.76" style="stroke:black; fill:none" />
<polyline points="244.70, 807.60 246.93, 809.60 245.71, 812.35 242.73, 812.03 242.10, 809.10 244.70, 807.60" style="stroke:black; fill:none" />
<polyline points="224.95, 706.00 228.96, 726.61 210.59, 736.79 195.23, 722.47 204.11, 703.44 224.95, 706.00" style="stroke:black; fill:none" />
<polyline points="126.52, 737.98 129.37, 737.06 131.14, 739.48 129.37, 741.91 126.52, 740.98 126.52, 737.98" style="stroke:black; fill:none" />
<polyline points="155.78, 719.70 153.23, 721.29 150.93, 719.36 152.06, 716.58 155.05, 716.79 155.78, 719.70" style="stroke:black; fill:none" />
<polyline points="185.18, 734.68 166.47, 725.15 169.75, 704.41 190.50, 701.12 200.03, 719.83 185.18, 734.68" style="stroke:black; fill:none" />
<polyline points="212.18, 750.91 201.89, 744.72 204.59, 733.03 216.55, 731.99 221.24, 743.03 212.18, 750.91" style="stroke:black; fill:none" />
<polyline points="209.98, 782.33 210.82, 770.36 222.46, 767.45 228.82, 777.63 221.11, 786.82 209.98, 782.33" style="stroke:black; fill:none" />
<polyline points="190.57, 709.88 193.68, 721.48 183.61, 728.01 174.29, 720.46 178.59, 709.26 190.57, 709.88" style="stroke:black; fill:none" />
<polyline points="214.19, 737.05 212.22, 734.79 213.77, 732.22 216.69, 732.89 216.95, 735.88 214.19, 737.05" style="stroke:black; fill:none" />
<polyline points="190.86, 713.72 205.70, 728.57 196.17, 747.28 175.43, 743.99 172.14, 723.25 190.86, 713.72" style="stroke:black; fill:none" />
<polyline points="258.35, 728.07 246.61, 725.57 245.36, 713.64 256.32, 708.76 264.35, 717.67 258.35, 728.07" style="stroke:black; fill:none" />
<polyline points="207.64, 632.71 217.50, 651.25 202.92, 666.35 184.04, 657.15 186.96, 636.35 207.64, 632.71" style="stroke:black; fill:none" />
<polyline points="104.87, 678.46 115.83, 673.58 123.86, 682.50 117.86, 692.89 106.13, 690.40 104.87, 678.46" style="stroke:black; fill:none" />
<polyline points="52.80, 723.73 61.85, 715.86 72.14, 722.04 69.44, 733.73 57.48, 734.78 52.80, 723.73" style="stroke:black; fill:none" />
<polyline points="68.28, 821.51 67.81, 818.55 70.49, 817.19 72.61, 819.31 71.25, 821.98 68.28, 821.51" style="stroke:black; fill:none" />
<polyline points="125.38, 794.89 106.35, 803.76 92.03, 788.41 102.21, 770.04 122.82, 774.05 125.38, 794.89" style="stroke:black; fill:none" />
<polyline points="184.85, 721.45 171.64, 737.77 152.03, 730.24 153.13, 709.27 173.41, 703.84 184.85, 721.45" style="stroke:black; fill:none" />
<polyline points="159.37, 702.93 176.36, 715.28 169.87, 735.25 148.87, 735.25 142.38, 715.28 159.37, 702.93" style="stroke:black; fill:none" />
<polyline points="158.79, 669.94 159.16, 690.94 139.30, 697.77 126.66, 681.00 138.71, 663.80 158.79, 669.94" style="stroke:black; fill:none" />
<polyline points="162.56, 741.84 161.46, 720.87 181.07, 713.34 194.28, 729.66 182.84, 747.28 162.56, 741.84" style="stroke:black; fill:none" />
<polyline points="255.13, 686.22 237.13, 697.03 221.28, 683.25 229.49, 663.92 250.41, 665.75 255.13, 686.22" style="stroke:black; fill:none" />
<polyline points="211.39, 780.02 216.46, 769.14 228.37, 770.61 230.66, 782.38 220.17, 788.20 211.39, 780.02" style="stroke:black; fill:none" />
<polyline points="183.97, 805.59 199.32, 791.27 217.69, 801.45 213.68, 822.07 192.84, 824.63 183.97, 805.59" style="stroke:black; fill:none" />
<polyline points="252.44, 783.34 232.47, 789.83 220.13, 772.84 232.47, 755.85 252.44, 762.34 252.44, 783.34" style="stroke:black; fill:none" />
<polyline points="220.37, 767.00 231.06, 772.45 229.18, 784.30 217.33, 786.18 211.88, 775.49 220.37, 767.00" style="stroke:black; fill:none" />
<polyline points="226.23, 804.04 225.76, 801.08 228.44, 799.71 230.56, 801.84 229.20, 804.51 226.23, 804.04" style="stroke:black; fill:none" />
<polyline points="263.53, 807.96 251.59, 806.70 249.10, 794.97 259.49, 788.97 268.41, 797.00 263.53, 807.96" style="stroke:black; fill:none" />
<polyline points="255.09, 844.50 259.82, 824.04 280.74, 822.21 288.94, 841.54 273.09, 855.31 255.09, 844.50" style="stroke:black; fill:none" />
<polyline points="224.28, 856.32 243.89, 848.80 257.10, 865.12 245.67, 882.73 225.38, 877.29 224.28, 856.32" style="stroke:black; fill:none" />
<polyline points="292.91, 849.11 272.02, 851.31 263.48, 832.12 279.08, 818.07 297.27, 828.57 292.91, 849.11" style="stroke:black; fill:none" />
<polyline points="266.09, 827.40 268.43, 829.29 267.35, 832.09 264.35, 831.93 263.58, 829.03 266.09, 827.40" style="stroke:black; fill:none" />
<polyline points="308.19, 732.85 299.65, 752.03 278.76, 749.84 274.40, 729.30 292.59, 718.80 308.19, 732.85" style="stroke:black; fill:none" />
<polyline points="385.60, 787.05 368.40, 775.01 374.54, 754.92 395.54, 754.56 402.37, 774.41 385.60, 787.05" style="stroke:black; fill:none" />
<polyline points="405.45, 717.84 404.62, 720.72 401.62, 720.83 400.60, 718.01 402.96, 716.16 405.45, 717.84" style="stroke:black; fill:none" />
<polyline points="427.72, 740.11 419.24, 731.63 424.68, 720.94 436.54, 722.81 438.41, 734.67 427.72, 740.11" style="stroke:black; fill:none" />
<polyline points="315.29, 744.04 318.29, 743.94 319.31, 746.75 316.95, 748.60 314.46, 746.92 315.29, 744.04" style="stroke:black; fill:none" />
<polyline points="309.40, 856.39 310.03, 844.40 321.62, 841.30 328.16, 851.36 320.60, 860.69 309.40, 856.39" style="stroke:black; fill:none" />
<polyline points="218.27, 895.07 237.60, 886.86 251.38, 902.71 240.56, 920.71 220.10, 915.99 218.27, 895.07" style="stroke:black; fill:none" />
<polyline points="236.34, 869.26 224.29, 886.47 204.21, 880.33 203.85, 859.33 223.70, 852.49 236.34, 869.26" style="stroke:black; fill:none" />
<polyline points="325.97, 817.51 307.79, 828.01 292.18, 813.96 300.72, 794.78 321.61, 796.97 325.97, 817.51" style="stroke:black; fill:none" />
<polyline points="306.11, 791.16 313.33, 800.74 306.45, 810.57 294.98, 807.06 294.77, 795.07 306.11, 791.16" style="stroke:black; fill:none" />
<polyline points="398.69, 846.78 396.12, 845.24 396.79, 842.32 399.78, 842.05 400.95, 844.82 398.69, 846.78" style="stroke:black; fill:none" />
<polyline points="358.97, 794.07 360.77, 796.47 359.05, 798.93 356.18, 798.05 356.13, 795.05 358.97, 794.07" style="stroke:black; fill:none" />
<polyline points="465.96, 828.84 445.99, 822.35 445.99, 801.35 465.96, 794.86 478.30, 811.85 465.96, 828.84" style="stroke:black; fill:none" />
<polyline points="466.51, 860.33 466.30, 848.34 477.65, 844.43 484.87, 854.01 477.99, 863.84 466.51, 860.33" style="stroke:black; fill:none" />
<polyline points="369.01, 877.52 380.83, 875.44 386.47, 886.04 378.13, 894.67 367.34, 889.41 369.01, 877.52" style="stroke:black; fill:none" />
<polyline points="356.11, 911.13 363.64, 891.53 384.61, 892.63 390.05, 912.91 372.43, 924.35 356.11, 911.13" style="stroke:black; fill:none" />
<polyline points="325.74, 898.24 345.07, 906.44 343.24, 927.37 322.78, 932.09 311.96, 914.09 325.74, 898.24" style="stroke:black; fill:none" />
<polyline points="309.04, 831.29 309.77, 834.20 307.23, 835.79 304.93, 833.86 306.05, 831.08 309.04, 831.29" style="stroke:black; fill:none" />
<polyline points="291.45, 720.17 293.32, 732.03 282.63, 737.47 274.15, 728.99 279.59, 718.30 291.45, 720.17" style="stroke:black; fill:none" />
<polyline points="266.54, 698.52 275.60, 706.40 270.91, 717.44 258.95, 716.40 256.25, 704.70 266.54, 698.52" style="stroke:black; fill:none" />
<polyline points="323.11, 664.53 305.11, 675.35 289.26, 661.57 297.47, 642.24 318.39, 644.07 323.11, 664.53" style="stroke:black; fill:none" />
<polyline points="391.63, 634.03 380.67, 638.91 372.64, 629.99 378.64, 619.60 390.37, 622.09 391.63, 634.03" style="stroke:black; fill:none" />
<polyline points="440.95, 735.14 439.63, 732.44 441.79, 730.36 444.44, 731.77 443.92, 734.72 440.95, 735.14" style="stroke:black; fill:none" />
<polyline points="509.43, 743.55 506.45, 743.18 505.88, 740.24 508.51, 738.78 510.70, 740.83 509.43, 743.55" style="stroke:black; fill:none" />
<polyline points="442.94, 658.44 444.79, 660.81 443.11, 663.30 440.23, 662.47 440.12, 659.47 442.94, 658.44" style="stroke:black; fill:none" />
<polyline points="491.61, 577.44 480.80, 595.44 460.33, 590.72 458.50, 569.80 477.83, 561.59 491.61, 577.44" style="stroke:black; fill:none" />
<polyline points="451.29, 472.41 452.37, 475.22 450.04, 477.10 447.52, 475.47 448.30, 472.57 451.29, 472.41" style="stroke:black; fill:none" />
</svg>