<svg height="1500" width="1500" xmlns="http://www.w3.org/2000/svg">
<polyline points="274.37, 1497.88 275.55, 1495.67 278.05, 1495.59 279.37, 1497.71 278.20, 1499.91 275.70, 1500.00 274.37, 1497.88" style="stroke:black; fill:none" />
<polyline points="292.23, 1431.23 289.65, 1440.89 279.99, 1443.48 272.91, 1436.41 275.50, 1426.75 285.16, 1424.16 292.23, 1431.23" style="stroke:black; fill:none" />
<polyline points="312.91, 1359.14 308.08, 1375.96 291.10, 1380.19 278.95, 1367.60 283.77, 1350.78 300.75, 1346.55 312.91, 1359.14" style="stroke:black; fill:none" />
<polyline points="364.37, 1279.88 354.84, 1294.56 337.37, 1293.64 329.42, 1278.05 338.95, 1263.37 356.43, 1264.29 364.37, 1279.88" style="stroke:black; fill:none" />
<polyline points="418.44, 1242.03 416.39, 1243.46 414.13, 1242.40 413.91, 1239.91 415.96, 1238.48 418.22, 1239.54 418.44, 1242.03" style="stroke:black; fill:none" />
<polyline points="411.28, 1205.21 413.19, 1215.03 405.64, 1221.59 396.19, 1218.34 394.28, 1208.52 401.83, 1201.96 411.28, 1205.21" style="stroke:black; fill:none" />
<polyline points="323.85, 1276.01 337.45, 1265.00 353.79, 1271.27 356.53, 1288.56 342.93, 1299.57 326.59, 1293.30 323.85, 1276.01" style="stroke:black; fill:none" />
<polyline points="337.01, 1182.43 335.61, 1192.34 326.34, 1196.08 318.46, 1189.93 319.85, 1180.02 329.13, 1176.28 337.01, 1182.43" style="stroke:black; fill:none" />
<polyline points="286.30, 1277.79 294.52, 1262.34 312.01, 1261.73 321.28, 1276.57 313.07, 1292.02 295.58, 1292.63 286.30, 1277.79" style="stroke:black; fill:none" />
<polyline points="308.47, 1249.42 297.69, 1263.21 280.36, 1260.78 273.81, 1244.55 284.58, 1230.76 301.91, 1233.20 308.47, 1249.42" style="stroke:black; fill:none" />
<polyline points="340.62, 1242.00 323.57, 1245.94 311.63, 1233.14 316.75, 1216.40 333.80, 1212.47 345.74, 1225.26 340.62, 1242.00" style="stroke:black; fill:none" />
<polyline points="321.32, 1178.88 324.25, 1188.45 317.43, 1195.76 307.68, 1193.51 304.76, 1183.95 311.58, 1176.63 321.32, 1178.88" style="stroke:black; fill:none" />
<polyline points="284.70, 1285.25 287.95, 1275.80 297.77, 1273.89 304.33, 1281.44 301.08, 1290.89 291.26, 1292.80 284.70, 1285.25" style="stroke:black; fill:none" />
<polyline points="264.85, 1216.04 267.61, 1225.66 260.66, 1232.85 250.96, 1230.43 248.20, 1220.82 255.15, 1213.62 264.85, 1216.04" style="stroke:black; fill:none" />
<polyline points="270.50, 1323.90 270.37, 1321.40 272.47, 1320.04 274.70, 1321.17 274.83, 1323.67 272.73, 1325.03 270.50, 1323.90" style="stroke:black; fill:none" />
<polyline points="338.21, 1234.05 327.68, 1248.03 310.31, 1245.89 303.47, 1229.78 314.00, 1215.81 331.37, 1217.94 338.21, 1234.05" style="stroke:black; fill:none" />
<polyline points="425.01, 1290.42 416.62, 1284.97 417.15, 1274.99 426.06, 1270.45 434.44, 1275.89 433.92, 1285.88 425.01, 1290.42" style="stroke:black; fill:none" />
<polyline points="314.22, 1309.95 324.07, 1308.22 330.50, 1315.88 327.08, 1325.28 317.23, 1327.01 310.80, 1319.35 314.22, 1309.95" style="stroke:black; fill:none" />
<polyline points="240.78, 1250.48 254.38, 1261.50 251.64, 1278.78 235.31, 1285.05 221.71, 1274.04 224.44, 1256.76 240.78, 1250.48" style="stroke:black; fill:none" />
<polyline points="244.07, 1219.16 243.03, 1229.10 233.89, 1233.17 225.80, 1227.29 226.85, 1217.35 235.98, 1213.28 244.07, 1219.16" style="stroke:black; fill:none" />
<polyline points="313.93, 1236.57 311.51, 1235.97 310.82, 1233.57 312.56, 1231.77 314.98, 1232.37 315.67, 1234.78 313.93, 1236.57" style="stroke:black; fill:none" />
<polyline points="257.56, 1149.77 258.93, 1151.87 257.79, 1154.10 255.29, 1154.23 253.93, 1152.13 255.07, 1149.90 257.56, 1149.77" style="stroke:black; fill:none" />
<polyline points="260.57, 1184.14 259.70, 1174.18 267.89, 1168.44 276.95, 1172.67 277.83, 1182.63 269.63, 1188.37 260.57, 1184.14" style="stroke:black; fill:none" />
<polyline points="270.31, 1214.10 269.53, 1211.72 271.21, 1209.86 273.65, 1210.38 274.42, 1212.76 272.75, 1214.62 270.31, 1214.10" style="stroke:black; fill:none" />
<polyline points="238.92, 1224.30 248.43, 1221.21 255.86, 1227.90 253.78, 1237.68 244.27, 1240.77 236.84, 1234.08 238.92, 1224.30" style="stroke:black; fill:none" />
<polyline points="242.38, 1125.36 241.76, 1142.85 226.31, 1151.06 211.47, 1141.79 212.08, 1124.30 227.53, 1116.08 242.38, 1125.36" style="stroke:black; fill:none" />
<polyline points="252.71, 1089.31 247.89, 1106.13 230.91, 1110.37 218.75, 1097.78 223.57, 1080.96 240.56, 1076.72 252.71, 1089.31" style="stroke:black; fill:none" />
<polyline points="195.61, 1062.69 197.88, 1063.74 198.10, 1066.23 196.05, 1067.67 193.78, 1066.61 193.57, 1064.12 195.61, 1062.69" style="stroke:black; fill:none" />
<polyline points="136.64, 1021.39 144.83, 1027.12 143.96, 1037.09 134.89, 1041.31 126.70, 1035.58 127.57, 1025.61 136.64, 1021.39" style="stroke:black; fill:none" />
<polyline points="87.32, 1122.50 88.41, 1120.25 90.91, 1120.08 92.31, 1122.15 91.21, 1124.40 88.72, 1124.57 87.32, 1122.50" style="stroke:black; fill:none" />
<polyline points="131.67, 1069.64 130.06, 1071.56 127.60, 1071.13 126.75, 1068.78 128.35, 1066.86 130.82, 1067.30 131.67, 1069.64" style="stroke:black; fill:none" />
<polyline points="178.49, 1027.49 165.48, 1039.20 148.84, 1033.79 145.20, 1016.67 158.21, 1004.96 174.85, 1010.37 178.49, 1027.49" style="stroke:black; fill:none" />
<polyline points="220.43, 965.31 219.03, 967.38 216.54, 967.21 215.44, 964.96 216.84, 962.89 219.33, 963.06 220.43, 965.31" style="stroke:black; fill:none" />
<polyline points="332.50, 975.12 315.07, 973.59 307.67, 957.73 317.71, 943.40 335.14, 944.92 342.54, 960.78 332.50, 975.12" style="stroke:black; fill:none" />
<polyline points="300.70, 994.99 315.54, 985.72 330.99, 993.93 331.60, 1011.42 316.76, 1020.69 301.31, 1012.48 300.70, 994.99" style="stroke:black; fill:none" />
<polyline points="226.89, 910.08 233.45, 917.63 230.20, 927.09 220.38, 928.99 213.82, 921.45 217.08, 911.99 226.89, 910.08" style="stroke:black; fill:none" />
<polyline points="217.82, 873.70 218.42, 876.12 216.63, 877.86 214.22, 877.17 213.62, 874.75 215.42, 873.01 217.82, 873.70" style="stroke:black; fill:none" />
<polyline points="303.47, 913.64 301.20, 912.58 300.98, 910.09 303.03, 908.65 305.30, 909.71 305.51, 912.20 303.47, 913.64" style="stroke:black; fill:none" />
<polyline points="282.96, 854.07 283.77, 856.43 282.13, 858.32 279.67, 857.84 278.86, 855.48 280.50, 853.59 282.96, 854.07" style="stroke:black; fill:none" />
<polyline points="284.68, 887.02 284.16, 877.04 292.55, 871.59 301.46, 876.13 301.98, 886.12 293.59, 891.56 284.68, 887.02" style="stroke:black; fill:none" />
<polyline points="329.95, 939.10 318.47, 925.89 324.17, 909.34 341.35, 906.00 352.83, 919.21 347.13, 935.76 329.95, 939.10" style="stroke:black; fill:none" />
<polyline points="310.16, 967.36 315.90, 959.17 325.86, 960.04 330.09, 969.10 324.35, 977.29 314.39, 976.42 310.16, 967.36" style="stroke:black; fill:none" />
<polyline points="342.97, 978.02 333.46, 974.93 331.38, 965.15 338.82, 958.46 348.33, 961.55 350.40, 971.33 342.97, 978.02" style="stroke:black; fill:none" />
<polyline points="374.47, 1032.58 365.72, 1017.42 374.47, 1002.27 391.97, 1002.27 400.72, 1017.42 391.97, 1032.58 374.47, 1032.58" style="stroke:black; fill:none" />
<polyline points="392.47, 1001.40 391.22, 1003.57 388.72, 1003.57 387.47, 1001.40 388.72, 999.24 391.22, 999.24 392.47, 1001.40" style="stroke:black; fill:none" />
<polyline points="321.57, 1013.90 338.80, 1010.87 350.05, 1024.27 344.06, 1040.72 326.83, 1043.75 315.58, 1030.35 321.57, 1013.90" style="stroke:black; fill:none" />
<polyline points="286.64, 1005.20 296.34, 1007.61 299.10, 1017.23 292.15, 1024.42 282.45, 1022.00 279.69, 1012.39 286.64, 1005.20" style="stroke:black; fill:none" />
<polyline points="329.12, 950.82 327.58, 952.79 325.10, 952.44 324.17, 950.13 325.70, 948.16 328.18, 948.50 329.12, 950.82" style="stroke:black; fill:none" />
<polyline points="259.70, 868.09 270.94, 881.50 264.96, 897.94 247.73, 900.98 236.48, 887.57 242.46, 871.13 259.70, 868.09" style="stroke:black; fill:none" />
<polyline points="245.65, 833.32 249.39, 842.59 243.24, 850.47 233.34, 849.08 229.59, 839.81 235.75, 831.93 245.65, 833.32" style="stroke:black; fill:none" />
<polyline points="215.11, 778.22 216.32, 780.41 215.03, 782.55 212.53, 782.51 211.32, 780.32 212.61, 778.18 215.11, 778.22" style="stroke:black; fill:none" />
<polyline points="200.07, 671.27 200.42, 673.75 198.45, 675.29 196.13, 674.35 195.79, 671.87 197.76, 670.33 200.07, 671.27" style="stroke:black; fill:none" />
<polyline points="92.22, 676.92 94.72, 676.79 96.08, 678.89 94.95, 681.12 92.45, 681.25 91.09, 679.15 92.22, 676.92" style="stroke:black; fill:none" />
<polyline points="10.66, 613.20 18.54, 619.36 17.15, 629.26  7.88, 633.01  0.00, 626.85  1.39, 616.95 10.66, 613.20" style="stroke:black; fill:none" />
</svg>