<svg height="1500" width="1500" xmlns="http://www.w3.org/2000/svg">
<polyline points="729.97, 708.48 735.36, 715.14 733.52, 723.51 725.82, 727.29 718.07, 723.63 716.10, 715.29 721.40, 708.54 729.97, 708.48" style="stroke:black; fill:none" />
<polyline points="799.97, 778.48 798.46, 776.97 798.70, 774.84 800.51, 773.70 802.53, 774.41 803.24, 776.43 802.10, 778.24 799.97, 778.48" style="stroke:black; fill:none" />
<polyline points="834.49, 793.14 820.68, 787.28 816.66, 772.83 825.44, 760.67 840.43, 759.96 850.32, 771.23 847.68, 786.00 834.49, 793.14" style="stroke:black; fill:none" />
<polyline points="726.91, 826.03 728.96, 825.40 730.72, 826.61 730.88, 828.75 729.30, 830.20 727.19, 829.88 726.12, 828.02 726.91, 826.03" style="stroke:black; fill:none" />
<polyline points="742.66, 798.75 735.16, 811.74 720.32, 813.97 709.33, 803.77 710.45, 788.81 722.84, 780.36 737.18, 784.79 742.66, 798.75" style="stroke:black; fill:none" />
<polyline points="717.00, 869.23 717.74, 867.21 719.77, 866.53 721.57, 867.69 721.78, 869.82 720.25, 871.32 718.12, 871.05 717.00, 869.23" style="stroke:black; fill:none" />
<polyline points="742.66, 939.70 741.92, 937.69 743.04, 935.86 745.17, 935.59 746.70, 937.09 746.49, 939.22 744.69, 940.38 742.66, 939.70" style="stroke:black; fill:none" />
<polyline points="770.01, 921.25 762.91, 926.04 754.73, 923.47 751.64, 915.48 755.96, 908.08 764.44, 906.84 770.70, 912.70 770.01, 921.25" style="stroke:black; fill:none" />
<polyline points="801.74, 912.15 787.32, 916.29 775.09, 907.59 774.27, 892.61 785.47, 882.63 800.25, 885.16 807.49, 898.30 801.74, 912.15" style="stroke:black; fill:none" />
<polyline points="742.64, 865.98 744.32, 867.30 744.35, 869.44 742.68, 870.79 740.59, 870.34 739.64, 868.42 740.55, 866.48 742.64, 865.98" style="stroke:black; fill:none" />
<polyline points="778.77, 814.37 773.85, 821.39 765.30, 821.93 759.55, 815.57 760.93, 807.11 768.41, 802.92 776.35, 806.15 778.77, 814.37" style="stroke:black; fill:none" />
<polyline points="712.79, 794.20 727.13, 798.58 732.65, 812.53 725.18, 825.54 710.35, 827.81 699.33, 817.64 700.41, 802.68 712.79, 794.20" style="stroke:black; fill:none" />
<polyline points="785.18, 733.45 783.54, 734.83 781.44, 734.41 780.46, 732.50 781.34, 730.55 783.42, 730.02 785.12, 731.31 785.18, 733.45" style="stroke:black; fill:none" />
<polyline points="713.35, 738.48 721.90, 737.88 727.70, 744.19 726.38, 752.66 718.94, 756.91 710.97, 753.74 708.49, 745.53 713.35, 738.48" style="stroke:black; fill:none" />
<polyline points="681.87, 739.58 684.01, 739.50 685.41, 741.13 685.00, 743.23 683.11, 744.23 681.14, 743.37 680.59, 741.30 681.87, 739.58" style="stroke:black; fill:none" />
<polyline points="636.23, 837.46 637.13, 835.52 639.22, 835.01 640.91, 836.33 640.94, 838.47 639.28, 839.83 637.18, 839.38 636.23, 837.46" style="stroke:black; fill:none" />
<polyline points="577.41, 814.88 591.42, 820.26 595.95, 834.56 587.59, 847.01 572.64, 848.25 562.35, 837.33 564.48, 822.48 577.41, 814.88" style="stroke:black; fill:none" />
<polyline points="635.59, 889.35 626.36, 877.53 629.84, 862.94 643.42, 856.56 656.87, 863.21 660.06, 877.86 650.59, 889.50 635.59, 889.35" style="stroke:black; fill:none" />
<polyline points="610.78, 913.31 616.94, 907.36 625.44, 908.47 629.87, 915.80 626.90, 923.84 618.76, 926.53 611.59, 921.85 610.78, 913.31" style="stroke:black; fill:none" />
<polyline points="626.05, 940.86 621.89, 933.37 625.16, 925.44 633.40, 923.06 640.39, 928.01 640.88, 936.57 634.50, 942.29 626.05, 940.86" style="stroke:black; fill:none" />
<polyline points="530.64, 1000.48 543.36, 992.53 557.51, 997.52 562.43, 1011.69 554.42, 1024.37 539.51, 1026.01 528.93, 1015.38 530.64, 1000.48" style="stroke:black; fill:none" />
<polyline points="419.24, 984.82 421.36, 985.12 422.45, 986.97 421.69, 988.97 419.64, 989.62 417.86, 988.43 417.68, 986.30 419.24, 984.82" style="stroke:black; fill:none" />
<polyline points="453.76, 970.17 445.87, 973.52 438.33, 969.44 436.82, 961.00 442.47, 954.56 451.04, 954.97 456.06, 961.91 453.76, 970.17" style="stroke:black; fill:none" />
<polyline points="460.91, 933.36 458.05, 948.08 444.75, 955.03 431.03, 948.96 427.22, 934.45 436.19, 922.43 451.18, 921.94 460.91, 933.36" style="stroke:black; fill:none" />
<polyline points="464.84, 1008.26 464.05, 993.28 475.27, 983.32 490.05, 985.89 497.26, 999.05 491.47, 1012.88 477.04, 1016.98 464.84, 1008.26" style="stroke:black; fill:none" />
<polyline points="468.13, 1102.70 467.84, 1094.13 474.35, 1088.56 482.76, 1090.17 486.75, 1097.76 483.30, 1105.61 475.02, 1107.81 468.13, 1102.70" style="stroke:black; fill:none" />
<polyline points="505.54, 1105.31 503.41, 1105.17 502.19, 1103.40 502.81, 1101.35 504.80, 1100.56 506.66, 1101.62 506.99, 1103.74 505.54, 1105.31" style="stroke:black; fill:none" />
<polyline points="541.49, 1103.43 526.51, 1104.22 516.56, 1092.99 519.13, 1078.22 532.28, 1071.01 546.12, 1076.80 550.22, 1091.23 541.49, 1103.43" style="stroke:black; fill:none" />
<polyline points="534.96, 1028.72 536.26, 1043.66 525.40, 1054.00 510.54, 1051.95 502.88, 1039.05 508.18, 1025.02 522.46, 1020.42 534.96, 1028.72" style="stroke:black; fill:none" />
<polyline points="520.61, 961.22 522.39, 969.61 516.95, 976.23 508.38, 976.10 503.14, 969.32 505.17, 960.99 512.95, 957.39 520.61, 961.22" style="stroke:black; fill:none" />
<polyline points="489.34, 946.64 497.11, 950.27 499.12, 958.60 493.86, 965.37 485.29, 965.47 479.86, 958.84 481.67, 950.46 489.34, 946.64" style="stroke:black; fill:none" />
<polyline points="465.05, 841.41 465.53, 843.50 464.20, 845.18 462.06, 845.18 460.72, 843.51 461.19, 841.42 463.12, 840.49 465.05, 841.41" style="stroke:black; fill:none" />
<polyline points="493.00, 945.73 492.45, 943.66 493.72, 941.94 495.86, 941.86 497.26, 943.48 496.86, 945.59 494.97, 946.59 493.00, 945.73" style="stroke:black; fill:none" />
<polyline points="502.10, 914.01 499.73, 922.25 491.82, 925.54 484.31, 921.40 482.87, 912.95 488.57, 906.56 497.13, 907.03 502.10, 914.01" style="stroke:black; fill:none" />
<polyline points="531.30, 925.81 517.40, 920.19 513.12, 905.81 521.69, 893.51 536.66, 892.53 546.75, 903.63 544.37, 918.44 531.30, 925.81" style="stroke:black; fill:none" />
<polyline points="463.33, 860.16 474.12, 870.58 472.70, 885.52 460.14, 893.72 445.89, 889.01 440.69, 874.94 448.45, 862.10 463.33, 860.16" style="stroke:black; fill:none" />
<polyline points="406.12, 821.58 413.23, 826.37 413.91, 834.92 407.66, 840.78 399.18, 839.54 394.85, 832.14 397.94, 824.15 406.12, 821.58" style="stroke:black; fill:none" />
<polyline points="434.42, 846.18 427.96, 840.56 428.32, 832.00 435.24, 826.94 443.51, 829.20 446.90, 837.07 442.85, 844.63 434.42, 846.18" style="stroke:black; fill:none" />
<polyline points="385.75, 927.18 390.17, 919.84 398.66, 918.71 404.84, 924.65 404.06, 933.18 396.89, 937.89 388.74, 935.22 385.75, 927.18" style="stroke:black; fill:none" />
<polyline points="350.02, 922.80 352.15, 923.06 353.27, 924.88 352.54, 926.90 350.51, 927.59 348.71, 926.43 348.49, 924.30 350.02, 922.80" style="stroke:black; fill:none" />
<polyline points="313.89, 974.40 322.49, 962.12 337.46, 961.18 347.53, 972.30 345.10, 987.11 332.02, 994.45 318.13, 988.79 313.89, 974.40" style="stroke:black; fill:none" />
<polyline points="280.72, 983.91 282.78, 983.32 284.53, 984.57 284.65, 986.70 283.05, 988.13 280.93, 987.77 279.90, 985.89 280.72, 983.91" style="stroke:black; fill:none" />
<polyline points="239.42, 1042.89 248.03, 1030.61 263.00, 1029.67 273.06, 1040.79 270.64, 1055.60 257.56, 1062.93 243.67, 1057.28 239.42, 1042.89" style="stroke:black; fill:none" />
<polyline points="275.47, 1032.56 267.23, 1034.92 260.25, 1029.95 259.78, 1021.39 266.18, 1015.69 274.63, 1017.13 278.76, 1024.64 275.47, 1032.56" style="stroke:black; fill:none" />
<polyline points="288.50, 1106.42 288.12, 1104.31 289.54, 1102.70 291.68, 1102.81 292.93, 1104.55 292.35, 1106.61 290.38, 1107.44 288.50, 1106.42" style="stroke:black; fill:none" />
<polyline points="336.49, 1193.00 329.22, 1179.88 334.94, 1166.02 349.35, 1161.85 361.60, 1170.51 362.46, 1185.49 351.28, 1195.50 336.49, 1193.00" style="stroke:black; fill:none" />
<polyline points="335.24, 1264.99 335.50, 1250.00 347.39, 1240.85 361.95, 1244.44 368.22, 1258.07 361.48, 1271.47 346.80, 1274.55 335.24, 1264.99" style="stroke:black; fill:none" />
<polyline points="436.06, 1303.70 434.06, 1302.93 433.41, 1300.89 434.61, 1299.11 436.74, 1298.93 438.21, 1300.49 437.91, 1302.61 436.06, 1303.70" style="stroke:black; fill:none" />
<polyline points="341.71, 1364.97 348.90, 1360.30 357.03, 1363.01 359.98, 1371.06 355.53, 1378.38 347.03, 1379.47 340.88, 1373.50 341.71, 1364.97" style="stroke:black; fill:none" />
<polyline points="375.95, 1376.09 373.91, 1375.43 373.16, 1373.43 374.26, 1371.59 376.38, 1371.30 377.93, 1372.78 377.74, 1374.91 375.95, 1376.09" style="stroke:black; fill:none" />
<polyline points="392.85, 1407.88 385.81, 1394.64 391.77, 1380.87 406.25, 1376.95 418.34, 1385.83 418.94, 1400.82 407.60, 1410.63 392.85, 1407.88" style="stroke:black; fill:none" />
<polyline points="290.36, 1422.28 298.85, 1421.09 305.07, 1426.98 304.34, 1435.52 297.22, 1440.28 289.05, 1437.67 286.00, 1429.66 290.36, 1422.28" style="stroke:black; fill:none" />
<polyline points="256.05, 1425.89 258.18, 1425.67 259.68, 1427.19 259.43, 1429.32 257.60, 1430.45 255.59, 1429.72 254.89, 1427.70 256.05, 1425.89" style="stroke:black; fill:none" />
<polyline points="267.33, 1456.90 264.40, 1448.85 268.87, 1441.53 277.38, 1440.47 283.51, 1446.45 282.66, 1454.98 275.46, 1459.63 267.33, 1456.90" style="stroke:black; fill:none" />
<polyline points="321.25, 1373.87 313.08, 1386.45 298.15, 1387.91 287.71, 1377.14 289.61, 1362.27 302.43, 1354.48 316.51, 1359.64 321.25, 1373.87" style="stroke:black; fill:none" />
<polyline points="258.95, 1450.81 268.39, 1439.15 283.39, 1439.26 292.65, 1451.06 289.21, 1465.66 275.64, 1472.07 262.18, 1465.46 258.95, 1450.81" style="stroke:black; fill:none" />
<polyline points="297.43, 1345.09 296.69, 1347.11 294.66, 1347.79 292.86, 1346.63 292.65, 1344.49 294.18, 1343.00 296.31, 1343.27 297.43, 1345.09" style="stroke:black; fill:none" />
<polyline points="225.04, 1405.84 231.60, 1400.33 240.00, 1402.03 243.91, 1409.65 240.39, 1417.47 232.08, 1419.58 225.25, 1414.41 225.04, 1405.84" style="stroke:black; fill:none" />
<polyline points="245.31, 1433.75 240.28, 1426.81 242.56, 1418.55 250.44, 1415.18 257.99, 1419.24 259.52, 1427.68 253.88, 1434.13 245.31, 1433.75" style="stroke:black; fill:none" />
<polyline points="333.97, 1364.49 332.28, 1365.81 330.19, 1365.31 329.28, 1363.37 330.23, 1361.45 332.33, 1360.99 333.99, 1362.34 333.97, 1364.49" style="stroke:black; fill:none" />
<polyline points="400.21, 1290.91 398.78, 1292.51 396.64, 1292.38 395.40, 1290.63 396.00, 1288.57 397.99, 1287.76 399.86, 1288.80 400.21, 1290.91" style="stroke:black; fill:none" />
<polyline points="449.24, 1194.69 448.27, 1196.60 446.17, 1197.03 444.52, 1195.65 444.57, 1193.51 446.28, 1192.21 448.35, 1192.74 449.24, 1194.69" style="stroke:black; fill:none" />
<polyline points="415.27, 1200.68 423.71, 1199.19 430.13, 1204.86 429.71, 1213.42 422.75, 1218.42 414.50, 1216.10 411.17, 1208.20 415.27, 1200.68" style="stroke:black; fill:none" />
<polyline points="412.00, 1238.03 412.18, 1235.90 413.97, 1234.71 416.01, 1235.37 416.77, 1237.38 415.67, 1239.22 413.55, 1239.51 412.00, 1238.03" style="stroke:black; fill:none" />
<polyline points="422.34, 1336.49 420.78, 1321.57 431.46, 1311.05 446.36, 1312.84 454.24, 1325.60 449.18, 1339.72 434.99, 1344.57 422.34, 1336.49" style="stroke:black; fill:none" />
<polyline points="404.37, 1308.82 409.04, 1316.00 406.33, 1324.14 398.28, 1327.09 390.96, 1322.64 389.87, 1314.13 395.84, 1307.98 404.37, 1308.82" style="stroke:black; fill:none" />
<polyline points="477.94, 1375.06 471.57, 1369.32 472.09, 1360.77 479.10, 1355.83 487.32, 1358.24 490.57, 1366.17 486.40, 1373.66 477.94, 1375.06" style="stroke:black; fill:none" />
<polyline points="505.56, 1318.44 501.80, 1326.14 493.44, 1328.01 486.76, 1322.63 486.81, 1314.06 493.53, 1308.75 501.88, 1310.69 505.56, 1318.44" style="stroke:black; fill:none" />
<polyline points="433.25, 1232.26 434.62, 1233.90 434.20, 1236.00 432.29, 1236.98 430.34, 1236.09 429.81, 1234.02 431.10, 1232.31 433.25, 1232.26" style="stroke:black; fill:none" />
<polyline points="527.73, 1230.61 525.59, 1230.64 524.23, 1228.99 524.67, 1226.90 526.58, 1225.93 528.53, 1226.83 529.04, 1228.91 527.73, 1230.61" style="stroke:black; fill:none" />
<polyline points="529.04, 1305.60 528.89, 1297.03 535.50, 1291.56 543.89, 1293.33 547.74, 1300.98 544.16, 1308.77 535.84, 1310.82 529.04, 1305.60" style="stroke:black; fill:none" />
<polyline points="502.71, 1330.15 513.68, 1319.92 528.52, 1322.12 536.05, 1335.09 530.61, 1349.06 516.29, 1353.52 503.87, 1345.10 502.71, 1330.15" style="stroke:black; fill:none" />
<polyline points="397.00, 1291.67 411.09, 1296.80 415.87, 1311.02 407.73, 1323.62 392.81, 1325.11 382.33, 1314.37 384.20, 1299.49 397.00, 1291.67" style="stroke:black; fill:none" />
<polyline points="384.93, 1389.93 385.19, 1387.81 387.02, 1386.68 389.03, 1387.41 389.72, 1389.44 388.56, 1391.24 386.43, 1391.46 384.93, 1389.93" style="stroke:black; fill:none" />
<polyline points="437.39, 1305.98 429.45, 1318.70 414.54, 1320.41 403.91, 1309.83 405.55, 1294.92 418.23, 1286.91 432.40, 1291.83 437.39, 1305.98" style="stroke:black; fill:none" />
<polyline points="439.12, 1273.02 439.01, 1275.16 437.27, 1276.41 435.20, 1275.82 434.38, 1273.84 435.41, 1271.97 437.52, 1271.60 439.12, 1273.02" style="stroke:black; fill:none" />
<polyline points="495.75, 1245.40 488.04, 1249.16 480.30, 1245.48 478.35, 1237.13 483.66, 1230.41 492.23, 1230.36 497.61, 1237.04 495.75, 1245.40" style="stroke:black; fill:none" />
<polyline points="523.64, 1185.59 522.73, 1187.53 520.65, 1188.03 518.96, 1186.72 518.93, 1184.57 520.59, 1183.22 522.68, 1183.67 523.64, 1185.59" style="stroke:black; fill:none" />
<polyline points="453.05, 1261.28 463.28, 1250.31 478.24, 1251.47 486.66, 1263.88 482.20, 1278.21 468.22, 1283.65 455.25, 1276.12 453.05, 1261.28" style="stroke:black; fill:none" />
<polyline points="534.56, 1332.14 528.09, 1326.51 528.45, 1317.95 535.38, 1312.89 543.64, 1315.15 547.03, 1323.03 542.99, 1330.58 534.56, 1332.14" style="stroke:black; fill:none" />
<polyline points="503.18, 1334.88 518.12, 1333.57 528.46, 1344.44 526.41, 1359.30 513.52, 1366.96 499.48, 1361.66 494.89, 1347.38 503.18, 1334.88" style="stroke:black; fill:none" />
<polyline points="572.73, 1316.25 564.45, 1318.47 557.55, 1313.38 557.23, 1304.81 563.73, 1299.22 572.15, 1300.81 576.15, 1308.39 572.73, 1316.25" style="stroke:black; fill:none" />
<polyline points="633.56, 1232.51 624.75, 1244.65 609.76, 1245.32 599.89, 1234.03 602.57, 1219.27 615.78, 1212.16 629.57, 1218.05 633.56, 1232.51" style="stroke:black; fill:none" />
<polyline points="663.84, 1223.83 661.78, 1224.42 660.04, 1223.18 659.92, 1221.04 661.52, 1219.61 663.63, 1219.98 664.66, 1221.85 663.84, 1223.83" style="stroke:black; fill:none" />
<polyline points="651.82, 1285.67 653.46, 1277.26 661.05, 1273.29 668.89, 1276.76 671.07, 1285.05 665.95, 1291.92 657.38, 1292.20 651.82, 1285.67" style="stroke:black; fill:none" />
<polyline points="618.93, 1393.26 621.44, 1385.06 629.41, 1381.91 636.84, 1386.18 638.14, 1394.65 632.32, 1400.95 623.78, 1400.33 618.93, 1393.26" style="stroke:black; fill:none" />
<polyline points="612.68, 1428.71 615.28, 1413.94 628.46, 1406.76 642.28, 1412.59 646.34, 1427.03 637.58, 1439.21 622.60, 1439.96 612.68, 1428.71" style="stroke:black; fill:none" />
<polyline points="590.40, 1450.98 596.47, 1444.92 604.98, 1445.88 609.54, 1453.14 606.71, 1461.23 598.62, 1464.06 591.36, 1459.50 590.40, 1450.98" style="stroke:black; fill:none" />
<polyline points="603.72, 1479.53 600.09, 1471.76 603.91, 1464.09 612.29, 1462.29 618.92, 1467.71 618.82, 1476.28 612.05, 1481.54 603.72, 1479.53" style="stroke:black; fill:none" />
<polyline points="669.96, 1405.96 664.23, 1412.33 655.67, 1411.82 650.74, 1404.81 653.14, 1396.58 661.07, 1393.33 668.56, 1397.51 669.96, 1405.96" style="stroke:black; fill:none" />
<polyline points="759.69, 1364.12 746.09, 1370.46 732.66, 1363.79 729.50, 1349.12 739.00, 1337.51 754.00, 1337.70 763.20, 1349.54 759.69, 1364.12" style="stroke:black; fill:none" />
<polyline points="730.52, 1426.66 734.15, 1418.89 742.48, 1416.88 749.25, 1422.14 749.35, 1430.71 742.72, 1436.14 734.34, 1434.33 730.52, 1426.66" style="stroke:black; fill:none" />
<polyline points="764.78, 1441.91 762.82, 1441.04 762.29, 1438.97 763.57, 1437.25 765.71, 1437.19 767.10, 1438.82 766.68, 1440.92 764.78, 1441.91" style="stroke:black; fill:none" />
<polyline points="771.96, 1408.16 768.84, 1422.84 755.42, 1429.55 741.81, 1423.24 738.25, 1408.67 747.43, 1396.80 762.43, 1396.58 771.96, 1408.16" style="stroke:black; fill:none" />
<polyline points="749.38, 1346.14 754.51, 1360.24 746.69, 1373.04 731.81, 1374.90 721.07, 1364.43 722.56, 1349.51 735.16, 1341.37 749.38, 1346.14" style="stroke:black; fill:none" />
<polyline points="717.03, 1330.36 724.73, 1334.12 726.59, 1342.49 721.22, 1349.16 712.65, 1349.12 707.34, 1342.39 709.28, 1334.04 717.03, 1330.36" style="stroke:black; fill:none" />
<polyline points="709.04, 1298.34 711.12, 1306.66 705.91, 1313.47 697.34, 1313.64 691.86, 1307.04 693.60, 1298.65 701.25, 1294.78 709.04, 1298.34" style="stroke:black; fill:none" />
<polyline points="673.83, 1364.56 674.84, 1362.67 676.94, 1362.28 678.56, 1363.68 678.48, 1365.82 676.75, 1367.09 674.68, 1366.53 673.83, 1364.56" style="stroke:black; fill:none" />
<polyline points="592.91, 1442.71 594.45, 1441.23 596.57, 1441.50 597.68, 1443.34 596.94, 1445.35 594.90, 1446.02 593.11, 1444.85 592.91, 1442.71" style="stroke:black; fill:none" />
<polyline points="681.13, 1408.85 673.13, 1411.92 665.74, 1407.58 664.52, 1399.09 670.40, 1392.85 678.94, 1393.56 683.72, 1400.68 681.13, 1408.85" style="stroke:black; fill:none" />
<polyline points="767.93, 1352.48 766.13, 1353.64 764.10, 1352.97 763.36, 1350.96 764.48, 1349.12 766.60, 1348.85 768.14, 1350.35 767.93, 1352.48" style="stroke:black; fill:none" />
<polyline points="795.22, 1257.31 792.86, 1265.55 784.94, 1268.84 777.44, 1264.71 775.99, 1256.26 781.69, 1249.86 790.25, 1250.33 795.22, 1257.31" style="stroke:black; fill:none" />
<polyline points="720.50, 1322.26 722.12, 1320.86 724.23, 1321.24 725.24, 1323.13 724.39, 1325.10 722.32, 1325.67 720.59, 1324.40 720.50, 1322.26" style="stroke:black; fill:none" />
<polyline points="718.30, 1385.22 718.38, 1383.08 720.10, 1381.81 722.17, 1382.36 723.03, 1384.32 722.04, 1386.21 719.93, 1386.62 718.30, 1385.22" style="stroke:black; fill:none" />
<polyline points="710.46, 1273.00 711.06, 1281.55 704.74, 1287.35 696.27, 1286.03 692.02, 1278.58 695.20, 1270.62 703.40, 1268.13 710.46, 1273.00" style="stroke:black; fill:none" />
<polyline points="718.69, 1178.86 717.39, 1193.80 704.89, 1202.10 690.61, 1197.50 685.31, 1183.47 692.97, 1170.57 707.83, 1168.52 718.69, 1178.86" style="stroke:black; fill:none" />
<polyline points="751.11, 1190.66 743.06, 1187.73 740.33, 1179.60 744.98, 1172.40 753.51, 1171.55 759.49, 1177.68 758.43, 1186.19 751.11, 1190.66" style="stroke:black; fill:none" />
<polyline points="734.03, 1254.41 734.59, 1252.34 736.55, 1251.48 738.44, 1252.48 738.84, 1254.59 737.44, 1256.21 735.30, 1256.13 734.03, 1254.41" style="stroke:black; fill:none" />
<polyline points="735.84, 1357.89 735.80, 1355.75 737.45, 1354.39 739.55, 1354.83 740.51, 1356.74 739.62, 1358.69 737.54, 1359.20 735.84, 1357.89" style="stroke:black; fill:none" />
<polyline points="637.98, 1324.20 646.08, 1326.99 648.95, 1335.06 644.43, 1342.34 635.91, 1343.35 629.82, 1337.32 630.74, 1328.79 637.98, 1324.20" style="stroke:black; fill:none" />
<polyline points="604.87, 1341.80 618.11, 1334.76 631.87, 1340.72 635.79, 1355.20 626.91, 1367.29 611.93, 1367.89 602.11, 1356.55 604.87, 1341.80" style="stroke:black; fill:none" />
<polyline points="627.44, 1279.78 626.71, 1281.80 624.67, 1282.48 622.87, 1281.32 622.66, 1279.18 624.20, 1277.69 626.32, 1277.95 627.44, 1279.78" style="stroke:black; fill:none" />
<polyline points="569.94, 1236.45 571.65, 1237.74 571.71, 1239.88 570.07, 1241.26 567.97, 1240.85 566.99, 1238.94 567.86, 1236.99 569.94, 1236.45" style="stroke:black; fill:none" />
<polyline points="602.81, 1239.33 594.27, 1238.58 589.53, 1231.44 592.16, 1223.28 600.18, 1220.25 607.55, 1224.63 608.72, 1233.12 602.81, 1239.33" style="stroke:black; fill:none" />
<polyline points="622.42, 1269.52 614.25, 1256.94 618.99, 1242.71 633.07, 1237.54 645.89, 1245.33 647.79, 1260.21 637.35, 1270.98 622.42, 1269.52" style="stroke:black; fill:none" />
<polyline points="654.63, 1281.88 652.63, 1281.12 651.98, 1279.07 653.17, 1277.29 655.31, 1277.12 656.78, 1278.68 656.47, 1280.80 654.63, 1281.88" style="stroke:black; fill:none" />
<polyline points="717.03, 1260.40 715.01, 1261.09 713.20, 1259.94 712.97, 1257.81 714.49, 1256.31 716.62, 1256.56 717.75, 1258.38 717.03, 1260.40" style="stroke:black; fill:none" />
<polyline points="750.86, 1272.71 748.85, 1271.98 748.16, 1269.94 749.33, 1268.14 751.46, 1267.93 752.95, 1269.47 752.69, 1271.59 750.86, 1272.71" style="stroke:black; fill:none" />
<polyline points="768.28, 1202.85 764.65, 1217.40 751.01, 1223.64 737.63, 1216.86 734.58, 1202.18 744.16, 1190.64 759.16, 1190.94 768.28, 1202.85" style="stroke:black; fill:none" />
<polyline points="734.11, 1198.05 736.24, 1198.34 737.33, 1200.19 736.56, 1202.19 734.52, 1202.84 732.74, 1201.65 732.56, 1199.52 734.11, 1198.05" style="stroke:black; fill:none" />
<polyline points="708.49, 1293.67 712.37, 1279.18 726.12, 1273.19 739.38, 1280.19 742.17, 1294.93 732.39, 1306.30 717.40, 1305.74 708.49, 1293.67" style="stroke:black; fill:none" />
<polyline points="758.30, 1250.37 751.83, 1256.00 743.40, 1254.44 739.36, 1246.89 742.75, 1239.01 751.02, 1236.75 757.94, 1241.81 758.30, 1250.37" style="stroke:black; fill:none" />
<polyline points="728.70, 1239.60 730.72, 1240.33 731.40, 1242.36 730.24, 1244.16 728.10, 1244.38 726.61, 1242.84 726.87, 1240.72 728.70, 1239.60" style="stroke:black; fill:none" />
<polyline points="733.93, 1164.78 732.89, 1179.75 720.54, 1188.26 706.18, 1183.91 700.63, 1169.97 708.07, 1156.94 722.89, 1154.63 733.93, 1164.78" style="stroke:black; fill:none" />
<polyline points="767.93, 1108.21 763.51, 1115.56 755.01, 1116.69 748.83, 1110.75 749.62, 1102.21 756.79, 1097.51 764.93, 1100.18 767.93, 1108.21" style="stroke:black; fill:none" />
<polyline points="775.91, 1076.19 772.28, 1090.74 758.64, 1096.98 745.26, 1090.20 742.21, 1075.52 751.80, 1063.98 766.79, 1064.28 775.91, 1076.19" style="stroke:black; fill:none" />
<polyline points="764.97, 1014.15 766.46, 1022.59 760.79, 1029.01 752.23, 1028.59 747.22, 1021.63 749.54, 1013.38 757.44, 1010.05 764.97, 1014.15" style="stroke:black; fill:none" />
<polyline points="782.57, 1125.26 782.23, 1123.14 783.68, 1121.56 785.82, 1121.71 787.04, 1123.47 786.42, 1125.52 784.43, 1126.32 782.57, 1125.26" style="stroke:black; fill:none" />
<polyline points="867.47, 1199.07 856.15, 1189.23 856.79, 1174.24 868.90, 1165.39 883.37, 1169.35 889.30, 1183.13 882.23, 1196.35 867.47, 1199.07" style="stroke:black; fill:none" />
<polyline points="911.84, 1282.51 907.81, 1274.94 911.22, 1267.07 919.50, 1264.83 926.41, 1269.91 926.75, 1278.47 920.26, 1284.08 911.84, 1282.51" style="stroke:black; fill:none" />
<polyline points="1016.15, 1324.65 1008.20, 1321.44 1005.75, 1313.22 1010.65, 1306.19 1019.21, 1305.63 1024.97, 1311.98 1023.61, 1320.44 1016.15, 1324.65" style="stroke:black; fill:none" />
<polyline points="1012.69, 1258.74 1012.80, 1260.88 1011.20, 1262.30 1009.09, 1261.93 1008.06, 1260.06 1008.89, 1258.08 1010.95, 1257.49 1012.69, 1258.74" style="stroke:black; fill:none" />
<polyline points="1048.15, 1270.95 1040.04, 1268.16 1037.17, 1260.08 1041.70, 1252.80 1050.21, 1251.80 1056.30, 1257.83 1055.38, 1266.35 1048.15, 1270.95" style="stroke:black; fill:none" />
<polyline points="1111.87, 1352.51 1106.59, 1345.75 1108.58, 1337.42 1116.34, 1333.77 1124.03, 1337.57 1125.85, 1345.95 1120.44, 1352.59 1111.87, 1352.51" style="stroke:black; fill:none" />
<polyline points="1168.65, 1271.41 1163.74, 1278.43 1155.18, 1278.97 1149.43, 1272.61 1150.81, 1264.15 1158.29, 1259.96 1166.23, 1263.19 1168.65, 1271.41" style="stroke:black; fill:none" />
<polyline points="1160.81, 1196.82 1162.38, 1211.74 1151.70, 1222.27 1136.80, 1220.48 1128.92, 1207.72 1133.98, 1193.60 1148.17, 1188.75 1160.81, 1196.82" style="stroke:black; fill:none" />
<polyline points="1100.06, 1222.61 1107.95, 1219.26 1115.49, 1223.34 1117.00, 1231.78 1111.34, 1238.22 1102.78, 1237.81 1097.76, 1230.87 1100.06, 1222.61" style="stroke:black; fill:none" />
<polyline points="1075.58, 1202.79 1087.24, 1212.23 1087.13, 1227.23 1075.33, 1236.49 1060.73, 1233.04 1054.32, 1219.48 1060.93, 1206.02 1075.58, 1202.79" style="stroke:black; fill:none" />
<polyline points="1069.85, 1170.29 1071.34, 1178.73 1065.67, 1185.16 1057.11, 1184.73 1052.10, 1177.77 1054.42, 1169.52 1062.32, 1166.19 1069.85, 1170.29" style="stroke:black; fill:none" />
<polyline points="1049.18, 1242.38 1053.31, 1227.96 1067.16, 1222.21 1080.30, 1229.45 1082.83, 1244.23 1072.85, 1255.43 1057.87, 1254.61 1049.18, 1242.38" style="stroke:black; fill:none" />
<polyline points="1011.68, 1243.04 1020.25, 1242.89 1025.71, 1249.50 1023.95, 1257.88 1016.30, 1261.74 1008.51, 1258.15 1006.46, 1249.83 1011.68, 1243.04" style="stroke:black; fill:none" />
<polyline points="1038.01, 1267.59 1036.45, 1266.13 1036.61, 1263.99 1038.38, 1262.79 1040.43, 1263.43 1041.21, 1265.42 1040.13, 1267.28 1038.01, 1267.59" style="stroke:black; fill:none" />
<polyline points="1076.69, 1358.72 1075.86, 1356.75 1076.88, 1354.86 1078.99, 1354.49 1080.60, 1355.90 1080.50, 1358.04 1078.76, 1359.29 1076.69, 1358.72" style="stroke:black; fill:none" />
<polyline points="1047.58, 1467.39 1049.80, 1459.11 1057.65, 1455.68 1065.23, 1459.68 1066.82, 1468.11 1061.23, 1474.60 1052.67, 1474.28 1047.58, 1467.39" style="stroke:black; fill:none" />
<polyline points="1018.01, 1485.16 1025.35, 1480.74 1033.38, 1483.73 1036.05, 1491.88 1031.35, 1499.04 1022.81, 1499.83 1016.88, 1493.65 1018.01, 1485.16" style="stroke:black; fill:none" />
<polyline points="1049.03, 1490.63 1034.25, 1488.02 1027.08, 1474.85 1032.91, 1461.02 1047.35, 1456.96 1059.53, 1465.72 1060.27, 1480.70 1049.03, 1490.63" style="stroke:black; fill:none" />
<polyline points="993.67, 1454.68 995.47, 1455.85 995.68, 1457.98 994.14, 1459.47 992.02, 1459.20 990.90, 1457.37 991.64, 1455.36 993.67, 1454.68" style="stroke:black; fill:none" />
<polyline points="942.07, 1490.81 943.82, 1489.59 945.88, 1490.19 946.69, 1492.18 945.64, 1494.04 943.52, 1494.39 941.93, 1492.95 942.07, 1490.81" style="stroke:black; fill:none" />
<polyline points="991.71, 1452.03 984.96, 1457.30 976.62, 1455.31 972.98, 1447.55 976.78, 1439.87 985.15, 1438.05 991.80, 1443.46 991.71, 1452.03" style="stroke:black; fill:none" />
<polyline points="979.50, 1416.57 982.29, 1424.68 977.70, 1431.91 969.18, 1432.83 963.15, 1426.74 964.15, 1418.22 971.43, 1413.70 979.50, 1416.57" style="stroke:black; fill:none" />
<polyline points="1020.84, 1464.12 1019.43, 1462.50 1019.82, 1460.39 1021.71, 1459.38 1023.68, 1460.23 1024.24, 1462.30 1022.98, 1464.03 1020.84, 1464.12" style="stroke:black; fill:none" />
<polyline points="1063.03, 1364.70 1059.69, 1372.59 1051.43, 1374.89 1044.48, 1369.87 1044.08, 1361.31 1050.52, 1355.66 1058.95, 1357.16 1063.03, 1364.70" style="stroke:black; fill:none" />
<polyline points="1095.31, 1371.56 1093.22, 1371.12 1092.26, 1369.20 1093.16, 1367.26 1095.24, 1366.75 1096.94, 1368.06 1096.97, 1370.20 1095.31, 1371.56" style="stroke:black; fill:none" />
<polyline points="1111.72, 1464.63 1110.23, 1456.19 1115.91, 1449.76 1124.47, 1450.19 1129.47, 1457.15 1127.15, 1465.40 1119.25, 1468.73 1111.72, 1464.63" style="stroke:black; fill:none" />
<polyline points="1012.74, 1466.36 1021.31, 1466.21 1026.77, 1472.81 1025.01, 1481.20 1017.35, 1485.06 1009.56, 1481.47 1007.51, 1473.15 1012.74, 1466.36" style="stroke:black; fill:none" />
<polyline points="1111.60, 1471.54 1109.46, 1471.43 1108.22, 1469.68 1108.80, 1467.62 1110.78, 1466.79 1112.66, 1467.82 1113.02, 1469.93 1111.60, 1471.54" style="stroke:black; fill:none" />
<polyline points="1134.69, 1497.18 1128.95, 1490.81 1130.36, 1482.35 1137.84, 1478.18 1145.77, 1481.43 1148.18, 1489.65 1143.24, 1496.66 1134.69, 1497.18" style="stroke:black; fill:none" />
<polyline points="1156.85, 1468.81 1155.53, 1470.50 1153.39, 1470.52 1152.04, 1468.86 1152.49, 1466.76 1154.41, 1465.81 1156.35, 1466.72 1156.85, 1468.81" style="stroke:black; fill:none" />
<polyline points="1180.45, 1439.66 1175.06, 1446.33 1166.49, 1446.26 1161.19, 1439.52 1163.16, 1431.18 1170.91, 1427.52 1178.61, 1431.29 1180.45, 1439.66" style="stroke:black; fill:none" />
<polyline points="1254.90, 1367.77 1248.74, 1373.72 1240.24, 1372.61 1235.80, 1365.28 1238.78, 1357.24 1246.91, 1354.55 1254.09, 1359.23 1254.90, 1367.77" style="stroke:black; fill:none" />
<polyline points="1234.62, 1395.68 1235.88, 1393.94 1238.02, 1393.85 1239.43, 1395.46 1239.05, 1397.57 1237.16, 1398.59 1235.19, 1397.74 1234.62, 1395.68" style="stroke:black; fill:none" />
<polyline points="1216.77, 1329.03 1218.98, 1337.31 1213.89, 1344.21 1205.33, 1344.53 1199.74, 1338.03 1201.33, 1329.61 1208.91, 1325.60 1216.77, 1329.03" style="stroke:black; fill:none" />
<polyline points="1153.92, 1333.42 1168.88, 1332.38 1179.03, 1343.42 1176.72, 1358.25 1163.69, 1365.68 1149.76, 1360.13 1145.41, 1345.78 1153.92, 1333.42" style="stroke:black; fill:none" />
<polyline points="1187.96, 1345.14 1179.85, 1342.35 1176.98, 1334.28 1181.51, 1327.00 1190.02, 1326.00 1196.11, 1332.03 1195.19, 1340.55 1187.96, 1345.14" style="stroke:black; fill:none" />
<polyline points="1187.96, 1310.64 1187.96, 1312.79 1186.28, 1314.12 1184.19, 1313.65 1183.26, 1311.72 1184.19, 1309.79 1186.28, 1309.31 1187.96, 1310.64" style="stroke:black; fill:none" />
<polyline points="1161.44, 1337.16 1172.05, 1326.55 1186.95, 1328.23 1194.93, 1340.93 1189.98, 1355.09 1175.82, 1360.05 1163.12, 1352.07 1161.44, 1337.16" style="stroke:black; fill:none" />
<polyline points="1222.36, 1304.77 1214.80, 1308.79 1206.93, 1305.38 1204.69, 1297.11 1209.77, 1290.20 1218.33, 1289.86 1223.94, 1296.34 1222.36, 1304.77" style="stroke:black; fill:none" />
<polyline points="1153.33, 1334.07 1161.22, 1330.72 1168.75, 1334.80 1170.26, 1343.24 1164.61, 1349.68 1156.05, 1349.28 1151.03, 1342.33 1153.33, 1334.07" style="stroke:black; fill:none" />
<polyline points="1084.12, 1314.23 1086.18, 1314.82 1087.00, 1316.80 1085.96, 1318.67 1083.85, 1319.03 1082.25, 1317.61 1082.37, 1315.47 1084.12, 1314.23" style="stroke:black; fill:none" />
<polyline points="1091.20, 1344.92 1089.27, 1336.57 1094.60, 1329.85 1103.17, 1329.83 1108.53, 1336.52 1106.65, 1344.88 1098.93, 1348.62 1091.20, 1344.92" style="stroke:black; fill:none" />
<polyline points="1075.01, 1415.07 1078.38, 1400.46 1091.91, 1393.98 1105.41, 1400.53 1108.71, 1415.16 1099.33, 1426.86 1084.33, 1426.82 1075.01, 1415.07" style="stroke:black; fill:none" />
<polyline points="1143.63, 1422.29 1141.50, 1422.06 1140.34, 1420.26 1141.04, 1418.23 1143.05, 1417.51 1144.88, 1418.63 1145.13, 1420.76 1143.63, 1422.29" style="stroke:black; fill:none" />
<polyline points="1035.49, 1453.30 1049.90, 1449.16 1062.13, 1457.86 1062.95, 1472.83 1051.75, 1482.81 1036.97, 1480.28 1029.73, 1467.15 1035.49, 1453.30" style="stroke:black; fill:none" />
<polyline points="951.75, 1392.46 958.69, 1397.50 959.07, 1406.06 952.62, 1411.70 944.18, 1410.17 940.12, 1402.62 943.49, 1394.74 951.75, 1392.46" style="stroke:black; fill:none" />
<polyline points="966.72, 1322.03 964.94, 1330.42 957.27, 1334.25 949.50, 1330.65 947.46, 1322.32 952.71, 1315.54 961.28, 1315.41 966.72, 1322.03" style="stroke:black; fill:none" />
<polyline points="927.94, 1371.68 929.25, 1369.99 931.40, 1369.97 932.75, 1371.63 932.29, 1373.72 930.37, 1374.67 928.43, 1373.76 927.94, 1371.68" style="stroke:black; fill:none" />
<polyline points="988.68, 1299.29 979.04, 1310.78 964.04, 1310.40 954.98, 1298.45 958.69, 1283.91 972.36, 1277.74 985.71, 1284.58 988.68, 1299.29" style="stroke:black; fill:none" />
<polyline points="1049.35, 1255.20 1037.22, 1264.02 1022.76, 1260.03 1016.86, 1246.24 1023.97, 1233.03 1038.73, 1230.35 1050.03, 1240.22 1049.35, 1255.20" style="stroke:black; fill:none" />
<polyline points="946.00, 1260.62 948.14, 1260.51 949.56, 1262.11 949.19, 1264.22 947.31, 1265.25 945.34, 1264.42 944.75, 1262.36 946.00, 1260.62" style="stroke:black; fill:none" />
<polyline points="874.39, 1268.15 889.31, 1266.58 899.84, 1277.26 898.04, 1292.16 885.28, 1300.04 871.16, 1294.98 866.32, 1280.79 874.39, 1268.15" style="stroke:black; fill:none" />
<polyline points="829.02, 1175.12 832.78, 1182.82 829.10, 1190.57 820.75, 1192.51 814.02, 1187.20 813.98, 1178.63 820.65, 1173.25 829.02, 1175.12" style="stroke:black; fill:none" />
<polyline points="858.59, 1157.35 845.73, 1165.08 831.68, 1159.84 827.01, 1145.59 835.24, 1133.05 850.18, 1131.67 860.57, 1142.48 858.59, 1157.35" style="stroke:black; fill:none" />
<polyline points="912.51, 1240.38 904.34, 1227.80 909.08, 1213.57 923.17, 1208.40 935.98, 1216.19 937.89, 1231.07 927.44, 1241.84 912.51, 1240.38" style="stroke:black; fill:none" />
<polyline points="919.73, 1343.63 919.13, 1335.08 925.45, 1329.28 933.91, 1330.60 938.16, 1338.04 934.99, 1346.01 926.79, 1348.49 919.73, 1343.63" style="stroke:black; fill:none" />
<polyline points="890.53, 1433.50 895.16, 1419.24 909.21, 1413.97 922.08, 1421.66 924.10, 1436.52 913.73, 1447.37 898.79, 1446.02 890.53, 1433.50" style="stroke:black; fill:none" />
<polyline points="922.52, 1446.43 920.53, 1445.62 919.92, 1443.57 921.14, 1441.81 923.28, 1441.67 924.72, 1443.26 924.38, 1445.37 922.52, 1446.43" style="stroke:black; fill:none" />
<polyline points="885.84, 1438.63 900.51, 1441.75 907.22, 1455.16 900.91, 1468.77 886.34, 1472.33 874.47, 1463.15 874.25, 1448.16 885.84, 1438.63" style="stroke:black; fill:none" />
<polyline points="786.85, 1436.90 801.85, 1437.16 811.00, 1449.05 807.40, 1463.62 793.78, 1469.89 780.38, 1463.14 777.30, 1448.46 786.85, 1436.90" style="stroke:black; fill:none" />
<polyline points="810.80, 1340.84 808.73, 1349.16 800.93, 1352.72 793.29, 1348.85 791.55, 1340.46 797.02, 1333.87 805.59, 1334.04 810.80, 1340.84" style="stroke:black; fill:none" />
<polyline points="805.17, 1376.40 807.52, 1361.58 820.56, 1354.18 834.48, 1359.77 838.80, 1374.13 830.26, 1386.46 815.29, 1387.47 805.17, 1376.40" style="stroke:black; fill:none" />
<polyline points="764.73, 1471.67 765.57, 1469.70 767.63, 1469.12 769.37, 1470.38 769.47, 1472.52 767.86, 1473.93 765.75, 1473.56 764.73, 1471.67" style="stroke:black; fill:none" />
<polyline points="790.52, 1410.92 784.66, 1424.73 770.21, 1428.75 758.05, 1419.97 757.34, 1404.98 768.61, 1395.09 783.38, 1397.73 790.52, 1410.92" style="stroke:black; fill:none" />
<polyline points="838.51, 1497.51 831.24, 1484.39 836.96, 1470.52 851.37, 1466.35 863.62, 1475.02 864.48, 1489.99 853.30, 1500.00 838.51, 1497.51" style="stroke:black; fill:none" />
<polyline points="819.12, 1472.68 824.40, 1479.44 822.41, 1487.77 814.65, 1491.42 806.96, 1487.62 805.14, 1479.25 810.55, 1472.60 819.12, 1472.68" style="stroke:black; fill:none" />
<polyline points="832.56, 1437.67 827.18, 1451.68 812.88, 1456.21 800.43, 1447.85 799.19, 1432.90 810.11, 1422.62 824.96, 1424.74 832.56, 1437.67" style="stroke:black; fill:none" />
<polyline points="865.04, 1456.42 863.18, 1455.35 862.86, 1453.23 864.32, 1451.66 866.45, 1451.82 867.66, 1453.59 867.03, 1455.64 865.04, 1456.42" style="stroke:black; fill:none" />
<polyline points="972.89, 1462.08 970.75, 1461.96 969.50, 1460.22 970.09, 1458.16 972.06, 1457.33 973.94, 1458.36 974.31, 1460.47 972.89, 1462.08" style="stroke:black; fill:none" />
<polyline points="898.17, 1468.61 906.71, 1467.87 912.62, 1474.08 911.45, 1482.57 904.08, 1486.95 896.06, 1483.91 893.43, 1475.75 898.17, 1468.61" style="stroke:black; fill:none" />
<polyline points="913.44, 1441.06 909.29, 1448.56 900.84, 1449.98 894.45, 1444.27 894.94, 1435.71 901.94, 1430.76 910.17, 1433.14 913.44, 1441.06" style="stroke:black; fill:none" />
<polyline points="814.03, 1398.86 816.00, 1399.70 816.58, 1401.77 815.32, 1403.50 813.18, 1403.60 811.77, 1401.99 812.14, 1399.88 814.03, 1398.86" style="stroke:black; fill:none" />
<polyline points="808.63, 1364.79 809.97, 1373.25 804.19, 1379.58 795.64, 1379.00 790.76, 1371.96 793.22, 1363.75 801.18, 1360.56 808.63, 1364.79" style="stroke:black; fill:none" />
<polyline points="813.56, 1395.90 813.22, 1393.78 814.67, 1392.20 816.81, 1392.35 818.03, 1394.11 817.41, 1396.16 815.42, 1396.96 813.56, 1395.90" style="stroke:black; fill:none" />
<polyline points="877.07, 1422.86 869.18, 1419.51 866.88, 1411.26 871.90, 1404.31 880.47, 1403.90 886.12, 1410.34 884.61, 1418.78 877.07, 1422.86" style="stroke:black; fill:none" />
<polyline points="946.62, 1441.50 944.55, 1440.94 943.69, 1438.98 944.70, 1437.08 946.80, 1436.68 948.43, 1438.08 948.35, 1440.22 946.62, 1441.50" style="stroke:black; fill:none" />
<polyline points="921.39, 1465.03 922.96, 1463.56 925.08, 1463.88 926.15, 1465.73 925.37, 1467.73 923.33, 1468.36 921.56, 1467.16 921.39, 1465.03" style="stroke:black; fill:none" />
<polyline points="941.81, 1433.57 933.64, 1446.15 918.72, 1447.61 908.27, 1436.85 910.17, 1421.97 922.99, 1414.18 937.07, 1419.34 941.81, 1433.57" style="stroke:black; fill:none" />
<polyline points="998.60, 1352.48 993.68, 1359.50 985.13, 1360.03 979.38, 1353.68 980.76, 1345.22 988.23, 1341.03 996.17, 1344.26 998.60, 1352.48" style="stroke:black; fill:none" />
<polyline points="1001.11, 1316.57 1000.96, 1318.70 999.20, 1319.92 997.14, 1319.30 996.35, 1317.31 997.41, 1315.45 999.53, 1315.12 1001.11, 1316.57" style="stroke:black; fill:none" />
<polyline points="891.49, 1341.87 893.58, 1341.39 895.26, 1342.72 895.26, 1344.87 893.59, 1346.21 891.50, 1345.73 890.57, 1343.81 891.49, 1341.87" style="stroke:black; fill:none" />
<polyline points="927.54, 1331.54 925.48, 1332.13 923.73, 1330.89 923.62, 1328.75 925.22, 1327.32 927.33, 1327.68 928.36, 1329.56 927.54, 1331.54" style="stroke:black; fill:none" />
<polyline points="872.69, 1382.69 874.26, 1381.23 876.38, 1381.54 877.45, 1383.39 876.67, 1385.39 874.63, 1386.03 872.85, 1384.82 872.69, 1382.69" style="stroke:black; fill:none" />
<polyline points="876.61, 1270.26 876.54, 1272.40 874.82, 1273.67 872.75, 1273.12 871.89, 1271.16 872.88, 1269.27 874.99, 1268.86 876.61, 1270.26" style="stroke:black; fill:none" />
<polyline points="777.67, 1273.71 792.67, 1273.19 802.42, 1284.58 799.60, 1299.31 786.32, 1306.29 772.58, 1300.26 768.74, 1285.76 777.67, 1273.71" style="stroke:black; fill:none" />
<polyline points="784.21, 1348.43 783.46, 1339.89 789.67, 1333.98 798.17, 1335.15 802.54, 1342.52 799.51, 1350.54 791.35, 1353.16 784.21, 1348.43" style="stroke:black; fill:none" />
<polyline points="775.14, 1312.04 777.21, 1320.36 772.00, 1327.16 763.43, 1327.33 757.96, 1320.74 759.70, 1312.35 767.34, 1308.47 775.14, 1312.04" style="stroke:black; fill:none" />
<polyline points="758.64, 1340.62 762.93, 1333.19 771.40, 1331.92 777.68, 1337.75 777.04, 1346.29 769.96, 1351.12 761.77, 1348.60 758.64, 1340.62" style="stroke:black; fill:none" />
<polyline points="738.06, 1243.78 739.84, 1252.17 734.39, 1258.79 725.82, 1258.66 720.58, 1251.88 722.61, 1243.55 730.39, 1239.95 738.06, 1243.78" style="stroke:black; fill:none" />
<polyline points="726.93, 1278.02 731.57, 1263.75 745.61, 1258.48 758.49, 1266.18 760.50, 1281.04 750.13, 1291.88 735.20, 1290.54 726.93, 1278.02" style="stroke:black; fill:none" />
<polyline points="731.88, 1372.39 731.43, 1363.83 737.84, 1358.14 746.29, 1359.61 750.40, 1367.13 747.09, 1375.03 738.85, 1377.38 731.88, 1372.39" style="stroke:black; fill:none" />
<polyline points="635.04, 1392.97 643.42, 1391.19 650.05, 1396.63 649.92, 1405.21 643.14, 1410.45 634.81, 1408.42 631.21, 1400.64 635.04, 1392.97" style="stroke:black; fill:none" />
<polyline points="616.08, 1367.82 617.37, 1369.53 616.84, 1371.60 614.88, 1372.48 612.98, 1371.50 612.56, 1369.40 613.94, 1367.76 616.08, 1367.82" style="stroke:black; fill:none" />
<polyline points="573.88, 1467.23 577.23, 1459.34 585.49, 1457.04 592.44, 1462.06 592.84, 1470.62 586.40, 1476.28 577.97, 1474.77 573.88, 1467.23" style="stroke:black; fill:none" />
<polyline points="510.25, 1391.39 511.63, 1393.03 511.20, 1395.13 509.29, 1396.11 507.34, 1395.23 506.81, 1393.15 508.11, 1391.45 510.25, 1391.39" style="stroke:black; fill:none" />
<polyline points="522.86, 1288.66 521.82, 1297.17 514.51, 1301.66 506.45, 1298.75 503.70, 1290.63 508.34, 1283.42 516.86, 1282.54 522.86, 1288.66" style="stroke:black; fill:none" />
<polyline points="579.49, 1261.05 577.56, 1261.99 575.62, 1261.07 575.14, 1258.98 576.47, 1257.30 578.61, 1257.29 579.95, 1258.95 579.49, 1261.05" style="stroke:black; fill:none" />
<polyline points="651.21, 1254.77 636.27, 1256.08 625.93, 1245.21 627.98, 1230.35 640.88, 1222.69 654.91, 1228.00 659.51, 1242.27 651.21, 1254.77" style="stroke:black; fill:none" />
<polyline points="622.01, 1164.90 622.67, 1166.93 621.49, 1168.72 619.36, 1168.91 617.88, 1167.37 618.16, 1165.24 620.00, 1164.14 622.01, 1164.90" style="stroke:black; fill:none" />
<polyline points="544.60, 1219.10 556.89, 1210.50 571.28, 1214.74 576.93, 1228.63 569.59, 1241.71 554.79, 1244.13 543.67, 1234.07 544.60, 1219.10" style="stroke:black; fill:none" />
<polyline points="632.03, 1148.30 620.37, 1157.74 605.72, 1154.51 599.11, 1141.05 605.52, 1127.48 620.12, 1124.04 631.92, 1133.30 632.03, 1148.30" style="stroke:black; fill:none" />
<polyline points="538.45, 1135.15 553.30, 1137.24 560.93, 1150.15 555.59, 1164.17 541.30, 1168.73 528.83, 1160.41 527.56, 1145.46 538.45, 1135.15" style="stroke:black; fill:none" />
<polyline points="454.49, 1187.61 467.21, 1179.66 481.36, 1184.65 486.28, 1198.82 478.27, 1211.50 463.36, 1213.15 452.78, 1202.51 454.49, 1187.61" style="stroke:black; fill:none" />
<polyline points="454.49, 1124.61 454.49, 1126.75 452.82, 1128.09 450.73, 1127.61 449.80, 1125.68 450.73, 1123.75 452.82, 1123.27 454.49, 1124.61" style="stroke:black; fill:none" />
<polyline points="387.84, 1106.75 396.12, 1108.97 399.55, 1116.83 395.54, 1124.41 387.12, 1126.00 380.63, 1120.41 380.95, 1111.84 387.84, 1106.75" style="stroke:black; fill:none" />
<polyline points="366.13, 1079.94 367.48, 1081.61 367.02, 1083.70 365.10, 1084.64 363.16, 1083.73 362.67, 1081.64 363.99, 1079.96 366.13, 1079.94" style="stroke:black; fill:none" />
<polyline points="397.40, 1094.52 395.46, 1093.62 394.95, 1091.53 396.27, 1089.84 398.41, 1089.81 399.77, 1091.47 399.32, 1093.57 397.40, 1094.52" style="stroke:black; fill:none" />
<polyline points="332.15, 1064.09 345.74, 1070.43 349.26, 1085.01 340.05, 1096.86 325.06, 1097.04 315.56, 1085.43 318.71, 1070.77 332.15, 1064.09" style="stroke:black; fill:none" />
<polyline points="292.21, 1149.74 293.11, 1147.80 295.20, 1147.29 296.89, 1148.61 296.91, 1150.75 295.26, 1152.11 293.16, 1151.66 292.21, 1149.74" style="stroke:black; fill:none" />
<polyline points="400.14, 1153.51 398.00, 1153.43 396.72, 1151.71 397.27, 1149.64 399.23, 1148.78 401.13, 1149.78 401.54, 1151.88 400.14, 1153.51" style="stroke:black; fill:none" />
<polyline points="301.48, 1109.58 315.18, 1115.68 318.96, 1130.20 309.96, 1142.20 294.97, 1142.65 285.27, 1131.21 288.17, 1116.49 301.48, 1109.58" style="stroke:black; fill:none" />
<polyline points="264.00, 1108.27 272.57, 1108.57 277.68, 1115.45 275.48, 1123.74 267.63, 1127.19 260.04, 1123.20 258.43, 1114.78 264.00, 1108.27" style="stroke:black; fill:none" />
<polyline points="323.37, 1023.49 318.45, 1030.51 309.90, 1031.04 304.14, 1024.69 305.53, 1016.23 313.00, 1012.04 320.94, 1015.27 323.37, 1023.49" style="stroke:black; fill:none" />
<polyline points="255.87, 1037.84 264.26, 1036.05 270.88, 1041.50 270.75, 1050.07 263.97, 1055.31 255.64, 1053.28 252.04, 1045.50 255.87, 1037.84" style="stroke:black; fill:none" />
<polyline points="220.07, 1034.07 234.99, 1035.64 243.07, 1048.28 238.22, 1062.48 224.10, 1067.54 211.34, 1059.65 209.54, 1044.76 220.07, 1034.07" style="stroke:black; fill:none" />
<polyline points="206.29, 936.04 207.49, 944.52 201.59, 950.75 193.05, 950.02 188.30, 942.89 190.90, 934.73 198.91, 931.68 206.29, 936.04" style="stroke:black; fill:none" />
<polyline points="107.53, 929.13 109.67, 929.28 110.89, 931.04 110.27, 933.09 108.28, 933.89 106.42, 932.83 106.09, 930.71 107.53, 929.13" style="stroke:black; fill:none" />
<polyline points="77.96, 911.36 85.31, 915.78 86.44, 924.27 80.50, 930.45 71.97, 929.66 67.26, 922.50 69.93, 914.35 77.96, 911.36" style="stroke:black; fill:none" />
<polyline points="112.97, 924.80 98.97, 919.42 94.44, 905.12 102.80, 892.67 117.75, 891.43 128.03, 902.35 125.91, 917.20 112.97, 924.80" style="stroke:black; fill:none" />
<polyline points="92.20, 950.45 93.55, 948.78 95.70, 948.80 97.02, 950.48 96.53, 952.57 94.59, 953.48 92.67, 952.54 92.20, 950.45" style="stroke:black; fill:none" />
<polyline points="196.51, 908.30 182.60, 913.92 169.54, 906.55 167.16, 891.74 177.25, 880.64 192.22, 881.62 200.79, 893.93 196.51, 908.30" style="stroke:black; fill:none" />
<polyline points="142.51, 1001.83 146.80, 994.41 155.27, 993.13 161.56, 998.96 160.92, 1007.51 153.83, 1012.34 145.64, 1009.81 142.51, 1001.83" style="stroke:black; fill:none" />
<polyline points="193.48, 1038.86 191.75, 1037.60 191.65, 1035.46 193.26, 1034.05 195.37, 1034.44 196.39, 1036.32 195.55, 1038.29 193.48, 1038.86" style="stroke:black; fill:none" />
<polyline points="212.44, 1064.02 203.41, 1052.04 207.15, 1037.51 220.84, 1031.38 234.17, 1038.26 237.10, 1052.97 227.43, 1064.43 212.44, 1064.02" style="stroke:black; fill:none" />
<polyline points="191.83, 958.00 193.47, 966.42 187.91, 972.94 179.34, 972.67 174.22, 965.79 176.39, 957.50 184.23, 954.04 191.83, 958.00" style="stroke:black; fill:none" />
<polyline points="112.54, 891.48 124.04, 901.12 123.66, 916.11 111.70, 925.17 97.17, 921.47 91.00, 907.80 97.84, 894.45 112.54, 891.48" style="stroke:black; fill:none" />
<polyline points="98.50, 926.25 101.71, 918.30 109.92, 915.85 116.96, 920.75 117.51, 929.31 111.17, 935.07 102.71, 933.71 98.50, 926.25" style="stroke:black; fill:none" />
<polyline points="157.48, 884.95 155.72, 886.18 153.67, 885.57 152.86, 883.59 153.91, 881.72 156.02, 881.37 157.61, 882.81 157.48, 884.95" style="stroke:black; fill:none" />
<polyline points="112.34, 825.05 117.50, 831.90 115.36, 840.20 107.54, 843.70 99.92, 839.77 98.25, 831.37 103.77, 824.82 112.34, 825.05" style="stroke:black; fill:none" />
<polyline points="104.58, 858.67 105.06, 856.58 106.99, 855.65 108.92, 856.59 109.39, 858.68 108.05, 860.35 105.91, 860.34 104.58, 858.67" style="stroke:black; fill:none" />
<polyline points="30.13, 930.56 36.29, 924.61 44.79, 925.72 49.23, 933.05 46.25, 941.09 38.12, 943.78 30.94, 939.10 30.13, 930.56" style="stroke:black; fill:none" />
<polyline points="142.35, 922.72 127.39, 923.76 117.24, 912.72 119.55, 897.89 132.58, 890.46 146.52, 896.01 150.86, 910.36 142.35, 922.72" style="stroke:black; fill:none" />
<polyline points="68.91, 863.25 70.58, 864.59 70.56, 866.74 68.88, 868.06 66.79, 867.57 65.88, 865.63 66.82, 863.71 68.91, 863.25" style="stroke:black; fill:none" />
<polyline points="59.06, 801.02 59.39, 803.14 57.95, 804.72 55.81, 804.57 54.59, 802.81 55.21, 800.76 57.19, 799.96 59.06, 801.02" style="stroke:black; fill:none" />
<polyline points="122.17, 781.72 120.12, 782.35 118.36, 781.14 118.20, 779.00 119.78, 777.55 121.89, 777.87 122.96, 779.73 122.17, 781.72" style="stroke:black; fill:none" />
<polyline points="158.74, 723.21 154.20, 730.48 145.68, 731.46 139.61, 725.41 140.54, 716.89 147.79, 712.31 155.89, 715.13 158.74, 723.21" style="stroke:black; fill:none" />
<polyline points="121.16, 781.08 122.33, 779.28 124.46, 779.07 125.95, 780.61 125.68, 782.74 123.85, 783.85 121.84, 783.11 121.16, 781.08" style="stroke:black; fill:none" />
<polyline points="189.90, 787.09 187.76, 786.90 186.58, 785.12 187.23, 783.08 189.24, 782.32 191.08, 783.42 191.37, 785.54 189.90, 787.09" style="stroke:black; fill:none" />
<polyline points="130.08, 759.20 143.67, 765.54 147.19, 780.12 137.99, 791.96 122.99, 792.15 113.49, 780.54 116.65, 765.87 130.08, 759.20" style="stroke:black; fill:none" />
<polyline points="101.48, 815.33 108.29, 801.97 122.98, 798.96 134.50, 808.57 134.16, 823.57 122.23, 832.65 107.68, 828.99 101.48, 815.33" style="stroke:black; fill:none" />
<polyline points="154.87, 854.13 147.94, 849.09 147.55, 840.52 154.01, 834.88 162.44, 836.42 166.50, 843.96 163.14, 851.84 154.87, 854.13" style="stroke:black; fill:none" />
<polyline points="78.51, 930.49 84.57, 924.43 93.08, 925.39 97.64, 932.65 94.81, 940.74 86.72, 943.57 79.47, 939.01 78.51, 930.49" style="stroke:black; fill:none" />
<polyline points="44.19, 926.89 59.11, 928.45 67.19, 941.10 62.34, 955.29 48.22, 960.35 35.46, 952.46 33.67, 937.57 44.19, 926.89" style="stroke:black; fill:none" />
<polyline points="25.78, 866.64 26.40, 868.69 25.19, 870.46 23.05, 870.61 21.60, 869.04 21.92, 866.92 23.78, 865.85 25.78, 866.64" style="stroke:black; fill:none" />
<polyline points="57.35, 969.92 54.85, 961.72 59.69, 954.65 68.24, 954.03 74.05, 960.33 72.76, 968.80 65.32, 973.07 57.35, 969.92" style="stroke:black; fill:none" />
<polyline points="53.43, 895.02 54.21, 910.00 42.99, 919.96 28.21, 917.39 21.00, 904.23 26.80, 890.40 41.23, 886.30 53.43, 895.02" style="stroke:black; fill:none" />
<polyline points="44.24, 960.38 44.54, 958.26 46.38, 957.17 48.39, 957.93 49.04, 959.97 47.85, 961.76 45.71, 961.94 44.24, 960.38" style="stroke:black; fill:none" />
<polyline points="56.74, 1031.29 56.37, 1029.18 57.79, 1027.57 59.93, 1027.68 61.18, 1029.42 60.60, 1031.48 58.63, 1032.31 56.74, 1031.29" style="stroke:black; fill:none" />
<polyline points="135.09, 978.44 127.98, 983.24 119.80, 980.67 116.71, 972.67 121.03, 965.27 129.52, 964.04 135.77, 969.90 135.09, 978.44" style="stroke:black; fill:none" />
<polyline points="152.54, 1009.93 145.27, 996.81 150.99, 982.94 165.40, 978.77 177.64, 987.44 178.50, 1002.41 167.33, 1012.42 152.54, 1009.93" style="stroke:black; fill:none" />
<polyline points="121.28, 1006.09 136.16, 1007.92 144.02, 1020.70 138.92, 1034.81 124.71, 1039.62 112.09, 1031.51 110.56, 1016.59 121.28, 1006.09" style="stroke:black; fill:none" />
<polyline points="101.88, 981.27 107.16, 988.02 105.17, 996.36 97.41, 1000.00 89.72, 996.21 87.90, 987.83 93.31, 981.18 101.88, 981.27" style="stroke:black; fill:none" />
<polyline points="62.23, 1030.23 71.67, 1018.57 86.67, 1018.68 95.94, 1030.48 92.49, 1045.08 78.93, 1051.49 65.46, 1044.88 62.23, 1030.23" style="stroke:black; fill:none" />
<polyline points="51.11, 1064.47 53.76, 1056.31 61.78, 1053.30 69.14, 1057.70 70.29, 1066.19 64.37, 1072.39 55.83, 1071.62 51.11, 1064.47" style="stroke:black; fill:none" />
<polyline points="93.59, 1118.84 88.31, 1112.08 90.30, 1103.75 98.06, 1100.11 105.75, 1103.90 107.57, 1112.28 102.16, 1118.92 93.59, 1118.84" style="stroke:black; fill:none" />
<polyline points="144.56, 1081.81 137.62, 1086.85 129.36, 1084.57 125.99, 1076.69 130.05, 1069.14 138.49, 1067.61 144.94, 1073.25 144.56, 1081.81" style="stroke:black; fill:none" />
<polyline points="122.89, 1053.06 128.05, 1059.90 125.92, 1068.20 118.09, 1071.71 110.48, 1067.78 108.80, 1059.38 114.33, 1052.82 122.89, 1053.06" style="stroke:black; fill:none" />
<polyline points="101.41, 1076.10 102.87, 1074.53 105.01, 1074.69 106.21, 1076.47 105.57, 1078.51 103.58, 1079.29 101.72, 1078.22 101.41, 1076.10" style="stroke:black; fill:none" />
<polyline points="25.04, 999.73 31.10, 1005.79 30.14, 1014.31 22.89, 1018.87 14.80, 1016.04 11.97, 1007.95 16.53, 1000.69 25.04, 999.73" style="stroke:black; fill:none" />
<polyline points="80.40, 917.65 75.61, 924.76 67.07, 925.44 61.20, 919.19 62.44, 910.71 69.84, 906.38 77.84, 909.48 80.40, 917.65" style="stroke:black; fill:none" />
<polyline points="47.48, 915.35 56.03, 915.95 60.90, 923.01 58.41, 931.21 50.45, 934.38 43.00, 930.13 41.68, 921.66 47.48, 915.35" style="stroke:black; fill:none" />
<polyline points="79.76, 908.49 65.09, 911.61 53.50, 902.08 53.73, 887.08 65.59, 877.91 80.17, 881.46 86.47, 895.07 79.76, 908.49" style="stroke:black; fill:none" />
<polyline points="47.34, 920.29 49.36, 919.56 51.19, 920.67 51.45, 922.80 49.96, 924.33 47.82, 924.12 46.66, 922.32 47.34, 920.29" style="stroke:black; fill:none" />
<polyline points="152.37, 879.97 144.37, 883.05 136.98, 878.70 135.76, 870.22 141.64, 863.98 150.18, 864.68 154.96, 871.80 152.37, 879.97" style="stroke:black; fill:none" />
<polyline points="162.71, 916.02 158.57, 901.60 167.27, 889.38 182.25, 888.56 192.23, 899.75 189.70, 914.54 176.56, 921.78 162.71, 916.02" style="stroke:black; fill:none" />
<polyline points="147.22, 1013.80 148.56, 1005.34 156.02, 1001.11 163.97, 1004.30 166.44, 1012.51 161.56, 1019.55 153.00, 1020.13 147.22, 1013.80" style="stroke:black; fill:none" />
<polyline points="136.69, 979.38 141.08, 993.72 132.60, 1006.09 117.64, 1007.18 107.46, 996.15 109.74, 981.33 122.75, 973.86 136.69, 979.38" style="stroke:black; fill:none" />
<polyline points="133.82, 1012.25 135.13, 997.31 147.62, 989.01 161.90, 993.61 167.21, 1007.64 159.55, 1020.54 144.69, 1022.59 133.82, 1012.25" style="stroke:black; fill:none" />
<polyline points="143.03, 982.13 138.64, 996.47 124.69, 1001.99 111.68, 994.52 109.41, 979.69 119.59, 968.67 134.55, 969.75 143.03, 982.13" style="stroke:black; fill:none" />
<polyline points="56.85, 1054.44 63.41, 1048.93 71.82, 1050.63 75.73, 1058.26 72.20, 1066.07 63.89, 1068.18 57.06, 1063.01 56.85, 1054.44" style="stroke:black; fill:none" />
<polyline points="115.65, 1024.48 113.75, 1025.45 111.79, 1024.56 111.27, 1022.48 112.57, 1020.78 114.71, 1020.73 116.08, 1022.38 115.65, 1024.48" style="stroke:black; fill:none" />
<polyline points="94.40, 1116.55 97.77, 1101.94 111.30, 1095.46 124.80, 1102.01 128.10, 1116.64 118.72, 1128.34 103.72, 1128.30 94.40, 1116.55" style="stroke:black; fill:none" />
<polyline points="120.04, 1137.32 118.38, 1135.97 118.39, 1133.83 120.08, 1132.51 122.16, 1133.00 123.08, 1134.94 122.14, 1136.86 120.04, 1137.32" style="stroke:black; fill:none" />
<polyline points="120.04, 1104.32 120.04, 1119.32 108.32, 1128.67 93.69, 1125.34 87.18, 1111.82 93.69, 1098.31 108.32, 1094.97 120.04, 1104.32" style="stroke:black; fill:none" />
<polyline points="178.22, 1178.79 176.90, 1177.10 177.40, 1175.02 179.34, 1174.11 181.26, 1175.05 181.72, 1177.15 180.37, 1178.81 178.22, 1178.79" style="stroke:black; fill:none" />
<polyline points="71.55, 1161.89 86.37, 1164.24 93.77, 1177.29 88.19, 1191.21 73.82, 1195.52 61.49, 1186.98 60.48, 1172.01 71.55, 1161.89" style="stroke:black; fill:none" />
<polyline points="36.32, 1109.66 44.71, 1122.10 40.22, 1136.41 26.23, 1141.82 13.28, 1134.26 11.11, 1119.41 21.37, 1108.47 36.32, 1109.66" style="stroke:black; fill:none" />
<polyline points="136.30, 1082.88 128.02, 1085.10 121.12, 1080.01 120.80, 1071.44 127.30, 1065.85 135.72, 1067.44 139.72, 1075.02 136.30, 1082.88" style="stroke:black; fill:none" />
<polyline points="223.73, 1153.68 217.06, 1148.28 217.13, 1139.71 223.87, 1134.42 232.21, 1136.39 235.87, 1144.14 232.10, 1151.83 223.73, 1153.68" style="stroke:black; fill:none" />
<polyline points="222.08, 1122.22 222.86, 1137.20 211.64, 1147.15 196.86, 1144.58 189.65, 1131.43 195.45, 1117.59 209.88, 1113.49 222.08, 1122.22" style="stroke:black; fill:none" />
<polyline points="193.08, 1109.91 195.05, 1110.75 195.63, 1112.81 194.37, 1114.55 192.23, 1114.65 190.82, 1113.04 191.20, 1110.93 193.08, 1109.91" style="stroke:black; fill:none" />
<polyline points="137.26, 1150.47 149.39, 1141.65 163.85, 1145.64 169.75, 1159.43 162.64, 1172.64 147.88, 1175.32 136.59, 1165.45 137.26, 1150.47" style="stroke:black; fill:none" />
<polyline points="201.01, 1133.39 192.73, 1135.60 185.83, 1130.51 185.51, 1121.95 192.01, 1116.36 200.43, 1117.95 204.44, 1125.53 201.01, 1133.39" style="stroke:black; fill:none" />
<polyline points="169.82, 1137.77 178.30, 1136.58 184.53, 1142.47 183.80, 1151.01 176.67, 1155.77 168.51, 1153.16 165.46, 1145.15 169.82, 1137.77" style="stroke:black; fill:none" />
<polyline points="169.82, 1173.77 169.82, 1165.20 176.52, 1159.85 184.87, 1161.76 188.59, 1169.48 184.87, 1177.21 176.52, 1179.11 169.82, 1173.77" style="stroke:black; fill:none" />
<polyline points="64.58, 1149.47 72.94, 1151.40 76.64, 1159.13 72.90, 1166.85 64.54, 1168.73 57.85, 1163.37 57.87, 1154.80 64.58, 1149.47" style="stroke:black; fill:none" />
<polyline points="90.23, 1170.24 88.57, 1168.89 88.58, 1166.75 90.27, 1165.43 92.35, 1165.92 93.27, 1167.86 92.32, 1169.78 90.23, 1170.24" style="stroke:black; fill:none" />
<polyline points="179.58, 1201.01 177.56, 1200.31 176.84, 1198.29 177.97, 1196.47 180.10, 1196.22 181.62, 1197.73 181.39, 1199.86 179.58, 1201.01" style="stroke:black; fill:none" />
<polyline points="191.38, 1171.80 185.76, 1185.71 171.39, 1189.99 159.08, 1181.42 158.11, 1166.45 169.20, 1156.35 184.01, 1158.74 191.38, 1171.80" style="stroke:black; fill:none" />
<polyline points="189.08, 1105.84 189.38, 1114.41 182.87, 1119.98 174.45, 1118.37 170.46, 1110.78 173.91, 1102.93 182.19, 1100.74 189.08, 1105.84" style="stroke:black; fill:none" />
<polyline points="151.60, 1104.53 160.17, 1104.83 165.27, 1111.72 163.08, 1120.00 155.23, 1123.45 147.64, 1119.46 146.03, 1111.04 151.60, 1104.53" style="stroke:black; fill:none" />
<polyline points="120.91, 1097.45 129.26, 1099.38 132.96, 1107.11 129.22, 1114.82 120.86, 1116.71 114.17, 1111.35 114.19, 1102.78 120.91, 1097.45" style="stroke:black; fill:none" />
<polyline points="73.66, 1015.61 74.73, 1017.46 73.95, 1019.46 71.90, 1020.09 70.13, 1018.88 69.97, 1016.75 71.54, 1015.29 73.66, 1015.61" style="stroke:black; fill:none" />
<polyline points="53.08, 918.77 54.86, 927.16 49.41, 933.78 40.84, 933.65 35.60, 926.87 37.63, 918.54 45.41, 914.94 53.08, 918.77" style="stroke:black; fill:none" />
<polyline points="43.15, 953.38 45.52, 945.14 53.43, 941.85 60.94, 945.98 62.38, 954.43 56.68, 960.83 48.12, 960.36 43.15, 953.38" style="stroke:black; fill:none" />
<polyline points="80.45, 957.30 78.32, 957.07 77.16, 955.27 77.86, 953.24 79.87, 952.52 81.70, 953.64 81.95, 955.77 80.45, 957.30" style="stroke:black; fill:none" />
<polyline points="121.08, 905.29 119.76, 906.98 117.62, 907.00 116.27, 905.34 116.72, 903.24 118.64, 902.29 120.58, 903.20 121.08, 905.29" style="stroke:black; fill:none" />
<polyline points="132.88, 872.87 132.15, 874.88 130.12, 875.56 128.32, 874.40 128.10, 872.27 129.64, 870.77 131.76, 871.04 132.88, 872.87" style="stroke:black; fill:none" />
<polyline points="123.23, 904.43 125.74, 896.23 133.71, 893.08 141.14, 897.35 142.44, 905.82 136.63, 912.12 128.08, 911.50 123.23, 904.43" style="stroke:black; fill:none" />
<polyline points="118.66, 867.21 118.92, 869.33 117.42, 870.86 115.29, 870.64 114.13, 868.84 114.82, 866.81 116.84, 866.08 118.66, 867.21" style="stroke:black; fill:none" />
<polyline points="183.22, 853.48 174.84, 855.27 168.22, 849.82 168.34, 841.25 175.12, 836.01 183.45, 838.04 187.05, 845.82 183.22, 853.48" style="stroke:black; fill:none" />
<polyline points="206.55, 876.82 205.04, 875.30 205.28, 873.17 207.09, 872.03 209.12, 872.74 209.82, 874.76 208.68, 876.58 206.55, 876.82" style="stroke:black; fill:none" />
<polyline points="136.69, 859.40 145.01, 861.47 148.57, 869.27 144.70, 876.92 136.31, 878.66 129.72, 873.18 129.89, 864.61 136.69, 859.40" style="stroke:black; fill:none" />
<polyline points="137.79, 827.92 137.27, 842.91 125.22, 851.85 110.72, 848.00 104.69, 834.27 111.67, 820.99 126.40, 818.16 137.79, 827.92" style="stroke:black; fill:none" />
<polyline points="106.04, 814.44 119.84, 820.30 123.87, 834.75 115.08, 846.91 100.10, 847.62 90.20, 836.35 92.84, 821.58 106.04, 814.44" style="stroke:black; fill:none" />
<polyline points="191.84, 872.32 179.40, 863.93 178.21, 848.98 189.15, 838.72 204.00, 840.88 211.56, 853.83 206.15, 867.82 191.84, 872.32" style="stroke:black; fill:none" />
<polyline points="252.09, 853.90 237.74, 858.28 225.37, 849.80 224.29, 834.84 235.31, 824.67 250.14, 826.94 257.60, 839.95 252.09, 853.90" style="stroke:black; fill:none" />
<polyline points="215.00, 757.27 215.76, 759.27 214.68, 761.12 212.56, 761.42 211.00, 759.95 211.17, 757.82 212.95, 756.62 215.00, 757.27" style="stroke:black; fill:none" />
<polyline points="240.80, 775.34 233.78, 770.42 233.24, 761.87 239.60, 756.12 248.06, 757.50 252.25, 764.98 249.02, 772.91 240.80, 775.34" style="stroke:black; fill:none" />
<polyline points="330.65, 707.63 318.67, 716.66 304.14, 712.92 298.00, 699.24 304.88, 685.91 319.59, 682.97 331.06, 692.64 330.65, 707.63" style="stroke:black; fill:none" />
<polyline points="373.07, 758.19 371.69, 756.55 372.12, 754.45 374.02, 753.47 375.98, 754.36 376.51, 756.43 375.21, 758.14 373.07, 758.19" style="stroke:black; fill:none" />
<polyline points="365.31, 791.81 365.79, 789.72 367.72, 788.80 369.65, 789.73 370.12, 791.82 368.78, 793.49 366.64, 793.49 365.31, 791.81" style="stroke:black; fill:none" />
<polyline points="406.74, 876.75 405.80, 874.82 406.72, 872.88 408.80, 872.40 410.49, 873.72 410.50, 875.87 408.83, 877.21 406.74, 876.75" style="stroke:black; fill:none" />
<polyline points="442.47, 872.36 433.96, 873.40 427.84, 867.40 428.71, 858.88 435.93, 854.24 444.04, 856.99 446.96, 865.05 442.47, 872.36" style="stroke:black; fill:none" />
<polyline points="448.12, 980.21 447.67, 971.65 454.08, 965.96 462.53, 967.43 466.65, 974.95 463.34, 982.85 455.09, 985.20 448.12, 980.21" style="stroke:black; fill:none" />
<polyline points="396.37, 1069.84 400.66, 1062.42 409.13, 1061.14 415.41, 1066.97 414.77, 1075.52 407.69, 1080.35 399.50, 1077.82 396.37, 1069.84" style="stroke:black; fill:none" />
<polyline points="465.92, 1051.21 457.64, 1053.43 450.74, 1048.34 450.42, 1039.77 456.92, 1034.18 465.34, 1035.77 469.34, 1043.35 465.92, 1051.21" style="stroke:black; fill:none" />
<polyline points="490.21, 945.98 486.84, 960.59 473.31, 967.07 459.81, 960.52 456.51, 945.89 465.89, 934.19 480.89, 934.23 490.21, 945.98" style="stroke:black; fill:none" />
<polyline points="464.76, 920.52 470.82, 926.58 469.86, 935.10 462.60, 939.66 454.51, 936.83 451.68, 928.74 456.24, 921.48 464.76, 920.52" style="stroke:black; fill:none" />
<polyline points="477.65, 950.90 471.79, 937.09 478.93, 923.90 493.69, 921.26 504.97, 931.15 504.26, 946.14 492.10, 954.92 477.65, 950.90" style="stroke:black; fill:none" />
<polyline points="493.24, 877.54 491.46, 885.92 483.79, 889.75 476.02, 886.15 473.98, 877.82 479.23, 871.04 487.80, 870.92 493.24, 877.54" style="stroke:black; fill:none" />
<polyline points="578.02, 936.90 576.27, 935.67 576.14, 933.53 577.72, 932.10 579.84, 932.44 580.89, 934.31 580.08, 936.30 578.02, 936.90" style="stroke:black; fill:none" />
<polyline points="532.71, 980.66 534.25, 979.18 536.37, 979.45 537.48, 981.29 536.74, 983.30 534.70, 983.97 532.91, 982.80 532.71, 980.66" style="stroke:black; fill:none" />
<polyline points="551.60, 883.48 551.19, 885.59 549.29, 886.58 547.33, 885.71 546.78, 883.64 548.07, 881.92 550.21, 881.85 551.60, 883.48" style="stroke:black; fill:none" />
<polyline points="521.32, 874.80 535.74, 878.94 541.49, 892.79 534.25, 905.92 519.47, 908.46 508.27, 898.47 509.09, 883.50 521.32, 874.80" style="stroke:black; fill:none" />
<polyline points="531.84, 840.37 531.22, 842.42 529.22, 843.21 527.36, 842.14 527.04, 840.03 528.49, 838.45 530.63, 838.61 531.84, 840.37" style="stroke:black; fill:none" />
<polyline points="564.34, 846.10 549.57, 843.50 542.39, 830.33 548.22, 816.50 562.66, 812.44 574.84, 821.20 575.59, 836.18 564.34, 846.10" style="stroke:black; fill:none" />
<polyline points="501.34, 846.10 516.34, 846.10 525.69, 857.83 522.36, 872.46 508.84, 878.96 495.33, 872.46 491.99, 857.83 501.34, 846.10" style="stroke:black; fill:none" />
<polyline points="567.56, 881.31 565.67, 880.31 565.28, 878.20 566.68, 876.58 568.82, 876.67 570.09, 878.39 569.53, 880.46 567.56, 881.31" style="stroke:black; fill:none" />
<polyline points="502.61, 918.81 515.60, 911.31 529.56, 916.80 533.98, 931.13 525.54, 943.52 510.58, 944.64 500.37, 933.65 502.61, 918.81" style="stroke:black; fill:none" />
<polyline points="543.07, 1018.95 542.26, 1016.96 543.32, 1015.10 545.43, 1014.76 547.02, 1016.20 546.88, 1018.34 545.12, 1019.56 543.07, 1018.95" style="stroke:black; fill:none" />
<polyline points="496.59, 1106.36 500.61, 1098.79 509.04, 1097.22 515.52, 1102.83 515.18, 1111.39 508.27, 1116.47 500.00, 1114.23 496.59, 1106.36" style="stroke:black; fill:none" />
<polyline points="414.52, 1161.72 421.62, 1156.93 429.80, 1159.50 432.89, 1167.49 428.57, 1174.89 420.09, 1176.13 413.83, 1170.27 414.52, 1161.72" style="stroke:black; fill:none" />
<polyline points="430.82, 1100.87 426.94, 1115.36 413.19, 1121.36 399.93, 1114.35 397.14, 1099.61 406.92, 1088.24 421.91, 1088.80 430.82, 1100.87" style="stroke:black; fill:none" />
<polyline points="451.24, 1069.42 443.08, 1082.00 428.15, 1083.46 417.70, 1072.69 419.60, 1057.81 432.42, 1050.02 446.50, 1055.19 451.24, 1069.42" style="stroke:black; fill:none" />
<polyline points="490.03, 1019.77 480.80, 1031.59 465.80, 1031.74 456.33, 1020.11 459.52, 1005.45 472.97, 998.81 486.55, 1005.18 490.03, 1019.77" style="stroke:black; fill:none" />
<polyline points="550.28, 1038.19 548.23, 1037.57 547.44, 1035.57 548.51, 1033.72 550.63, 1033.39 552.20, 1034.85 552.05, 1036.98 550.28, 1038.19" style="stroke:black; fill:none" />
<polyline points="493.65, 1065.81 501.36, 1062.05 509.10, 1065.73 511.05, 1074.08 505.74, 1080.81 497.17, 1080.85 491.79, 1074.18 493.65, 1065.81" style="stroke:black; fill:none" />
<polyline points="584.03, 1093.44 581.98, 1092.81 581.19, 1090.82 582.26, 1088.96 584.37, 1088.64 585.95, 1090.09 585.79, 1092.23 584.03, 1093.44" style="stroke:black; fill:none" />
<polyline points="491.95, 1114.70 494.04, 1114.22 495.71, 1115.55 495.72, 1117.69 494.05, 1119.03 491.96, 1118.56 491.02, 1116.63 491.95, 1114.70" style="stroke:black; fill:none" />
<polyline points="475.45, 1086.12 476.52, 1087.98 475.74, 1089.97 473.69, 1090.60 471.92, 1089.39 471.76, 1087.26 473.33, 1085.80 475.45, 1086.12" style="stroke:black; fill:none" />
<polyline points="528.75, 1174.84 521.03, 1161.98 526.26, 1147.92 540.52, 1143.25 553.06, 1151.48 554.44, 1166.42 543.62, 1176.81 528.75, 1174.84" style="stroke:black; fill:none" />
<polyline points="552.04, 1275.68 550.11, 1267.33 555.44, 1260.62 564.01, 1260.60 569.37, 1267.28 567.48, 1275.65 559.77, 1279.38 552.04, 1275.68" style="stroke:black; fill:none" />
<polyline points="553.69, 1370.17 553.42, 1355.17 564.99, 1345.62 579.67, 1348.70 586.41, 1362.10 580.14, 1375.72 565.57, 1379.32 553.69, 1370.17" style="stroke:black; fill:none" />
<polyline points="493.30, 1330.96 505.88, 1339.12 507.34, 1354.05 496.57, 1364.50 481.69, 1362.60 473.91, 1349.78 479.07, 1335.70 493.30, 1330.96" style="stroke:black; fill:none" />
<polyline points="428.99, 1316.11 431.08, 1316.59 432.01, 1318.52 431.07, 1320.45 428.98, 1320.92 427.31, 1319.58 427.31, 1317.44 428.99, 1316.11" style="stroke:black; fill:none" />
<polyline points="484.95, 1361.42 483.28, 1360.07 483.30, 1357.93 484.98, 1356.60 487.07, 1357.10 487.98, 1359.03 487.04, 1360.96 484.95, 1361.42" style="stroke:black; fill:none" />
<polyline points="447.86, 1299.70 455.59, 1312.56 450.35, 1326.62 436.10, 1331.29 423.56, 1323.06 422.18, 1308.12 433.00, 1297.73 447.86, 1299.70" style="stroke:black; fill:none" />
<polyline points="399.69, 1246.20 401.12, 1247.79 400.77, 1249.90 398.90, 1250.95 396.92, 1250.13 396.31, 1248.08 397.55, 1246.33 399.69, 1246.20" style="stroke:black; fill:none" />
<polyline points="291.55, 1277.21 299.78, 1274.84 306.77, 1279.81 307.24, 1288.37 300.84, 1294.07 292.39, 1292.63 288.26, 1285.12 291.55, 1277.21" style="stroke:black; fill:none" />
<polyline points="309.69, 1204.43 309.17, 1206.51 307.22, 1207.40 305.31, 1206.44 304.88, 1204.34 306.24, 1202.69 308.39, 1202.73 309.69, 1204.43" style="stroke:black; fill:none" />
<polyline points="344.00, 1151.60 342.83, 1153.39 340.70, 1153.60 339.21, 1152.07 339.48, 1149.94 341.31, 1148.83 343.32, 1149.56 344.00, 1151.60" style="stroke:black; fill:none" />
<polyline points="347.45, 1118.78 347.23, 1120.91 345.42, 1122.06 343.39, 1121.37 342.67, 1119.35 343.80, 1117.53 345.92, 1117.27 347.45, 1118.78" style="stroke:black; fill:none" />
<polyline points="378.97, 1132.81 371.14, 1129.32 368.98, 1121.03 374.12, 1114.17 382.69, 1113.91 388.23, 1120.45 386.58, 1128.86 378.97, 1132.81" style="stroke:black; fill:none" />
<polyline points="318.67, 1105.97 320.63, 1106.84 321.17, 1108.91 319.89, 1110.63 317.74, 1110.69 316.36, 1109.06 316.77, 1106.95 318.67, 1105.97" style="stroke:black; fill:none" />
<polyline points="301.59, 1169.72 303.81, 1161.44 311.67, 1158.01 319.25, 1162.02 320.84, 1170.44 315.25, 1176.93 306.68, 1176.61 301.59, 1169.72" style="stroke:black; fill:none" />
<polyline points="294.11, 1204.93 295.89, 1196.55 303.56, 1192.71 311.33, 1196.32 313.37, 1204.64 308.12, 1211.42 299.55, 1211.55 294.11, 1204.93" style="stroke:black; fill:none" />
<polyline points="232.11, 1276.25 233.52, 1274.63 235.66, 1274.72 236.92, 1276.45 236.36, 1278.52 234.39, 1279.37 232.50, 1278.36 232.11, 1276.25" style="stroke:black; fill:none" />
<polyline points="331.09, 1245.99 322.89, 1248.50 315.82, 1243.65 315.20, 1235.10 321.50, 1229.29 329.97, 1230.59 334.24, 1238.02 331.09, 1245.99" style="stroke:black; fill:none" />
<polyline points="232.69, 1300.53 245.81, 1293.26 259.68, 1298.98 263.85, 1313.39 255.18, 1325.64 240.21, 1326.49 230.20, 1315.32 232.69, 1300.53" style="stroke:black; fill:none" />
<polyline points="331.09, 1355.07 317.97, 1347.80 315.47, 1333.01 325.48, 1321.84 340.46, 1322.70 349.12, 1334.94 344.95, 1349.35 331.09, 1355.07" style="stroke:black; fill:none" />
<polyline points="365.16, 1349.68 356.70, 1351.02 350.37, 1345.23 350.95, 1336.68 357.99, 1331.80 366.20, 1334.27 369.39, 1342.22 365.16, 1349.68" style="stroke:black; fill:none" />
<polyline points="327.75, 1352.29 342.72, 1351.25 352.87, 1362.29 350.56, 1377.11 337.53, 1384.55 323.59, 1379.00 319.24, 1364.64 327.75, 1352.29" style="stroke:black; fill:none" />
<polyline points="257.89, 1369.71 266.21, 1367.64 273.02, 1372.85 273.19, 1381.42 266.59, 1386.89 258.20, 1385.15 254.33, 1377.51 257.89, 1369.71" style="stroke:black; fill:none" />
<polyline points="193.48, 1394.44 207.48, 1389.06 220.41, 1396.66 222.54, 1411.51 212.25, 1422.43 197.30, 1421.19 188.95, 1408.74 193.48, 1394.44" style="stroke:black; fill:none" />
<polyline points="126.65, 1327.62 132.72, 1333.68 131.76, 1342.19 124.50, 1346.75 116.41, 1343.92 113.58, 1335.83 118.14, 1328.58 126.65, 1327.62" style="stroke:black; fill:none" />
<polyline points="181.03, 1285.13 179.34, 1286.45 177.25, 1285.96 176.34, 1284.02 177.29, 1282.10 179.39, 1281.64 181.05, 1282.99 181.03, 1285.13" style="stroke:black; fill:none" />
<polyline points="127.60, 1318.52 140.32, 1310.57 154.47, 1315.56 159.39, 1329.73 151.37, 1342.41 136.46, 1344.05 125.88, 1333.42 127.60, 1318.52" style="stroke:black; fill:none" />
<polyline points="201.41, 1403.42 191.57, 1392.10 194.28, 1377.35 207.51, 1370.28 221.29, 1376.21 225.24, 1390.68 216.39, 1402.79 201.41, 1403.42" style="stroke:black; fill:none" />
<polyline points="126.42, 1404.73 128.56, 1404.70 129.93, 1406.35 129.49, 1408.45 127.57, 1409.41 125.62, 1408.51 125.11, 1406.43 126.42, 1404.73" style="stroke:black; fill:none" />
<polyline points="193.07, 1386.88 184.79, 1389.09 177.89, 1384.00 177.57, 1375.44 184.07, 1369.85 192.49, 1371.44 196.49, 1379.02 193.07, 1386.88" style="stroke:black; fill:none" />
<polyline points="169.47, 1445.29 175.09, 1431.38 189.46, 1427.10 201.77, 1435.67 202.74, 1450.64 191.65, 1460.74 176.84, 1458.35 169.47, 1445.29" style="stroke:black; fill:none" />
<polyline points="203.63, 1450.09 201.51, 1449.79 200.42, 1447.95 201.18, 1445.94 203.22, 1445.29 205.01, 1446.48 205.19, 1448.62 203.63, 1450.09" style="stroke:black; fill:none" />
<polyline points="140.98, 1443.50 155.89, 1445.07 163.97, 1457.71 159.12, 1471.91 145.00, 1476.97 132.24, 1469.08 130.45, 1454.19 140.98, 1443.50" style="stroke:black; fill:none" />
<polyline points="66.39, 1435.66 74.91, 1436.56 79.53, 1443.78 76.76, 1451.89 68.69, 1454.79 61.39, 1450.28 60.37, 1441.77 66.39, 1435.66" style="stroke:black; fill:none" />
<polyline points="125.95, 1456.18 123.93, 1455.48 123.21, 1453.46 124.34, 1451.64 126.47, 1451.39 127.99, 1452.90 127.76, 1455.03 125.95, 1456.18" style="stroke:black; fill:none" />
<polyline points="60.60, 1465.36 69.08, 1464.17 75.31, 1470.06 74.58, 1478.60 67.45, 1483.36 59.29, 1480.75 56.24, 1472.74 60.60, 1465.36" style="stroke:black; fill:none" />
<polyline points="57.14, 1399.45 57.59, 1408.01 51.18, 1413.70 42.73, 1412.23 38.62, 1404.71 41.93, 1396.81 50.17, 1394.46 57.14, 1399.45" style="stroke:black; fill:none" />
<polyline points="26.68, 1415.65 34.25, 1411.62 42.11, 1415.03 44.35, 1423.31 39.28, 1430.21 30.72, 1430.56 25.11, 1424.07 26.68, 1415.65" style="stroke:black; fill:none" />
<polyline points="33.55, 1380.31 33.14, 1382.41 31.24, 1383.40 29.28, 1382.54 28.74, 1380.47 30.02, 1378.75 32.16, 1378.68 33.55, 1380.31" style="stroke:black; fill:none" />
<polyline points="77.51, 1276.75 74.16, 1284.64 65.90, 1286.94 58.95, 1281.92 58.55, 1273.36 64.99, 1267.71 73.43, 1269.21 77.51, 1276.75" style="stroke:black; fill:none" />
<polyline points="83.40, 1389.10 82.61, 1374.12 93.83, 1364.17 108.61, 1366.73 115.82, 1379.89 110.03, 1393.73 95.60, 1397.82 83.40, 1389.10" style="stroke:black; fill:none" />
<polyline points="67.55, 1423.08 73.89, 1409.49 88.47, 1405.97 100.31, 1415.18 100.50, 1430.17 88.89, 1439.67 74.22, 1436.52 67.55, 1423.08" style="stroke:black; fill:none" />
<polyline points="73.02, 1392.06 72.64, 1394.17 70.76, 1395.20 68.79, 1394.37 68.21, 1392.30 69.46, 1390.56 71.60, 1390.46 73.02, 1392.06" style="stroke:black; fill:none" />
<polyline points="135.37, 1356.06 122.38, 1363.56 108.42, 1358.08 104.00, 1343.75 112.45, 1331.36 127.40, 1330.24 137.61, 1341.23 135.37, 1356.06" style="stroke:black; fill:none" />
<polyline points="99.51, 1352.93 101.64, 1353.11 102.83, 1354.90 102.17, 1356.94 100.17, 1357.70 98.32, 1356.60 98.03, 1354.48 99.51, 1352.93" style="stroke:black; fill:none" />
<polyline points="79.26, 1328.80 84.77, 1335.36 83.07, 1343.76 75.44, 1347.67 67.63, 1344.15 65.52, 1335.84 70.69, 1329.01 79.26, 1328.80" style="stroke:black; fill:none" />
<polyline points="101.72, 1263.55 98.93, 1271.66 90.86, 1274.53 83.58, 1270.01 82.57, 1261.49 88.61, 1255.40 97.13, 1256.32 101.72, 1263.55" style="stroke:black; fill:none" />
<polyline points="185.33, 1338.83 174.18, 1328.79 175.08, 1313.82 187.34, 1305.19 201.74, 1309.39 207.43, 1323.27 200.13, 1336.37 185.33, 1338.83" style="stroke:black; fill:none" />
<polyline points="221.32, 1339.46 219.18, 1339.42 217.87, 1337.72 218.39, 1335.64 220.33, 1334.75 222.25, 1335.71 222.69, 1337.81 221.32, 1339.46" style="stroke:black; fill:none" />
<polyline points="236.84, 1272.23 236.36, 1274.32 234.43, 1275.24 232.50, 1274.31 232.03, 1272.22 233.37, 1270.54 235.51, 1270.55 236.84, 1272.23" style="stroke:black; fill:none" />
<polyline points="322.65, 1214.35 315.54, 1219.15 307.37, 1216.58 304.27, 1208.58 308.60, 1201.18 317.08, 1199.95 323.33, 1205.81 322.65, 1214.35" style="stroke:black; fill:none" />
<polyline points="413.49, 1188.30 399.07, 1192.44 386.85, 1183.74 386.02, 1168.77 397.22, 1158.78 412.01, 1161.32 419.25, 1174.45 413.49, 1188.30" style="stroke:black; fill:none" />
<polyline points="305.75, 1180.77 314.30, 1181.37 319.17, 1188.43 316.68, 1196.63 308.72, 1199.80 301.27, 1195.55 299.95, 1187.08 305.75, 1180.77" style="stroke:black; fill:none" />
<polyline points="358.60, 1102.43 350.21, 1114.86 335.26, 1116.06 325.00, 1105.11 327.16, 1090.27 340.11, 1082.70 354.10, 1088.12 358.60, 1102.43" style="stroke:black; fill:none" />
<polyline points="290.86, 1115.59 299.28, 1113.96 305.80, 1119.52 305.52, 1128.08 298.65, 1133.21 290.36, 1131.03 286.90, 1123.19 290.86, 1115.59" style="stroke:black; fill:none" />
<polyline points="187.62, 1108.37 189.75, 1108.52 190.97, 1110.29 190.35, 1112.34 188.36, 1113.13 186.50, 1112.07 186.17, 1109.95 187.62, 1108.37" style="stroke:black; fill:none" />
<polyline points="157.47, 1094.95 165.30, 1098.44 167.46, 1106.73 162.31, 1113.59 153.75, 1113.85 148.20, 1107.31 149.86, 1098.90 157.47, 1094.95" style="stroke:black; fill:none" />
<polyline points="87.45, 1121.83 95.45, 1118.76 102.84, 1123.10 104.06, 1131.58 98.18, 1137.82 89.64, 1137.12 84.86, 1130.00 87.45, 1121.83" style="stroke:black; fill:none" />
<polyline points="69.31, 1049.06 71.38, 1057.37 66.17, 1064.18 57.60, 1064.35 52.12, 1057.76 53.86, 1049.36 61.51, 1045.49 69.31, 1049.06" style="stroke:black; fill:none" />
<polyline points="78.72, 941.47 77.41, 956.41 64.91, 964.70 50.64, 960.10 45.33, 946.07 52.99, 933.18 67.85, 931.13 78.72, 941.47" style="stroke:black; fill:none" />
<polyline points="110.70, 1039.90 106.07, 1025.64 114.33, 1013.12 129.27, 1011.77 139.64, 1022.61 137.62, 1037.48 124.75, 1045.17 110.70, 1039.90" style="stroke:black; fill:none" />
<polyline points="90.12, 1136.74 90.56, 1134.64 92.48, 1133.68 94.42, 1134.58 94.93, 1136.67 93.62, 1138.36 91.48, 1138.39 90.12, 1136.74" style="stroke:black; fill:none" />
<polyline points="135.97, 1089.26 130.01, 1095.43 121.48, 1094.62 116.79, 1087.44 119.48, 1079.30 127.52, 1076.33 134.86, 1080.76 135.97, 1089.26" style="stroke:black; fill:none" />
<polyline points="202.19, 1054.05 188.94, 1061.09 175.18, 1055.13 171.26, 1040.65 180.14, 1028.56 195.13, 1027.96 204.94, 1039.31 202.19, 1054.05" style="stroke:black; fill:none" />
<polyline points="239.27, 992.33 234.86, 999.68 226.36, 1000.81 220.18, 994.87 220.97, 986.34 228.13, 981.63 236.28, 984.30 239.27, 992.33" style="stroke:black; fill:none" />
<polyline points="229.25, 921.04 230.44, 929.52 224.55, 935.75 216.01, 935.02 211.25, 927.89 213.86, 919.73 221.87, 916.68 229.25, 921.04" style="stroke:black; fill:none" />
<polyline points="240.02, 891.44 239.29, 893.45 237.26, 894.13 235.46, 892.97 235.25, 890.84 236.78, 889.34 238.91, 889.61 240.02, 891.44" style="stroke:black; fill:none" />
<polyline points="214.23, 830.68 215.07, 832.65 214.05, 834.54 211.94, 834.92 210.33, 833.50 210.43, 831.36 212.17, 830.11 214.23, 830.68" style="stroke:black; fill:none" />
<polyline points="151.47, 836.17 166.42, 834.87 176.76, 845.73 174.71, 860.59 161.81, 868.25 147.78, 862.95 143.18, 848.67 151.47, 836.17" style="stroke:black; fill:none" />
<polyline points="168.56, 772.42 168.00, 774.49 166.04, 775.35 164.14, 774.35 163.74, 772.24 165.14, 770.62 167.28, 770.70 168.56, 772.42" style="stroke:black; fill:none" />
<polyline points="142.93, 868.05 145.15, 859.77 153.01, 856.34 160.59, 860.35 162.18, 868.77 156.59, 875.27 148.02, 874.94 142.93, 868.05" style="stroke:black; fill:none" />
<polyline points="115.38, 852.78 117.26, 853.82 117.61, 855.93 116.18, 857.52 114.04, 857.40 112.81, 855.65 113.40, 853.59 115.38, 852.78" style="stroke:black; fill:none" />
<polyline points="29.65, 803.28 31.50, 804.35 31.82, 806.47 30.36, 808.04 28.23, 807.88 27.02, 806.11 27.65, 804.06 29.65, 803.28" style="stroke:black; fill:none" />
<polyline points="33.10, 704.34 32.58, 719.33 20.53, 728.27  6.03, 724.42  0.00, 710.69  6.98, 697.41 21.71, 694.58 33.10, 704.34" style="stroke:black; fill:none" />
<polyline points="45.31, 668.88 44.61, 670.91 42.59, 671.62 40.77, 670.49 40.52, 668.36 42.03, 666.84 44.16, 667.07 45.31, 668.88" style="stroke:black; fill:none" />
<polyline points="107.84, 661.20 92.95, 663.03 82.24, 652.53 83.77, 637.61 96.39, 629.50 110.60, 634.31 115.69, 648.42 107.84, 661.20" style="stroke:black; fill:none" />
<polyline points="89.98, 594.55 93.86, 609.04 84.96, 621.11 69.97, 621.67 60.18, 610.30 62.97, 595.56 76.23, 588.55 89.98, 594.55" style="stroke:black; fill:none" />
<polyline points="86.38, 628.86 87.94, 613.95 100.58, 605.87 114.78, 610.72 119.84, 624.84 111.95, 637.60 97.06, 639.39 86.38, 628.86" style="stroke:black; fill:none" />
<polyline points="158.77, 568.12 157.13, 569.50 155.03, 569.07 154.05, 567.17 154.93, 565.21 157.01, 564.68 158.71, 565.98 158.77, 568.12" style="stroke:black; fill:none" />
<polyline points="119.05, 620.83 124.21, 613.99 132.77, 613.75 138.30, 620.30 136.62, 628.71 129.00, 632.64 121.18, 629.13 119.05, 620.83" style="stroke:black; fill:none" />
<polyline points="85.57, 629.18 87.65, 628.66 89.35, 629.96 89.40, 632.10 87.75, 633.47 85.65, 633.04 84.68, 631.13 85.57, 629.18" style="stroke:black; fill:none" />
<polyline points="129.94, 545.74 122.90, 558.98 108.15, 561.73 96.80, 551.92 97.40, 536.93 109.49, 528.06 123.97, 531.98 129.94, 545.74" style="stroke:black; fill:none" />
<polyline points="133.23, 482.82 132.79, 491.38 125.81, 496.37 117.57, 494.03 114.26, 486.12 118.38, 478.60 126.82, 477.14 133.23, 482.82" style="stroke:black; fill:none" />
<polyline points="123.21, 554.12 125.30, 539.27 138.22, 531.64 152.23, 536.98 156.80, 551.27 148.47, 563.75 133.53, 565.02 123.21, 554.12" style="stroke:black; fill:none" />
<polyline points="147.94, 489.71 144.87, 497.71 136.70, 500.30 129.58, 495.52 128.88, 486.98 135.12, 481.10 143.60, 482.32 147.94, 489.71" style="stroke:black; fill:none" />
<polyline points="222.39, 417.81 220.85, 419.30 218.73, 419.02 217.62, 417.19 218.36, 415.18 220.40, 414.51 222.19, 415.68 222.39, 417.81" style="stroke:black; fill:none" />
<polyline points="209.80, 482.60 211.44, 474.18 219.03, 470.22 226.87, 473.68 229.05, 481.97 223.92, 488.84 215.36, 489.12 209.80, 482.60" style="stroke:black; fill:none" />
<polyline points="183.28, 509.11 193.89, 498.51 208.80, 500.19 216.78, 512.89 211.82, 527.05 197.66, 532.00 184.96, 524.02 183.28, 509.11" style="stroke:black; fill:none" />
<polyline points="242.10, 418.54 237.44, 425.73 228.90, 426.56 222.94, 420.41 224.02, 411.91 231.35, 407.45 239.39, 410.41 242.10, 418.54" style="stroke:black; fill:none" />
<polyline points="207.86, 422.74 222.75, 420.91 233.46, 431.41 231.93, 446.34 219.31, 454.44 205.10, 449.63 200.01, 435.52 207.86, 422.74" style="stroke:black; fill:none" />
<polyline points="279.76, 497.19 278.27, 495.65 278.55, 493.53 280.38, 492.42 282.39, 493.16 283.06, 495.20 281.89, 496.99 279.76, 497.19" style="stroke:black; fill:none" />
<polyline points="253.75, 476.88 265.57, 486.11 265.72, 501.11 254.09, 510.58 239.43, 507.39 232.79, 493.94 239.16, 480.36 253.75, 476.88" style="stroke:black; fill:none" />
<polyline points="309.73, 441.90 307.91, 443.04 305.89, 442.32 305.18, 440.30 306.33, 438.49 308.46, 438.25 309.97, 439.77 309.73, 441.90" style="stroke:black; fill:none" />
<polyline points="256.89, 476.21 269.47, 468.04 283.70, 472.79 288.87, 486.87 281.08, 499.69 266.20, 501.59 255.43, 491.14 256.89, 476.21" style="stroke:black; fill:none" />
<polyline points="181.42, 533.09 188.26, 527.93 196.56, 530.06 200.07, 537.89 196.14, 545.50 187.74, 547.18 181.18, 541.65 181.42, 533.09" style="stroke:black; fill:none" />
<polyline points="209.23, 518.30 201.66, 522.32 193.80, 518.91 191.56, 510.64 196.63, 503.73 205.20, 503.39 210.80, 509.87 209.23, 518.30" style="stroke:black; fill:none" />
<polyline points="197.77, 583.29 200.37, 568.52 213.55, 561.35 227.37, 567.18 231.43, 581.61 222.68, 593.79 207.70, 594.54 197.77, 583.29" style="stroke:black; fill:none" />
<polyline points="289.85, 604.55 275.23, 601.18 268.76, 587.65 275.30, 574.15 289.93, 570.85 301.64, 580.23 301.60, 595.23 289.85, 604.55" style="stroke:black; fill:none" />
<polyline points="254.45, 692.17 255.25, 690.18 257.30, 689.57 259.06, 690.80 259.20, 692.94 257.62, 694.38 255.50, 694.04 254.45, 692.17" style="stroke:black; fill:none" />
<polyline points="284.22, 795.99 280.08, 781.57 288.78, 769.35 303.75, 768.52 313.74, 779.72 311.20, 794.51 298.07, 801.75 284.22, 795.99" style="stroke:black; fill:none" />
<polyline points="193.69, 745.81 206.81, 753.08 209.31, 767.87 199.30, 779.05 184.32, 778.19 175.66, 765.94 179.83, 751.53 193.69, 745.81" style="stroke:black; fill:none" />
<polyline points="262.81, 681.36 251.84, 691.59 237.00, 689.39 229.47, 676.42 234.91, 662.44 249.23, 657.99 261.65, 666.41 262.81, 681.36" style="stroke:black; fill:none" />
<polyline points="283.32, 621.79 280.53, 629.90 272.45, 632.77 265.17, 628.25 264.17, 619.73 270.20, 613.64 278.72, 614.56 283.32, 621.79" style="stroke:black; fill:none" />
<polyline points="288.34, 693.62 287.74, 685.07 294.05, 679.27 302.52, 680.59 306.77, 688.03 303.60, 696.00 295.40, 698.48 288.34, 693.62" style="stroke:black; fill:none" />
<polyline points="254.73, 680.72 262.73, 683.79 265.32, 691.96 260.54, 699.08 252.00, 699.78 246.13, 693.54 247.34, 685.06 254.73, 680.72" style="stroke:black; fill:none" />
<polyline points="323.35, 673.50 314.83, 674.40 308.81, 668.29 309.84, 659.78 317.13, 655.28 325.20, 658.17 327.97, 666.28 323.35, 673.50" style="stroke:black; fill:none" />
<polyline points="377.30, 621.41 375.76, 622.89 373.64, 622.62 372.53, 620.78 373.27, 618.77 375.31, 618.10 377.10, 619.27 377.30, 621.41" style="stroke:black; fill:none" />
<polyline points="355.22, 596.88 360.96, 603.25 359.55, 611.71 352.07, 615.88 344.14, 612.63 341.73, 604.40 346.67, 597.39 355.22, 596.88" style="stroke:black; fill:none" />
<polyline points="335.38, 666.09 335.97, 664.03 337.95, 663.21 339.82, 664.24 340.18, 666.36 338.76, 667.96 336.62, 667.84 335.38, 666.09" style="stroke:black; fill:none" />
<polyline points="318.48, 559.42 318.82, 561.54 317.37, 563.12 315.23, 562.98 314.01, 561.21 314.63, 559.16 316.62, 558.36 318.48, 559.42" style="stroke:black; fill:none" />
<polyline points="393.48, 559.42 378.48, 559.42 369.13, 547.69 372.47, 533.07 385.98, 526.56 399.50, 533.07 402.83, 547.69 393.48, 559.42" style="stroke:black; fill:none" />
<polyline points="467.56, 571.15 465.44, 570.82 464.38, 568.96 465.18, 566.97 467.23, 566.35 469.00, 567.57 469.14, 569.71 467.56, 571.15" style="stroke:black; fill:none" />
<polyline points="501.87, 518.32 500.70, 520.12 498.57, 520.32 497.08, 518.79 497.35, 516.66 499.18, 515.55 501.19, 516.29 501.87, 518.32" style="stroke:black; fill:none" />
<polyline points="503.52, 486.86 502.73, 501.84 490.53, 510.57 476.10, 506.47 470.31, 492.63 477.52, 479.48 492.30, 476.91 503.52, 486.86" style="stroke:black; fill:none" />
<polyline points="472.93, 392.71 475.57, 400.86 470.85, 408.01 462.32, 408.78 456.39, 402.59 457.54, 394.09 464.90, 389.70 472.93, 392.71" style="stroke:black; fill:none" />
<polyline points="427.79, 332.81 432.95, 339.65 430.81, 347.96 422.99, 351.46 415.37, 347.53 413.70, 339.13 419.22, 332.57 427.79, 332.81" style="stroke:black; fill:none" />
<polyline points="517.42, 384.56 515.57, 383.49 515.25, 381.37 516.71, 379.80 518.84, 379.96 520.05, 381.73 519.42, 383.78 517.42, 384.56" style="stroke:black; fill:none" />
<polyline points="589.38, 387.07 587.24, 387.00 585.96, 385.28 586.51, 383.20 588.47, 382.34 590.37, 383.34 590.77, 385.44 589.38, 387.07" style="stroke:black; fill:none" />
<polyline points="490.52, 392.25 492.65, 392.14 494.08, 393.74 493.71, 395.86 491.83, 396.88 489.85, 396.06 489.27, 394.00 490.52, 392.25" style="stroke:black; fill:none" />
<polyline points="593.45, 381.43 578.53, 383.00 568.00, 372.32 569.79, 357.42 582.55, 349.54 596.68, 354.60 601.52, 368.79 593.45, 381.43" style="stroke:black; fill:none" />
<polyline points="655.06, 405.09 647.06, 402.02 644.47, 393.84 649.25, 386.73 657.79, 386.02 663.67, 392.26 662.46, 400.75 655.06, 405.09" style="stroke:black; fill:none" />
<polyline points="591.02, 421.05 599.34, 418.98 606.15, 424.19 606.32, 432.76 599.73, 438.24 591.33, 436.50 587.46, 428.85 591.02, 421.05" style="stroke:black; fill:none" />
<polyline points="647.00, 386.08 634.28, 394.03 620.13, 389.04 615.21, 374.87 623.22, 362.19 638.13, 360.54 648.71, 371.18 647.00, 386.08" style="stroke:black; fill:none" />
<polyline points="684.08, 294.29 678.46, 308.20 664.09, 312.47 651.78, 303.90 650.81, 288.93 661.90, 278.84 676.71, 281.22 684.08, 294.29" style="stroke:black; fill:none" />
<polyline points="670.14, 264.38 676.47, 277.97 669.80, 291.41 655.13, 294.56 643.52, 285.06 643.71, 270.07 655.55, 260.86 670.14, 264.38" style="stroke:black; fill:none" />
<polyline points="703.09, 266.11 694.53, 265.66 689.54, 258.69 691.89, 250.44 699.79, 247.13 707.31, 251.25 708.78, 259.69 703.09, 266.11" style="stroke:black; fill:none" />
<polyline points="711.19, 231.03 709.26, 239.38 701.53, 243.08 693.82, 239.34 691.93, 230.98 697.29, 224.29 705.86, 224.31 711.19, 231.03" style="stroke:black; fill:none" />
<polyline points="679.20, 218.11 687.15, 221.32 689.59, 229.53 684.69, 236.57 676.14, 237.12 670.37, 230.78 671.74, 222.32 679.20, 218.11" style="stroke:black; fill:none" />
<polyline points="595.00, 175.20 608.37, 182.01 611.37, 196.71 601.76, 208.22 586.77, 207.89 577.68, 195.95 581.34, 181.41 595.00, 175.20" style="stroke:black; fill:none" />
<polyline points="590.43, 137.98 590.69, 140.11 589.19, 141.64 587.06, 141.42 585.90, 139.62 586.59, 137.59 588.60, 136.86 590.43, 137.98" style="stroke:black; fill:none" />
<polyline points="521.39, 108.68 535.20, 114.54 539.23, 128.99 530.44, 141.15 515.46, 141.86 505.56, 130.58 508.20, 115.82 521.39, 108.68" style="stroke:black; fill:none" />
<polyline points="499.68, 81.87 509.12, 93.52 505.89, 108.17 492.43, 114.78 478.86, 108.37 475.42, 93.78 484.68, 81.98 499.68, 81.87" style="stroke:black; fill:none" />
<polyline points="465.25, 92.39 473.45, 89.89 480.52, 94.73 481.14, 103.28 474.84, 109.10 466.37, 107.80 462.10, 100.36 465.25, 92.39" style="stroke:black; fill:none" />
<polyline points="429.86, -4.87 430.59, -2.85 429.47, -1.02 427.34, -0.76 425.81, -2.25 426.02, -4.39 427.82, -5.55 429.86, -4.87" style="stroke:black; fill:none" />
</svg>