<svg height="1500" width="1500" xmlns="http://www.w3.org/2000/svg">
<polyline points="602.52, 1331.35 611.47, 1321.75 624.59, 1321.29 634.18, 1330.25 634.64, 1343.36 625.69, 1352.96 612.57, 1353.42 602.98, 1344.47 602.52, 1331.35" style="stroke:black; fill:none" />
<polyline points="630.13, 1274.73 626.85, 1281.47 619.76, 1283.91 613.01, 1280.62 610.57, 1273.53 613.86, 1266.79 620.95, 1264.35 627.69, 1267.64 630.13, 1274.73" style="stroke:black; fill:none" />
<polyline points="698.97, 1279.54 697.10, 1279.41 695.87, 1278.00 696.00, 1276.12 697.41, 1274.89 699.28, 1275.03 700.51, 1276.44 700.38, 1278.31 698.97, 1279.54" style="stroke:black; fill:none" />
<polyline points="763.92, 1354.26 759.00, 1348.60 759.52, 1341.12 765.18, 1336.19 772.66, 1336.72 777.58, 1342.38 777.06, 1349.86 771.40, 1354.78 763.92, 1354.26" style="stroke:black; fill:none" />
<polyline points="853.79, 1325.06 852.01, 1325.63 850.34, 1324.78 849.76, 1323.00 850.61, 1321.33 852.39, 1320.75 854.06, 1321.60 854.64, 1323.38 853.79, 1325.06" style="stroke:black; fill:none" />
<polyline points="837.60, 1222.83 838.77, 1230.24 834.37, 1236.30 826.96, 1237.48 820.89, 1233.07 819.72, 1225.66 824.12, 1219.59 831.53, 1218.42 837.60, 1222.83" style="stroke:black; fill:none" />
<polyline points="883.41, 1140.18 882.51, 1141.82 880.70, 1142.33 879.06, 1141.43 878.55, 1139.62 879.46, 1137.98 881.26, 1137.47 882.90, 1138.38 883.41, 1140.18" style="stroke:black; fill:none" />
<polyline points="949.94, 1219.46 941.51, 1209.41 942.65, 1196.33 952.70, 1187.90 965.78, 1189.04 974.22, 1199.10 973.07, 1212.17 963.02, 1220.61 949.94, 1219.46" style="stroke:black; fill:none" />
<polyline points="972.60, 1197.58 971.25, 1198.88 969.38, 1198.85 968.08, 1197.50 968.11, 1195.63 969.46, 1194.33 971.33, 1194.36 972.64, 1195.71 972.60, 1197.58" style="stroke:black; fill:none" />
<polyline points="908.15, 1266.69 913.27, 1261.21 920.76, 1260.95 926.25, 1266.06 926.51, 1273.56 921.40, 1279.04 913.90, 1279.31 908.42, 1274.19 908.15, 1266.69" style="stroke:black; fill:none" />
<polyline points="840.20, 1278.68 847.59, 1277.37 853.73, 1281.68 855.03, 1289.06 850.73, 1295.21 843.35, 1296.51 837.20, 1292.21 835.90, 1284.82 840.20, 1278.68" style="stroke:black; fill:none" />
<polyline points="815.74, 1369.96 816.23, 1368.15 817.85, 1367.21 819.66, 1367.69 820.60, 1369.32 820.12, 1371.13 818.49, 1372.07 816.68, 1371.58 815.74, 1369.96" style="stroke:black; fill:none" />
<polyline points="852.83, 1466.58 848.13, 1454.33 853.47, 1442.34 865.72, 1437.63 877.71, 1442.97 882.42, 1455.23 877.08, 1467.22 864.82, 1471.92 852.83, 1466.58" style="stroke:black; fill:none" />
<polyline points="856.60, 1430.78 855.81, 1438.24 849.99, 1442.96 842.53, 1442.17 837.81, 1436.35 838.59, 1428.89 844.42, 1424.17 851.88, 1424.95 856.60, 1430.78" style="stroke:black; fill:none" />
<polyline points="798.41, 1350.69 806.12, 1361.30 804.07, 1374.27 793.45, 1381.98 780.49, 1379.93 772.77, 1369.31 774.83, 1356.35 785.44, 1348.63 798.41, 1350.69" style="stroke:black; fill:none" />
<polyline points="715.38, 1404.61 716.95, 1403.58 718.78, 1403.97 719.81, 1405.55 719.42, 1407.38 717.84, 1408.40 716.01, 1408.01 714.99, 1406.44 715.38, 1404.61" style="stroke:black; fill:none" />
<polyline points="731.04, 1373.87 730.19, 1375.54 728.41, 1376.12 726.74, 1375.26 726.16, 1373.48 727.01, 1371.81 728.79, 1371.23 730.46, 1372.08 731.04, 1373.87" style="stroke:black; fill:none" />
<polyline points="659.05, 1375.12 660.93, 1375.09 662.28, 1376.39 662.31, 1378.27 661.01, 1379.62 659.13, 1379.65 657.78, 1378.35 657.75, 1376.47 659.05, 1375.12" style="stroke:black; fill:none" />
<polyline points="686.27, 1265.96 685.81, 1267.78 684.21, 1268.75 682.39, 1268.30 681.42, 1266.69 681.88, 1264.87 683.48, 1263.90 685.30, 1264.36 686.27, 1265.96" style="stroke:black; fill:none" />
<polyline points="626.51, 1300.46 633.01, 1296.71 640.25, 1298.66 644.00, 1305.15 642.06, 1312.40 635.57, 1316.15 628.32, 1314.20 624.57, 1307.71 626.51, 1300.46" style="stroke:black; fill:none" />
<polyline points="633.06, 1331.28 632.67, 1329.44 633.69, 1327.87 635.53, 1327.48 637.10, 1328.50 637.49, 1330.33 636.47, 1331.91 634.63, 1332.30 633.06, 1331.28" style="stroke:black; fill:none" />
<polyline points="540.84, 1378.26 552.54, 1372.31 565.02, 1376.36 570.98, 1388.06 566.92, 1400.54 555.23, 1406.50 542.75, 1402.44 536.79, 1390.75 540.84, 1378.26" style="stroke:black; fill:none" />
<polyline points="509.34, 1378.26 522.47, 1378.26 531.75, 1387.54 531.75, 1400.67 522.47, 1409.95 509.34, 1409.95 500.06, 1400.67 500.06, 1387.54 509.34, 1378.26" style="stroke:black; fill:none" />
<polyline points="409.85, 1406.79 411.65, 1406.28 413.29, 1407.18 413.81, 1408.99 412.90, 1410.63 411.10, 1411.14 409.46, 1410.23 408.94, 1408.43 409.85, 1406.79" style="stroke:black; fill:none" />
<polyline points="441.85, 1464.52 435.49, 1453.04 439.10, 1440.42 450.58, 1434.06 463.20, 1437.68 469.56, 1449.16 465.95, 1461.77 454.47, 1468.14 441.85, 1464.52" style="stroke:black; fill:none" />
<polyline points="330.73, 1482.12 338.14, 1480.94 344.21, 1485.35 345.38, 1492.76 340.97, 1498.83 333.57, 1500.00 327.50, 1495.59 326.33, 1488.18 330.73, 1482.12" style="stroke:black; fill:none" />
<polyline points="423.16, 1446.64 410.91, 1451.34 398.92, 1446.00 394.21, 1433.75 399.55, 1421.76 411.80, 1417.06 423.79, 1422.39 428.50, 1434.65 423.16, 1446.64" style="stroke:black; fill:none" />
<polyline points="428.09, 1477.75 426.03, 1464.79 433.75, 1454.17 446.71, 1452.12 457.33, 1459.83 459.38, 1472.79 451.67, 1483.41 438.70, 1485.46 428.09, 1477.75" style="stroke:black; fill:none" />
<polyline points="413.79, 1449.68 414.64, 1451.35 414.06, 1453.14 412.39, 1453.99 410.60, 1453.41 409.75, 1451.74 410.33, 1449.96 412.00, 1449.10 413.79, 1449.68" style="stroke:black; fill:none" />
<polyline points="425.37, 1414.02 424.79, 1415.80 423.12, 1416.65 421.34, 1416.07 420.49, 1414.40 421.07, 1412.62 422.74, 1411.77 424.52, 1412.35 425.37, 1414.02" style="stroke:black; fill:none" />
<polyline points="434.15, 1342.56 433.92, 1344.42 432.44, 1345.57 430.58, 1345.34 429.43, 1343.86 429.66, 1342.00 431.13, 1340.85 432.99, 1341.08 434.15, 1342.56" style="stroke:black; fill:none" />
<polyline points="410.55, 1277.72 411.19, 1279.48 410.40, 1281.18 408.64, 1281.82 406.94, 1281.03 406.30, 1279.26 407.09, 1277.57 408.85, 1276.92 410.55, 1277.72" style="stroke:black; fill:none" />
<polyline points="379.69, 1259.18 381.30, 1260.14 381.75, 1261.96 380.79, 1263.57 378.97, 1264.02 377.36, 1263.06 376.91, 1261.24 377.87, 1259.63 379.69, 1259.18" style="stroke:black; fill:none" />
<polyline points="370.28, 1366.76 370.44, 1364.90 371.88, 1363.69 373.75, 1363.85 374.95, 1365.29 374.79, 1367.16 373.35, 1368.36 371.48, 1368.20 370.28, 1366.76" style="stroke:black; fill:none" />
<polyline points="308.80, 1335.44 310.47, 1336.29 311.05, 1338.07 310.20, 1339.74 308.41, 1340.32 306.74, 1339.47 306.16, 1337.69 307.02, 1336.02 308.80, 1335.44" style="stroke:black; fill:none" />
<polyline points="243.44, 1326.25 245.30, 1326.51 246.43, 1328.01 246.17, 1329.87 244.67, 1331.00 242.81, 1330.74 241.68, 1329.24 241.94, 1327.38 243.44, 1326.25" style="stroke:black; fill:none" />
<polyline points="212.02, 1328.45 213.89, 1328.32 215.30, 1329.55 215.43, 1331.42 214.20, 1332.84 212.33, 1332.97 210.92, 1331.74 210.79, 1329.87 212.02, 1328.45" style="stroke:black; fill:none" />
<polyline points="241.01, 1340.76 228.93, 1335.63 224.02, 1323.46 229.14, 1311.38 241.31, 1306.46 253.39, 1311.59 258.31, 1323.76 253.18, 1335.84 241.01, 1340.76" style="stroke:black; fill:none" />
<polyline points="144.55, 1318.49 146.38, 1318.91 147.37, 1320.50 146.95, 1322.33 145.36, 1323.32 143.53, 1322.90 142.54, 1321.31 142.96, 1319.48 144.55, 1318.49" style="stroke:black; fill:none" />
<polyline points="235.94, 1367.08 224.35, 1360.92 220.51, 1348.37 226.67, 1336.78 239.22, 1332.94 250.81, 1339.10 254.65, 1351.65 248.49, 1363.24 235.94, 1367.08" style="stroke:black; fill:none" />
<polyline points="343.13, 1380.24 330.10, 1378.64 322.02, 1368.30 323.62, 1355.27 333.97, 1347.19 346.99, 1348.79 355.07, 1359.13 353.47, 1372.16 343.13, 1380.24" style="stroke:black; fill:none" />
<polyline points="348.35, 1343.11 346.52, 1356.10 336.04, 1364.00 323.04, 1362.18 315.15, 1351.69 316.97, 1338.70 327.45, 1330.80 340.45, 1332.62 348.35, 1343.11" style="stroke:black; fill:none" />
<polyline points="305.38, 1297.03 306.66, 1298.40 306.60, 1300.28 305.23, 1301.55 303.35, 1301.49 302.07, 1300.12 302.14, 1298.24 303.51, 1296.97 305.38, 1297.03" style="stroke:black; fill:none" />
<polyline points="247.66, 1265.03 249.30, 1265.94 249.82, 1267.74 248.91, 1269.38 247.10, 1269.90 245.46, 1268.99 244.95, 1267.19 245.86, 1265.55 247.66, 1265.03" style="stroke:black; fill:none" />
<polyline points="182.06, 1228.67 193.54, 1235.04 197.16, 1247.65 190.80, 1259.13 178.18, 1262.75 166.70, 1256.39 163.08, 1243.77 169.45, 1232.29 182.06, 1228.67" style="stroke:black; fill:none" />
<polyline points="171.74, 1163.49 173.79, 1176.45 166.08, 1187.07 153.11, 1189.12 142.50, 1181.41 140.44, 1168.44 148.16, 1157.82 161.12, 1155.77 171.74, 1163.49" style="stroke:black; fill:none" />
<polyline points="204.66, 1165.79 202.79, 1165.66 201.56, 1164.24 201.69, 1162.37 203.10, 1161.14 204.97, 1161.27 206.20, 1162.69 206.07, 1164.56 204.66, 1165.79" style="stroke:black; fill:none" />
<polyline points="268.38, 1084.23 267.22, 1085.71 265.36, 1085.93 263.89, 1084.78 263.66, 1082.92 264.81, 1081.44 266.67, 1081.21 268.15, 1082.37 268.38, 1084.23" style="stroke:black; fill:none" />
<polyline points="208.80, 1163.29 209.93, 1161.80 211.78, 1161.53 213.28, 1162.66 213.54, 1164.52 212.41, 1166.02 210.56, 1166.28 209.06, 1165.15 208.80, 1163.29" style="stroke:black; fill:none" />
<polyline points="174.37, 1152.77 176.17, 1153.32 177.05, 1154.97 176.50, 1156.76 174.84, 1157.64 173.05, 1157.10 172.17, 1155.44 172.72, 1153.65 174.37, 1152.77" style="stroke:black; fill:none" />
<polyline points="271.44, 1200.11 259.65, 1194.36 255.37, 1181.95 261.13, 1170.15 273.54, 1165.88 285.33, 1171.63 289.61, 1184.04 283.85, 1195.84 271.44, 1200.11" style="stroke:black; fill:none" />
<polyline points="208.33, 1219.41 210.12, 1218.86 211.77, 1219.74 212.32, 1221.53 211.44, 1223.19 209.65, 1223.74 207.99, 1222.86 207.45, 1221.06 208.33, 1219.41" style="stroke:black; fill:none" />
<polyline points="232.29, 1244.23 230.99, 1242.88 231.02, 1241.00 232.37, 1239.70 234.25, 1239.73 235.55, 1241.08 235.52, 1242.96 234.17, 1244.26 232.29, 1244.23" style="stroke:black; fill:none" />
<polyline points="276.25, 1140.67 271.12, 1152.75 258.95, 1157.67 246.87, 1152.54 241.95, 1140.37 247.08, 1128.29 259.25, 1123.37 271.33, 1128.50 276.25, 1140.67" style="stroke:black; fill:none" />
<polyline points="274.44, 1175.12 275.13, 1162.01 284.88, 1153.23 297.99, 1153.92 306.77, 1163.67 306.09, 1176.78 296.33, 1185.56 283.23, 1184.87 274.44, 1175.12" style="stroke:black; fill:none" />
<polyline points="336.85, 1196.61 324.44, 1192.34 318.68, 1180.54 322.96, 1168.13 334.75, 1162.38 347.16, 1166.65 352.92, 1178.45 348.64, 1190.86 336.85, 1196.61" style="stroke:black; fill:none" />
<polyline points="246.48, 1168.98 259.03, 1172.82 265.19, 1184.41 261.35, 1196.96 249.76, 1203.12 237.21, 1199.28 231.05, 1187.69 234.89, 1175.14 246.48, 1168.98" style="stroke:black; fill:none" />
<polyline points="293.71, 1114.64 285.10, 1124.55 272.01, 1125.46 262.10, 1116.85 261.19, 1103.76 269.80, 1093.85 282.89, 1092.94 292.80, 1101.55 293.71, 1114.64" style="stroke:black; fill:none" />
<polyline points="300.89, 1148.39 298.16, 1135.55 305.31, 1124.54 318.14, 1121.81 329.15, 1128.96 331.88, 1141.80 324.73, 1152.81 311.89, 1155.53 300.89, 1148.39" style="stroke:black; fill:none" />
<polyline points="305.46, 1185.61 305.23, 1183.75 306.38, 1182.27 308.24, 1182.04 309.72, 1183.19 309.95, 1185.06 308.79, 1186.53 306.93, 1186.76 305.46, 1185.61" style="stroke:black; fill:none" />
<polyline points="342.75, 1181.69 329.70, 1183.06 319.50, 1174.80 318.13, 1161.75 326.39, 1151.55 339.44, 1150.17 349.64, 1158.43 351.01, 1171.49 342.75, 1181.69" style="stroke:black; fill:none" />
<polyline points="330.73, 1243.53 333.23, 1230.65 344.12, 1223.31 357.00, 1225.81 364.34, 1236.69 361.83, 1249.58 350.95, 1256.92 338.07, 1254.41 330.73, 1243.53" style="stroke:black; fill:none" />
<polyline points="405.63, 1247.45 403.75, 1247.36 402.50, 1245.96 402.60, 1244.09 403.99, 1242.84 405.86, 1242.93 407.12, 1244.33 407.02, 1246.20 405.63, 1247.45" style="stroke:black; fill:none" />
<polyline points="392.60, 1173.59 392.93, 1175.44 391.85, 1176.98 390.01, 1177.30 388.47, 1176.23 388.15, 1174.38 389.22, 1172.84 391.07, 1172.52 392.60, 1173.59" style="stroke:black; fill:none" />
<polyline points="403.87, 1102.48 402.69, 1109.89 396.63, 1114.30 389.22, 1113.12 384.81, 1107.06 385.98, 1099.65 392.05, 1095.24 399.46, 1096.41 403.87, 1102.48" style="stroke:black; fill:none" />
<polyline points="414.69, 1205.41 413.90, 1197.95 418.62, 1192.13 426.08, 1191.34 431.91, 1196.06 432.69, 1203.52 427.97, 1209.35 420.51, 1210.13 414.69, 1205.41" style="stroke:black; fill:none" />
<polyline points="467.52, 1171.10 465.95, 1172.12 464.11, 1171.73 463.09, 1170.16 463.48, 1168.33 465.06, 1167.31 466.89, 1167.69 467.91, 1169.27 467.52, 1171.10" style="stroke:black; fill:none" />
<polyline points="396.67, 1089.59 397.90, 1091.01 397.77, 1092.88 396.35, 1094.11 394.48, 1093.98 393.25, 1092.56 393.38, 1090.69 394.80, 1089.46 396.67, 1089.59" style="stroke:black; fill:none" />
<polyline points="376.49, 1023.61 377.04, 1025.40 376.16, 1027.06 374.37, 1027.60 372.71, 1026.72 372.16, 1024.93 373.04, 1023.28 374.84, 1022.73 376.49, 1023.61" style="stroke:black; fill:none" />
<polyline points="376.49, 951.61 376.49, 964.73 367.21, 974.01 354.09, 974.01 344.81, 964.73 344.81, 951.61 354.09, 942.33 367.21, 942.33 376.49, 951.61" style="stroke:black; fill:none" />
<polyline points="351.04, 926.15 360.32, 935.43 360.32, 948.56 351.04, 957.84 337.91, 957.84 328.63, 948.56 328.63, 935.43 337.91, 926.15 351.04, 926.15" style="stroke:black; fill:none" />
<polyline points="334.63, 833.09 334.95, 834.93 333.88, 836.47 332.03, 836.80 330.50, 835.72 330.17, 833.87 331.25, 832.34 333.09, 832.01 334.63, 833.09" style="stroke:black; fill:none" />
<polyline points="382.56, 783.45 373.44, 792.89 360.32, 793.12 350.88, 784.01 350.65, 770.88 359.77, 761.44 372.89, 761.21 382.33, 770.33 382.56, 783.45" style="stroke:black; fill:none" />
<polyline points="284.52, 797.23 291.95, 796.19 297.94, 800.70 298.98, 808.13 294.47, 814.12 287.04, 815.16 281.05, 810.65 280.01, 803.22 284.52, 797.23" style="stroke:black; fill:none" />
<polyline points="350.16, 804.13 337.11, 802.76 328.85, 792.56 330.22, 779.51 340.42, 771.25 353.47, 772.62 361.73, 782.82 360.36, 795.87 350.16, 804.13" style="stroke:black; fill:none" />
<polyline points="313.25, 749.41 320.59, 760.29 318.09, 773.18 307.21, 780.52 294.32, 778.01 286.99, 767.13 289.49, 754.25 300.37, 746.91 313.25, 749.41" style="stroke:black; fill:none" />
<polyline points="389.62, 673.05 384.32, 678.35 376.82, 678.35 371.52, 673.05 371.52, 665.55 376.82, 660.24 384.32, 660.24 389.62, 665.55 389.62, 673.05" style="stroke:black; fill:none" />
<polyline points="359.66, 614.24 363.06, 620.92 360.75, 628.06 354.06, 631.46 346.93, 629.14 343.53, 622.46 345.84, 615.33 352.53, 611.92 359.66, 614.24" style="stroke:black; fill:none" />
<polyline points="329.07, 708.39 329.65, 706.61 331.32, 705.76 333.10, 706.34 333.95, 708.01 333.37, 709.79 331.70, 710.64 329.92, 710.07 329.07, 708.39" style="stroke:black; fill:none" />
<polyline points="231.28, 723.88 244.25, 721.83 254.87, 729.54 256.92, 742.51 249.21, 753.12 236.24, 755.18 225.62, 747.46 223.57, 734.50 231.28, 723.88" style="stroke:black; fill:none" />
<polyline points="223.66, 754.45 224.12, 752.63 225.73, 751.66 227.54, 752.11 228.51, 753.72 228.06, 755.54 226.45, 756.51 224.63, 756.05 223.66, 754.45" style="stroke:black; fill:none" />
<polyline points="254.48, 760.99 247.14, 759.44 243.06, 753.15 244.61, 745.81 250.90, 741.72 258.24, 743.28 262.33, 749.57 260.77, 756.91 254.48, 760.99" style="stroke:black; fill:none" />
<polyline points="268.88, 863.49 267.05, 850.49 274.95, 840.01 287.95, 838.18 298.43, 846.08 300.26, 859.08 292.36, 869.56 279.36, 871.39 268.88, 863.49" style="stroke:black; fill:none" />
<polyline points="343.59, 856.95 336.12, 857.60 330.38, 852.78 329.72, 845.31 334.55, 839.57 342.02, 838.91 347.76, 843.73 348.42, 851.21 343.59, 856.95" style="stroke:black; fill:none" />
<polyline points="296.40, 798.67 297.58, 800.12 297.38, 801.99 295.92, 803.17 294.06, 802.97 292.88, 801.51 293.07, 799.65 294.53, 798.47 296.40, 798.67" style="stroke:black; fill:none" />
<polyline points="235.84, 816.03 248.45, 812.41 259.93, 818.78 263.55, 831.39 257.19, 842.87 244.57, 846.49 233.09, 840.13 229.47, 827.51 235.84, 816.03" style="stroke:black; fill:none" />
<polyline points="171.55, 777.40 173.16, 778.37 173.61, 780.19 172.64, 781.79 170.82, 782.25 169.22, 781.28 168.76, 779.46 169.73, 777.86 171.55, 777.40" style="stroke:black; fill:none" />
<polyline points="146.73, 753.44 156.17, 762.55 156.40, 775.68 147.28, 785.12 134.16, 785.35 124.72, 776.23 124.49, 763.11 133.61, 753.67 146.73, 753.44" style="stroke:black; fill:none" />
<polyline points="118.47, 773.23 120.01, 772.15 121.85, 772.48 122.93, 774.01 122.60, 775.86 121.07, 776.93 119.22, 776.61 118.15, 775.07 118.47, 773.23" style="stroke:black; fill:none" />
<polyline points=" 6.40, 763.42 13.87, 764.07 18.69, 769.82 18.04, 777.29 12.29, 782.11  4.82, 781.46  0.00, 775.71  0.65, 768.24  6.40, 763.42" style="stroke:black; fill:none" />
<polyline points=" 8.28, 799.37  7.60, 786.26 16.38, 776.51 29.49, 775.82 39.24, 784.61 39.93, 797.71 31.14, 807.47 18.04, 808.15  8.28, 799.37" style="stroke:black; fill:none" />
<polyline points="67.65, 714.59 66.57, 716.12 64.73, 716.45 63.19, 715.37 62.86, 713.53 63.94, 711.99 65.79, 711.67 67.32, 712.74 67.65, 714.59" style="stroke:black; fill:none" />
<polyline points="129.27, 701.49 127.44, 701.88 125.87, 700.86 125.48, 699.02 126.50, 697.45 128.33, 697.06 129.90, 698.08 130.29, 699.92 129.27, 701.49" style="stroke:black; fill:none" />
<polyline points="157.34, 638.46 154.29, 645.31 147.28, 647.99 140.43, 644.94 137.74, 637.94 140.80, 631.09 147.80, 628.40 154.65, 631.45 157.34, 638.46" style="stroke:black; fill:none" />
<polyline points="165.88, 670.33 163.94, 663.09 167.69, 656.59 174.93, 654.65 181.43, 658.40 183.37, 665.64 179.62, 672.14 172.37, 674.08 165.88, 670.33" style="stroke:black; fill:none" />
<polyline points="218.91, 617.30 209.63, 626.58 196.50, 626.58 187.22, 617.30 187.22, 604.17 196.50, 594.89 209.63, 594.89 218.91, 604.17 218.91, 617.30" style="stroke:black; fill:none" />
<polyline points="232.33, 647.44 226.99, 635.45 231.70, 623.20 243.69, 617.86 255.94, 622.57 261.28, 634.56 256.58, 646.81 244.59, 652.15 232.33, 647.44" style="stroke:black; fill:none" />
<polyline points="294.72, 656.21 292.86, 655.95 291.73, 654.45 292.00, 652.60 293.49, 651.47 295.35, 651.73 296.48, 653.23 296.22, 655.08 294.72, 656.21" style="stroke:black; fill:none" />
<polyline points="229.12, 692.57 235.68, 688.94 242.89, 691.00 246.53, 697.56 244.46, 704.77 237.90, 708.41 230.69, 706.34 227.06, 699.78 229.12, 692.57" style="stroke:black; fill:none" />
<polyline points="202.16, 629.06 202.90, 630.78 202.19, 632.52 200.47, 633.26 198.73, 632.55 198.00, 630.83 198.70, 629.09 200.42, 628.36 202.16, 629.06" style="stroke:black; fill:none" />
<polyline points="204.47, 563.10 204.01, 576.22 194.41, 585.17 181.29, 584.71 172.34, 575.11 172.80, 561.99 182.40, 553.04 195.51, 553.50 204.47, 563.10" style="stroke:black; fill:none" />
<polyline points="110.67, 574.62 112.53, 574.39 114.01, 575.54 114.24, 577.40 113.08, 578.88 111.22, 579.11 109.74, 577.95 109.52, 576.09 110.67, 574.62" style="stroke:black; fill:none" />
<polyline points="184.33, 653.60 175.38, 644.00 175.83, 630.89 185.43, 621.93 198.55, 622.39 207.50, 631.99 207.04, 645.11 197.44, 654.06 184.33, 653.60" style="stroke:black; fill:none" />
<polyline points="193.51, 718.96 193.25, 717.10 194.38, 715.61 196.24, 715.34 197.73, 716.47 197.99, 718.33 196.87, 719.83 195.01, 720.09 193.51, 718.96" style="stroke:black; fill:none" />
<polyline points="281.13, 754.36 279.39, 753.66 278.66, 751.93 279.36, 750.19 281.09, 749.46 282.83, 750.16 283.56, 751.89 282.86, 753.63 281.13, 754.36" style="stroke:black; fill:none" />
<polyline points="261.48, 846.79 263.04, 839.46 269.33, 835.37 276.67, 836.93 280.75, 843.22 279.19, 850.56 272.90, 854.64 265.57, 853.08 261.48, 846.79" style="stroke:black; fill:none" />
<polyline points="196.53, 809.29 207.90, 815.86 211.29, 828.53 204.73, 839.90 192.05, 843.30 180.69, 836.74 177.29, 824.06 183.85, 812.69 196.53, 809.29" style="stroke:black; fill:none" />
<polyline points="233.46, 802.78 231.61, 803.11 230.08, 802.03 229.75, 800.19 230.83, 798.65 232.68, 798.33 234.21, 799.40 234.54, 801.25 233.46, 802.78" style="stroke:black; fill:none" />
<polyline points="288.31, 715.01 284.33, 721.37 277.03, 723.06 270.67, 719.08 268.98, 711.78 272.95, 705.41 280.26, 703.73 286.62, 707.70 288.31, 715.01" style="stroke:black; fill:none" />
<polyline points="350.53, 705.15 343.12, 706.33 337.06, 701.92 335.88, 694.51 340.29, 688.44 347.70, 687.27 353.77, 691.68 354.94, 699.09 350.53, 705.15" style="stroke:black; fill:none" />
<polyline points="421.01, 730.81 419.25, 730.16 418.45, 728.47 419.10, 726.70 420.80, 725.91 422.56, 726.55 423.35, 728.25 422.71, 730.01 421.01, 730.81" style="stroke:black; fill:none" />
<polyline points="359.39, 754.46 361.14, 753.79 362.86, 754.55 363.53, 756.30 362.77, 758.01 361.02, 758.68 359.30, 757.92 358.63, 756.17 359.39, 754.46" style="stroke:black; fill:none" />
<polyline points="382.25, 846.15 380.44, 838.87 384.30, 832.45 391.58, 830.63 398.01, 834.49 399.82, 841.77 395.96, 848.20 388.68, 850.01 382.25, 846.15" style="stroke:black; fill:none" />
<polyline points="353.13, 867.31 363.75, 859.60 376.71, 861.65 384.43, 872.27 382.37, 885.23 371.75, 892.95 358.79, 890.89 351.08, 880.27 353.13, 867.31" style="stroke:black; fill:none" />
<polyline points="373.55, 835.86 366.41, 846.87 353.57, 849.60 342.56, 842.45 339.83, 829.61 346.98, 818.60 359.82, 815.87 370.83, 823.02 373.55, 835.86" style="stroke:black; fill:none" />
<polyline points="397.52, 811.04 396.22, 812.39 394.34, 812.43 392.99, 811.12 392.96, 809.25 394.26, 807.90 396.14, 807.87 397.49, 809.17 397.52, 811.04" style="stroke:black; fill:none" />
<polyline points="329.54, 745.40 330.89, 746.70 330.92, 748.58 329.62, 749.92 327.75, 749.96 326.40, 748.66 326.36, 746.78 327.67, 745.43 329.54, 745.40" style="stroke:black; fill:none" />
<polyline points="373.87, 802.14 365.79, 791.79 367.39, 778.77 377.73, 770.69 390.76, 772.28 398.84, 782.63 397.24, 795.65 386.90, 803.74 373.87, 802.14" style="stroke:black; fill:none" />
<polyline points="304.01, 784.72 305.83, 785.17 306.79, 786.78 306.34, 788.60 304.73, 789.56 302.91, 789.11 301.95, 787.50 302.40, 785.68 304.01, 784.72" style="stroke:black; fill:none" />
<polyline points="360.63, 812.33 358.95, 811.51 358.34, 809.74 359.16, 808.05 360.93, 807.44 362.62, 808.27 363.23, 810.04 362.41, 811.72 360.63, 812.33" style="stroke:black; fill:none" />
<polyline points="357.18, 779.52 357.38, 781.38 356.20, 782.84 354.33, 783.03 352.88, 781.85 352.68, 779.99 353.86, 778.53 355.73, 778.34 357.18, 779.52" style="stroke:black; fill:none" />
<polyline points="378.39, 804.80 369.96, 794.74 371.10, 781.67 381.16, 773.23 394.23, 774.37 402.67, 784.43 401.52, 797.50 391.47, 805.94 378.39, 804.80" style="stroke:black; fill:none" />
<polyline points="410.75, 820.58 398.95, 814.82 394.68, 802.41 400.44, 790.62 412.85, 786.34 424.64, 792.10 428.92, 804.51 423.16, 816.30 410.75, 820.58" style="stroke:black; fill:none" />
<polyline points="384.95, 753.36 387.64, 760.36 384.59, 767.21 377.58, 769.90 370.73, 766.85 368.05, 759.85 371.10, 753.00 378.10, 750.31 384.95, 753.36" style="stroke:black; fill:none" />
<polyline points="418.09, 739.29 416.36, 740.02 414.62, 739.32 413.89, 737.60 414.59, 735.86 416.32, 735.13 418.06, 735.83 418.79, 737.55 418.09, 739.29" style="stroke:black; fill:none" />
<polyline points="451.20, 756.90 449.54, 756.02 448.99, 754.22 449.87, 752.57 451.67, 752.02 453.32, 752.90 453.87, 754.69 452.99, 756.35 451.20, 756.90" style="stroke:black; fill:none" />
<polyline points="417.78, 773.92 429.48, 767.96 441.96, 772.02 447.92, 783.71 443.86, 796.20 432.17, 802.16 419.69, 798.10 413.73, 786.40 417.78, 773.92" style="stroke:black; fill:none" />
<polyline points="430.69, 807.53 428.00, 800.53 431.05, 793.68 438.05, 790.99 444.90, 794.04 447.59, 801.04 444.54, 807.89 437.54, 810.58 430.69, 807.53" style="stroke:black; fill:none" />
<polyline points="404.56, 702.74 405.01, 704.56 404.05, 706.17 402.23, 706.62 400.62, 705.65 400.17, 703.83 401.13, 702.23 402.95, 701.77 404.56, 702.74" style="stroke:black; fill:none" />
<polyline points="455.47, 753.65 454.14, 752.32 454.14, 750.45 455.47, 749.12 457.35, 749.12 458.67, 750.45 458.67, 752.32 457.35, 753.65 455.47, 753.65" style="stroke:black; fill:none" />
<polyline points="474.87, 780.35 470.46, 774.28 471.63, 766.87 477.70, 762.46 485.11, 763.64 489.52, 769.71 488.34, 777.11 482.27, 781.52 474.87, 780.35" style="stroke:black; fill:none" />
<polyline points="502.82, 884.67 502.33, 882.86 503.27, 881.23 505.08, 880.75 506.71, 881.69 507.19, 883.50 506.25, 885.12 504.44, 885.61 502.82, 884.67" style="stroke:black; fill:none" />
<polyline points="603.67, 907.95 596.36, 906.26 592.38, 899.90 594.07, 892.60 600.43, 888.62 607.74, 890.31 611.71, 896.67 610.03, 903.98 603.67, 907.95" style="stroke:black; fill:none" />
<polyline points="715.33, 921.66 713.47, 921.43 712.31, 919.95 712.54, 918.09 714.02, 916.94 715.88, 917.17 717.03, 918.65 716.81, 920.51 715.33, 921.66" style="stroke:black; fill:none" />
<polyline points="706.56, 984.05 706.82, 982.19 708.32, 981.06 710.18, 981.32 711.30, 982.82 711.04, 984.68 709.55, 985.81 707.69, 985.55 706.56, 984.05" style="stroke:black; fill:none" />
<polyline points="644.26, 1060.99 645.44, 1059.53 647.30, 1059.33 648.76, 1060.51 648.96, 1062.38 647.78, 1063.83 645.91, 1064.03 644.45, 1062.85 644.26, 1060.99" style="stroke:black; fill:none" />
<polyline points="559.15, 1127.48 560.63, 1126.32 562.49, 1126.55 563.65, 1128.03 563.42, 1129.89 561.94, 1131.04 560.08, 1130.82 558.92, 1129.34 559.15, 1127.48" style="stroke:black; fill:none" />
<polyline points="532.46, 1108.08 543.07, 1115.79 545.13, 1128.76 537.41, 1139.38 524.45, 1141.43 513.83, 1133.71 511.78, 1120.75 519.49, 1110.13 532.46, 1108.08" style="stroke:black; fill:none" />
<polyline points="510.41, 1138.42 514.82, 1132.35 522.23, 1131.18 528.30, 1135.59 529.47, 1142.99 525.06, 1149.06 517.65, 1150.23 511.59, 1145.83 510.41, 1138.42" style="stroke:black; fill:none" />
<polyline points="449.46, 1216.43 450.62, 1214.95 452.48, 1214.73 453.96, 1215.88 454.18, 1217.74 453.03, 1219.22 451.17, 1219.45 449.69, 1218.29 449.46, 1216.43" style="stroke:black; fill:none" />
<polyline points="497.73, 1171.42 492.25, 1176.53 484.75, 1176.27 479.64, 1170.79 479.90, 1163.29 485.38, 1158.18 492.88, 1158.44 497.99, 1163.92 497.73, 1171.42" style="stroke:black; fill:none" />
<polyline points="578.17, 1106.28 572.34, 1111.00 564.88, 1110.22 560.16, 1104.39 560.94, 1096.93 566.77, 1092.21 574.23, 1093.00 578.95, 1098.83 578.17, 1106.28" style="stroke:black; fill:none" />
<polyline points="617.81, 1057.32 616.63, 1058.78 614.77, 1058.98 613.31, 1057.80 613.12, 1055.93 614.30, 1054.48 616.16, 1054.28 617.62, 1055.46 617.81, 1057.32" style="stroke:black; fill:none" />
<polyline points="634.04, 1030.32 633.07, 1031.93 631.25, 1032.38 629.65, 1031.42 629.19, 1029.60 630.16, 1027.99 631.98, 1027.54 633.58, 1028.50 634.04, 1030.32" style="stroke:black; fill:none" />
<polyline points="741.77, 1022.79 734.29, 1023.31 728.63, 1018.39 728.11, 1010.91 733.03, 1005.25 740.51, 1004.73 746.17, 1009.65 746.69, 1017.13 741.77, 1022.79" style="stroke:black; fill:none" />
<polyline points="826.71, 981.36 814.91, 987.12 802.50, 982.84 796.75, 971.05 801.02, 958.64 812.82, 952.88 825.23, 957.16 830.98, 968.95 826.71, 981.36" style="stroke:black; fill:none" />
<polyline points="760.87, 985.97 762.74, 985.84 764.16, 987.07 764.29, 988.94 763.06, 990.35 761.19, 990.48 759.77, 989.25 759.64, 987.38 760.87, 985.97" style="stroke:black; fill:none" />
<polyline points="790.00, 964.81 788.48, 965.91 786.63, 965.62 785.52, 964.10 785.82, 962.25 787.34, 961.15 789.19, 961.44 790.29, 962.96 790.00, 964.81" style="stroke:black; fill:none" />
<polyline points="878.22, 998.67 871.22, 995.99 868.17, 989.13 870.85, 982.13 877.71, 979.08 884.71, 981.77 887.76, 988.62 885.07, 995.62 878.22, 998.67" style="stroke:black; fill:none" />
<polyline points="842.49, 994.29 849.93, 995.20 854.55, 1001.11 853.64, 1008.55 847.73, 1013.17 840.28, 1012.26 835.66, 1006.35 836.58, 998.90 842.49, 994.29" style="stroke:black; fill:none" />
<polyline points="898.44, 948.97 888.24, 957.23 875.19, 955.86 866.93, 945.66 868.30, 932.61 878.50, 924.35 891.55, 925.72 899.81, 935.92 898.44, 948.97" style="stroke:black; fill:none" />
<polyline points="923.26, 968.37 921.79, 967.21 921.56, 965.35 922.71, 963.88 924.57, 963.65 926.05, 964.80 926.28, 966.66 925.13, 968.14 923.26, 968.37" style="stroke:black; fill:none" />
<polyline points="960.48, 963.80 953.04, 964.71 947.13, 960.09 946.22, 952.65 950.83, 946.74 958.28, 945.83 964.19, 950.44 965.10, 957.89 960.48, 963.80" style="stroke:black; fill:none" />
<polyline points="869.35, 1002.48 881.44, 997.35 893.61, 1002.27 898.73, 1014.35 893.82, 1026.52 881.74, 1031.65 869.57, 1026.73 864.44, 1014.65 869.35, 1002.48" style="stroke:black; fill:none" />
<polyline points="801.39, 1086.41 809.65, 1076.21 822.70, 1074.84 832.90, 1083.10 834.27, 1096.15 826.01, 1106.35 812.96, 1107.73 802.76, 1099.47 801.39, 1086.41" style="stroke:black; fill:none" />
<polyline points="697.95, 1082.80 705.45, 1083.06 710.56, 1088.55 710.30, 1096.04 704.81, 1101.16 697.32, 1100.90 692.20, 1095.41 692.47, 1087.92 697.95, 1082.80" style="stroke:black; fill:none" />
<polyline points="664.57, 1029.37 671.52, 1040.50 668.57, 1053.29 657.44, 1060.25 644.65, 1057.30 637.69, 1046.16 640.65, 1033.38 651.78, 1026.42 664.57, 1029.37" style="stroke:black; fill:none" />
<polyline points="696.06, 1028.82 682.94, 1029.05 673.50, 1019.94 673.27, 1006.81 682.39, 997.37 695.51, 997.14 704.95, 1006.26 705.18, 1019.38 696.06, 1028.82" style="stroke:black; fill:none" />
<polyline points="711.58, 961.59 709.90, 968.90 703.54, 972.87 696.23, 971.19 692.25, 964.83 693.94, 957.52 700.30, 953.54 707.61, 955.23 711.58, 961.59" style="stroke:black; fill:none" />
<polyline points="683.69, 901.78 689.24, 913.67 684.75, 926.00 672.85, 931.55 660.52, 927.06 654.97, 915.17 659.46, 902.83 671.36, 897.29 683.69, 901.78" style="stroke:black; fill:none" />
<polyline points="783.18, 873.25 775.97, 875.31 769.41, 871.68 767.34, 864.47 770.98, 857.91 778.19, 855.84 784.75, 859.48 786.82, 866.69 783.18, 873.25" style="stroke:black; fill:none" />
<polyline points="892.80, 898.55 880.01, 895.60 873.05, 884.47 876.01, 871.68 887.14, 864.73 899.93, 867.68 906.88, 878.81 903.93, 891.60 892.80, 898.55" style="stroke:black; fill:none" />
<polyline points="847.48, 942.32 848.83, 941.02 850.70, 941.05 852.01, 942.40 851.97, 944.27 850.62, 945.57 848.75, 945.54 847.45, 944.19 847.48, 942.32" style="stroke:black; fill:none" />
<polyline points="755.26, 895.33 761.94, 898.73 764.26, 905.87 760.86, 912.55 753.72, 914.87 747.04, 911.46 744.72, 904.33 748.13, 897.65 755.26, 895.33" style="stroke:black; fill:none" />
<polyline points="760.42, 862.74 760.13, 864.59 758.61, 865.69 756.76, 865.40 755.66, 863.88 755.95, 862.03 757.47, 860.93 759.32, 861.22 760.42, 862.74" style="stroke:black; fill:none" />
<polyline points="792.22, 842.86 790.63, 843.86 788.81, 843.44 787.81, 841.85 788.24, 840.02 789.83, 839.02 791.65, 839.45 792.65, 841.04 792.22, 842.86" style="stroke:black; fill:none" />
<polyline points="810.51, 813.61 803.55, 824.74 790.76, 827.69 779.63, 820.73 776.68, 807.95 783.63, 796.81 796.42, 793.86 807.55, 800.82 810.51, 813.61" style="stroke:black; fill:none" />
<polyline points="815.73, 776.47 813.90, 789.47 803.42, 797.37 790.42, 795.54 782.52, 785.06 784.35, 772.06 794.83, 764.16 807.83, 765.99 815.73, 776.47" style="stroke:black; fill:none" />
<polyline points="848.72, 786.56 836.17, 782.72 830.00, 771.13 833.84, 758.58 845.43, 752.42 857.98, 756.26 864.14, 767.84 860.31, 780.40 848.72, 786.56" style="stroke:black; fill:none" />
<polyline points="904.69, 821.53 898.33, 817.56 896.64, 810.25 900.62, 803.89 907.92, 802.20 914.28, 806.18 915.97, 813.49 912.00, 819.85 904.69, 821.53" style="stroke:black; fill:none" />
<polyline points="859.32, 728.51 860.14, 730.19 859.53, 731.97 857.84, 732.79 856.07, 732.18 855.25, 730.49 855.86, 728.72 857.54, 727.90 859.32, 728.51" style="stroke:black; fill:none" />
<polyline points="828.05, 724.67 835.50, 725.58 840.11, 731.49 839.20, 738.94 833.29, 743.55 825.85, 742.64 821.23, 736.73 822.14, 729.29 828.05, 724.67" style="stroke:black; fill:none" />
<polyline points="764.57, 637.29 772.29, 647.91 770.23, 660.88 759.61, 668.59 746.65, 666.54 738.94, 655.92 740.99, 642.96 751.61, 635.24 764.57, 637.29" style="stroke:black; fill:none" />
<polyline points="762.27, 703.25 762.73, 690.14 772.33, 681.19 785.44, 681.64 794.39, 691.24 793.94, 704.36 784.34, 713.31 771.22, 712.85 762.27, 703.25" style="stroke:black; fill:none" />
<polyline points="724.97, 707.17 732.43, 706.39 738.26, 711.11 739.05, 718.57 734.33, 724.40 726.87, 725.18 721.04, 720.46 720.25, 713.00 724.97, 707.17" style="stroke:black; fill:none" />
<polyline points="775.15, 616.65 774.24, 618.29 772.44, 618.81 770.80, 617.90 770.28, 616.10 771.19, 614.46 772.99, 613.94 774.63, 614.85 775.15, 616.65" style="stroke:black; fill:none" />
<polyline points="847.54, 555.91 841.80, 560.73 834.33, 560.07 829.51, 554.33 830.16, 546.86 835.90, 542.04 843.38, 542.69 848.20, 548.44 847.54, 555.91" style="stroke:black; fill:none" />
<polyline points="842.38, 588.50 843.55, 581.09 849.62, 576.69 857.03, 577.86 861.44, 583.93 860.26, 591.33 854.20, 595.74 846.79, 594.57 842.38, 588.50" style="stroke:black; fill:none" />
<polyline points="823.30, 619.03 824.30, 617.44 826.12, 617.02 827.71, 618.01 828.14, 619.84 827.14, 621.43 825.32, 621.85 823.73, 620.86 823.30, 619.03" style="stroke:black; fill:none" />
<polyline points="821.42, 583.08 821.52, 584.95 820.26, 586.35 818.39, 586.44 817.00, 585.19 816.90, 583.32 818.15, 581.92 820.03, 581.83 821.42, 583.08" style="stroke:black; fill:none" />
<polyline points="843.07, 607.99 834.46, 598.08 835.37, 584.99 845.28, 576.38 858.37, 577.29 866.98, 587.20 866.07, 600.29 856.16, 608.90 843.07, 607.99" style="stroke:black; fill:none" />
<polyline points="817.06, 587.67 818.54, 588.82 818.77, 590.68 817.62, 592.16 815.76, 592.39 814.28, 591.24 814.05, 589.38 815.20, 587.90 817.06, 587.67" style="stroke:black; fill:none" />
<polyline points="924.26, 574.51 922.40, 574.74 920.92, 573.58 920.69, 571.72 921.85, 570.24 923.71, 570.01 925.19, 571.17 925.41, 573.03 924.26, 574.51" style="stroke:black; fill:none" />
<polyline points="902.59, 545.76 907.11, 551.75 906.06, 559.17 900.07, 563.69 892.65, 562.64 888.13, 556.65 889.18, 549.23 895.17, 544.71 902.59, 545.76" style="stroke:black; fill:none" />
<polyline points="874.61, 563.24 880.97, 559.27 888.28, 560.96 892.25, 567.32 890.56, 574.62 884.20, 578.60 876.90, 576.91 872.92, 570.55 874.61, 563.24" style="stroke:black; fill:none" />
<polyline points="882.09, 528.03 879.36, 540.87 868.36, 548.02 855.52, 545.29 848.37, 534.28 851.10, 521.44 862.11, 514.29 874.95, 517.02 882.09, 528.03" style="stroke:black; fill:none" />
<polyline points="906.23, 550.54 900.74, 545.42 900.48, 537.93 905.60, 532.44 913.09, 532.18 918.58, 537.29 918.84, 544.79 913.72, 550.27 906.23, 550.54" style="stroke:black; fill:none" />
<polyline points="912.81, 613.19 912.03, 605.73 916.75, 599.90 924.21, 599.12 930.04, 603.84 930.82, 611.30 926.10, 617.13 918.64, 617.91 912.81, 613.19" style="stroke:black; fill:none" />
<polyline points="956.74, 711.85 951.40, 699.86 956.11, 687.61 968.10, 682.27 980.35, 686.98 985.69, 698.97 980.98, 711.22 968.99, 716.56 956.74, 711.85" style="stroke:black; fill:none" />
<polyline points="894.34, 733.34 896.11, 732.73 897.80, 733.55 898.41, 735.33 897.58, 737.01 895.81, 737.62 894.13, 736.80 893.52, 735.03 894.34, 733.34" style="stroke:black; fill:none" />
<polyline points="847.67, 686.67 848.99, 688.00 848.99, 689.87 847.67, 691.20 845.79, 691.20 844.47, 689.87 844.47, 688.00 845.79, 686.67 847.67, 686.67" style="stroke:black; fill:none" />
<polyline points="807.11, 630.85 814.83, 641.47 812.77, 654.43 802.15, 662.15 789.19, 660.09 781.48, 649.48 783.53, 636.51 794.15, 628.80 807.11, 630.85" style="stroke:black; fill:none" />
<polyline points="759.11, 717.44 760.02, 715.80 761.83, 715.28 763.47, 716.19 763.98, 717.99 763.07, 719.63 761.27, 720.15 759.63, 719.24 759.11, 717.44" style="stroke:black; fill:none" />
<polyline points="788.05, 698.65 781.76, 702.73 774.42, 701.17 770.34, 694.88 771.90, 687.55 778.19, 683.46 785.52, 685.02 789.61, 691.31 788.05, 698.65" style="stroke:black; fill:none" />
<polyline points="860.31, 618.39 859.06, 619.78 857.19, 619.88 855.79, 618.62 855.70, 616.75 856.95, 615.36 858.82, 615.26 860.22, 616.52 860.31, 618.39" style="stroke:black; fill:none" />
<polyline points="836.98, 595.05 842.28, 600.36 842.28, 607.86 836.98, 613.16 829.48, 613.16 824.18, 607.86 824.18, 600.36 829.48, 595.05 836.98, 595.05" style="stroke:black; fill:none" />
<polyline points="886.61, 547.12 877.17, 556.24 864.05, 556.01 854.93, 546.57 855.16, 533.45 864.60, 524.33 877.73, 524.56 886.84, 534.00 886.61, 547.12" style="stroke:black; fill:none" />
<polyline points="811.14, 490.25 821.63, 498.15 823.45, 511.15 815.55, 521.63 802.56, 523.46 792.07, 515.56 790.25, 502.56 798.15, 492.08 811.14, 490.25" style="stroke:black; fill:none" />
</svg>